<?xml version="1.0" encoding="UTF-8" standalone="no"?>
<!-- Created with Inkscape (http://www.inkscape.org/) -->

<svg
   xmlns:dc="http://purl.org/dc/elements/1.1/"
   xmlns:cc="http://creativecommons.org/ns#"
   xmlns:rdf="http://www.w3.org/1999/02/22-rdf-syntax-ns#"
   xmlns:svg="http://www.w3.org/2000/svg"
   xmlns="http://www.w3.org/2000/svg"
   xmlns:sodipodi="http://sodipodi.sourceforge.net/DTD/sodipodi-0.dtd"
   xmlns:inkscape="http://www.inkscape.org/namespaces/inkscape"
   width="105.03123mm"
   height="110.91075mm"
   viewBox="0 0 105.03123 110.91075"
   version="1.1"
   id="svg8"
   inkscape:version="0.92.2 (5c3e80d, 2017-08-06)"
   sodipodi:docname="LickenMoss.svg">
  <defs
     id="defs2" />
  <sodipodi:namedview
     id="base"
     pagecolor="#ffffff"
     bordercolor="#666666"
     borderopacity="1.0"
     inkscape:pageopacity="0.0"
     inkscape:pageshadow="2"
     inkscape:zoom="0.7"
     inkscape:cx="155.95705"
     inkscape:cy="214.95805"
     inkscape:document-units="mm"
     inkscape:current-layer="layer1"
     showgrid="false"
     inkscape:window-width="1680"
     inkscape:window-height="997"
     inkscape:window-x="-8"
     inkscape:window-y="-8"
     inkscape:window-maximized="1" />
  <metadata
     id="metadata5">
    <rdf:RDF>
      <cc:Work
         rdf:about="">
        <dc:format>image/svg+xml</dc:format>
        <dc:type
           rdf:resource="http://purl.org/dc/dcmitype/StillImage" />
        <dc:title />
      </cc:Work>
    </rdf:RDF>
  </metadata>
  <g
     inkscape:label="Layer 1"
     inkscape:groupmode="layer"
     id="layer1"
     transform="translate(-3.2632255,-3.3278717)">
    <path
       style="fill:#008000;fill-opacity:1;stroke:none;stroke-width:0.2375828;stroke-opacity:1"
       d="m 72.543816,44.737715 c 0.457142,-7.523384 0.524704,-15.241024 2.973041,-22.455947 3.125043,-3.458524 9.595558,2.282574 12.802191,-2.814855 5.207256,-3.572186 1.070175,-10.4946285 -4.609589,-9.356391 -5.090726,-0.4417722 -8.341269,4.053149 -9.5916,8.363927 -8.116318,14.693336 -5.266468,67.807077 -1.574043,26.263266 z m -3.110424,9.88442 c -6.130537,-2.570439 -1.11598,-8.440682 -5.191907,-11.103706 -3.303849,6.347821 -4.823153,5.253569 -6.193187,8.865439 -0.59109,1.643177 -1.324565,5.558049 -0.813096,1.52586 1.586202,-13.248344 -2.13967,-28.388629 -13.588818,-36.541616 -4.005262,-2.995292 -11.146849,-4.592447 -14.309182,0.375536 -2.463419,4.07686 -2.75761,12.160027 3.462047,12.804587 3.691703,1.292103 11.681085,-5.499951 5.137234,-6.860063 -5.167698,-2.721799 1.356338,-6.978041 4.443685,-3.669297 4.728713,3.496986 7.45446,9.058771 9.822971,14.280679 3.535261,8.031411 2.520733,16.938365 1.259685,25.335093 -3.874003,-1.716346 0.629283,-6.891927 -3.161061,-10.089569 -3.078448,7.551331 -8.030384,-14.668833 -9.339484,-0.912385 1.231087,3.829055 4.667012,6.787652 -0.802359,8.54171 -2.98714,0.15569 -5.607775,-9.395139 -5.858786,-4.476731 -0.545532,10.689386 -10.415466,0.552576 -14.692174,3.26648 -4.178794,2.65177 15.43052,7.047115 4.973133,8.8422 -12.1979,-2.116847 10.483866,8.787342 3.63669,8.700872 -6.253566,0.335091 -5.908341,-3.89343 -12.132979,-2.727724 -4.837556,3.434888 -3.490593,5.576102 0.701564,3.691204 4.393133,-1.975261 6.503819,1.010642 3.088513,4.559438 -0.637899,0.662832 6.590681,1.370408 5.969888,2.417265 -1.031184,1.254633 -3.186081,4.084341 -6.962627,1.47031 -7.178601,-4.968851 -13.8602504,15.89554 -6.75499,8.251732 1.484136,-1.596628 4.708059,1.778028 4.288028,3.619723 0.740238,8.269708 3.691738,-2.283083 7.626872,-3.129714 1.547293,-0.921505 6.033562,-2.218183 5.565725,2.488951 -0.305917,3.077953 6.932192,-2.865366 5.367445,0.901268 -2.69657,4.045823 -10.93317,-3.390219 -11.679976,6.786033 11.669898,-2.540312 4.472134,7.14735 10.929586,3.90369 11.598797,-1.50235 23.565521,0.87152 34.975266,-2.07296 3.415541,-0.75135 5.77001,-4.388539 4.291049,-7.687334 2.698725,10.290334 5.804596,12.122764 19.561545,6.163854 6.182983,-2.637235 1.439033,-5.809989 1.030512,-4.160618 -1.030512,4.160618 -4.267206,0.39011 -5.286884,-1.105356 5.286884,1.105356 1.28066,-3.068462 6.696305,-2.248251 6.232075,0.943863 -8.774829,-6.919882 -5.832281,-6.674199 5.48987,-0.865754 4.862394,3.743564 10.17872,1.985288 -7.357492,-5.40401 -1.035346,-8.060937 -4.325771,-8.392464 -3.589963,-0.0109 -5.852949,6.407176 -4.520504,-0.08871 -4.424299,-2.736863 1.604481,-2.152484 6.354212,-3.729707 10.195509,-3.385584 -5.759745,-2.200483 -6.901675,-3.079072 -4.133513,-3.180281 2.38342,-9.811555 0.078,-8.038788 -1.86533,0.455356 -3.570094,1.538742 -5.137628,2.241157 -2.086603,0.93501 5.137628,-2.241157 4.111062,-10.083445 -3.42975,4.2809 -9.156829,4.628031 -8.708723,2.223476 0.810718,-4.350331 1.473628,-8.845405 -0.925422,-8.622819 -4.228191,6.007307 -8.283879,6.776347 -10.430226,2.252688 z"
       id="path826"
       inkscape:connector-curvature="0"
       sodipodi:nodetypes="ccccccccccccccccccccsscccsscssccsccccccscsccccsscscsccc" />
  </g>
</svg>
