<?xml version="1.0" encoding="UTF-8" standalone="no"?>
<!-- Created with Inkscape (http://www.inkscape.org/) -->

<svg
   xmlns:dc="http://purl.org/dc/elements/1.1/"
   xmlns:cc="http://creativecommons.org/ns#"
   xmlns:rdf="http://www.w3.org/1999/02/22-rdf-syntax-ns#"
   xmlns:svg="http://www.w3.org/2000/svg"
   xmlns="http://www.w3.org/2000/svg"
   xmlns:sodipodi="http://sodipodi.sourceforge.net/DTD/sodipodi-0.dtd"
   xmlns:inkscape="http://www.inkscape.org/namespaces/inkscape"
   width="105.03123mm"
   height="110.91075mm"
   viewBox="0 0 105.03123 110.91075"
   version="1.1"
   id="svg8"
   inkscape:version="0.92.2 (5c3e80d, 2017-08-06)"
   sodipodi:docname="DailyLife.svg">
  <defs
     id="defs2" />
  <sodipodi:namedview
     id="base"
     pagecolor="#ffffff"
     bordercolor="#666666"
     borderopacity="1.0"
     inkscape:pageopacity="0.0"
     inkscape:pageshadow="2"
     inkscape:zoom="0.98994949"
     inkscape:cx="213.09991"
     inkscape:cy="258.23572"
     inkscape:document-units="mm"
     inkscape:current-layer="layer1"
     showgrid="false"
     inkscape:window-width="1680"
     inkscape:window-height="997"
     inkscape:window-x="-8"
     inkscape:window-y="-8"
     inkscape:window-maximized="1" />
  <metadata
     id="metadata5">
    <rdf:RDF>
      <cc:Work
         rdf:about="">
        <dc:format>image/svg+xml</dc:format>
        <dc:type
           rdf:resource="http://purl.org/dc/dcmitype/StillImage" />
        <dc:title />
      </cc:Work>
    </rdf:RDF>
  </metadata>
  <g
     inkscape:label="Layer 1"
     inkscape:groupmode="layer"
     id="layer1"
     transform="translate(-3.2632255,-3.3278717)">
    <text
       xml:space="preserve"
       style="font-style:normal;font-weight:normal;font-size:20.51568031px;line-height:1.25;font-family:sans-serif;letter-spacing:0px;word-spacing:0px;fill:#000000;fill-opacity:1;stroke:none;stroke-width:0.51289201"
       x="0.5106284"
       y="100.63244"
       id="text818"
       transform="scale(0.95174954,1.0506966)"><tspan
         sodipodi:role="line"
         id="tspan816"
         x="0.5106284"
         y="100.63244"
         style="font-style:normal;font-variant:normal;font-weight:bold;font-stretch:normal;font-size:136.77119446px;font-family:Cambria;-inkscape-font-specification:'Cambria Bold';fill:#008000;stroke-width:0.51289201">1</tspan></text>
    <path
       style="fill:#008000;fill-opacity:1;stroke:none;stroke-width:0.26275101px;stroke-linecap:butt;stroke-linejoin:miter;stroke-opacity:1"
       d="m 72.595999,70.961851 -0.720312,3.393161 c -1.041472,-0.03656 -1.909267,0.366815 -2.341096,1.088208 -0.121637,0.204602 -0.205611,0.430378 -0.249681,0.671301 -1.425737,0.427083 -2.903264,1.274686 -4.198363,2.321549 -0.830605,-0.575704 -2.009776,-1.321943 -3.625622,-2.270807 -0.8095,0.875004 0.97954,2.220416 2.695349,3.08749 -0.688376,0.655534 -1.29477,1.358428 -1.774828,2.066961 -0.797734,-0.534688 -1.842227,-1.189497 -3.221428,-1.999406 -0.795938,0.860347 0.920307,2.175726 2.609061,3.043835 -0.532743,1.066974 -0.879263,2.276141 -1.025888,3.499512 -0.778371,-0.515786 -1.779827,-1.139186 -3.070453,-1.897084 -0.85605,0.925319 1.193678,2.377377 2.989844,3.232568 0.0014,2.48033 0.853414,4.816867 2.672144,5.90102 1.888149,1.125533 4.394759,0.649086 6.576173,-0.674622 2.555382,1.770085 7.015583,2.962674 1.130991,-0.785848 0.867314,-0.682849 1.644015,-1.495047 2.258944,-2.378727 2.622272,1.738978 6.895628,2.820564 0.657157,-1.093585 0.361293,-0.703036 0.667462,-1.496735 0.905755,-2.336063 2.566387,2.049624 8.487326,3.709798 0.298749,-1.248882 0.323317,-1.662655 0.377542,-3.402517 0.075,-4.889715 0.201142,-0.156412 0.367788,-0.343134 0.495148,-0.5548 0.505436,-0.85067 0.331126,-2.011077 -0.452683,-3.013569 l 2.12816,-1.939323 c -0.529871,0.482833 -1.804707,0.50666 -2.563505,1.458731 -0.254278,-0.242001 -0.539855,-0.458338 -0.847338,-0.641895 -0.481752,-0.286733 -1.00616,-0.486568 -1.531612,-0.583649 0.581629,-1.41682 -0.06685,-2.52739 0.130359,-3.456323 z"
       id="path860"
       inkscape:connector-curvature="0"
       sodipodi:nodetypes="cccccccccccccsccccccccccccccc" />
    <path
       style="fill:#008000;stroke:none;stroke-width:0.23139337;stroke-opacity:1"
       d="m 100.39614,98.981202 c -1.125929,2.809128 -3.843424,0.482734 -5.409593,3.330778 -1.541176,2.80259 -4.382291,2.88448 -8.273281,2.65955 -2.719685,-0.15721 -8.209203,-0.33394 -11.665929,0.0891 -2.467412,0.30196 -4.825485,-0.0346 1.400884,-2.53239 0.895804,-0.35935 -0.938063,-4.887898 1.875815,-7.166507 6.666371,-5.398264 11.776221,-0.566627 11.858706,2.536321 0.08353,3.142186 3.383561,3.159816 4.331678,1.26476 0.758441,-1.51594 2.197871,-2.966146 2.197871,-2.966146 2.25548,-4.890803 4.965759,-5.398043 4.224409,-4.012279 0,0 -2.365339,2.650579 -2.277802,4.257793 0.05577,1.02397 2.525072,0.573435 1.737242,2.53902 z"
       id="path820"
       inkscape:connector-curvature="0"
       sodipodi:nodetypes="sssssssscsss" />
    <path
       style="fill:#008000;stroke:none;stroke-width:0.2535736;stroke-opacity:1"
       d="m 67.606065,53.809441 c -3.895018,2.290156 -5.529664,12.154153 -7.677728,15.246767 -2.577079,3.710274 -5.414908,1.937124 -3.413235,3.007872 3.806973,2.03645 8.347657,-8.988111 9.646629,-11.83523 1.770833,-3.881352 4.675651,-2.243477 6.365836,-2.060406 4.93508,0.53454 7.26591,-1.463108 8.603843,-4.626273 1.091728,-2.581084 -0.35198,-4.562526 3.055271,-7.273004 2.734782,-2.175527 5.739951,-2.765497 0.14005,-3.499652 -4.918526,-0.644826 -6.275654,2.270974 -6.275654,2.270974 -2.878957,0.1169 -3.552326,0.117329 -6.99687,-3.51149 -3.456474,-3.641387 -5.102394,-3.485259 -8.733243,-4.306992 -15.327411,-3.468897 1.32708,3.430634 -1.762523,2.862963 -15.633005,-2.872345 3.523125,4.39688 0.765532,4.171034 -14.553342,-1.191917 0.399729,3.053851 0.399729,3.053851 -10.798623,0.238503 2.152702,2.787785 -0.370566,3.160817 -5.640392,0.833857 0.94553,0.415247 3.457346,1.798853 z"
       id="path828"
       inkscape:connector-curvature="0"
       sodipodi:nodetypes="sssssssssssssssss" />
    <path
       style="fill:#008000;stroke:none;stroke-width:0.23710965;stroke-opacity:1"
       d="M 89.942604,23.015833 C 85.700786,19.299584 85.903027,22.866395 76.144937,13.735215 69.102166,7.6176249 63.420815,10.462407 61.554727,12.659461 c 0,0 -1.726184,-2.8627469 -3.09587,-2.616153 -0.725683,0.130648 -1.438568,1.940382 -1.438568,1.940382 l 2.584733,2.184221 c 0.835623,0.70614 -1.768753,1.86549 -1.298398,5.406948 2.487281,11.985522 18.414708,13.37747 32.487842,4.257836 -0.285495,-0.298232 -0.569075,-0.569115 -0.851858,-0.816866 z"
       id="path832"
       inkscape:connector-curvature="0"
       sodipodi:nodetypes="cccscsccsc" />
  </g>
</svg>
