<?xml version="1.0" encoding="UTF-8" standalone="no"?>
<!-- Created with Inkscape (http://www.inkscape.org/) -->

<svg
   xmlns:dc="http://purl.org/dc/elements/1.1/"
   xmlns:cc="http://creativecommons.org/ns#"
   xmlns:rdf="http://www.w3.org/1999/02/22-rdf-syntax-ns#"
   xmlns:svg="http://www.w3.org/2000/svg"
   xmlns="http://www.w3.org/2000/svg"
   xmlns:sodipodi="http://sodipodi.sourceforge.net/DTD/sodipodi-0.dtd"
   xmlns:inkscape="http://www.inkscape.org/namespaces/inkscape"
   width="105.03123mm"
   height="110.91075mm"
   viewBox="0 0 105.03123 110.91075"
   version="1.1"
   id="svg8"
   inkscape:version="0.92.2 (5c3e80d, 2017-08-06)"
   sodipodi:docname="DaisyTown.svg">
  <defs
     id="defs2" />
  <sodipodi:namedview
     id="base"
     pagecolor="#ffffff"
     bordercolor="#666666"
     borderopacity="1.0"
     inkscape:pageopacity="0.0"
     inkscape:pageshadow="2"
     inkscape:zoom="0.7"
     inkscape:cx="155.95705"
     inkscape:cy="184.35611"
     inkscape:document-units="mm"
     inkscape:current-layer="layer1"
     showgrid="false"
     inkscape:window-width="1680"
     inkscape:window-height="997"
     inkscape:window-x="-8"
     inkscape:window-y="-8"
     inkscape:window-maximized="1" />
  <metadata
     id="metadata5">
    <rdf:RDF>
      <cc:Work
         rdf:about="">
        <dc:format>image/svg+xml</dc:format>
        <dc:type
           rdf:resource="http://purl.org/dc/dcmitype/StillImage" />
        <dc:title />
      </cc:Work>
    </rdf:RDF>
  </metadata>
  <g
     inkscape:label="Layer 1"
     inkscape:groupmode="layer"
     id="layer1"
     transform="translate(-3.2632255,-3.3278717)">
    <ellipse
       style="fill:#ffffff;fill-opacity:1;stroke:none;stroke-width:0.26458332;stroke-opacity:1"
       id="path816"
       cx="30.47751"
       cy="26.831629"
       rx="17.953869"
       ry="16.536459" />
    <path
       style="fill:#008000;fill-opacity:1;stroke:none;stroke-width:0.19135422;stroke-opacity:1"
       d="m 39.281101,9.2398311 c -0.09434,0.0027 -0.190007,0.01024 -0.287103,0.02209 -6.214081,0.7584579 -2.318908,18.6365659 -2.318908,18.6365659 0,0 -9.59537,-15.580041 -14.597694,-11.816155 -5.002324,3.763886 7.31008,17.29967 7.31008,17.29967 0,0 -16.099541,-8.695404 -18.549737,-2.934619 -2.4501986,5.760783 14.980371,11.326861 14.980371,11.326861 0,0 -18.290389,0.519508 -17.5319316,6.733593 0.7584575,6.214086 18.6369356,2.318908 18.6369356,2.318908 0,0 -15.580413,9.595376 -11.816529,14.597703 3.763883,5.002326 17.29966,-7.310084 17.29966,-7.310084 0,0 -8.695399,16.099547 -2.934619,18.549737 5.760781,2.4502 11.326855,-14.980369 11.326855,-14.980369 0,0 0.519509,18.290389 6.733592,17.531939 6.214081,-0.75845 2.319287,-18.636944 2.319287,-18.636944 0,0 9.594991,15.580424 14.597314,11.816536 5.002323,-3.763887 -7.310079,-17.29967 -7.310079,-17.29967 0,0 16.09992,8.695403 18.550119,2.934621 2.450197,-5.760785 -14.980373,-11.326863 -14.980373,-11.326863 0,0 18.290384,-0.519509 17.531932,-6.733593 -0.758468,-6.214085 -18.636936,-2.319291 -18.636936,-2.319291 0,0 15.580031,-9.594996 11.816149,-14.597322 -3.763884,-5.002326 -17.299661,7.310085 -17.299661,7.310085 0,0 8.695398,-16.099932 2.934619,-18.550129 -5.760782,-2.4502009 -11.326854,14.98076 -11.326854,14.98076 0,0 -0.503431,-17.7236319 -6.446489,-17.5540259 z m 3.982124,26.9336129 a 7.3684075,7.3684116 0 0 1 7.368339,7.368342 7.3684075,7.3684116 0 0 1 -7.368339,7.368343 7.3684075,7.3684116 0 0 1 -7.368338,-7.368343 7.3684075,7.3684116 0 0 1 7.368338,-7.368342 z"
       id="path822"
       inkscape:connector-curvature="0" />
    <path
       style="fill:#008000;fill-opacity:1;stroke:none;stroke-width:0.08200895;stroke-opacity:1"
       d="m 36.252875,78.894633 c -0.04019,-0.0046 -0.08122,-0.0073 -0.123141,-0.0082 -2.682309,-0.05825 -2.123245,7.763587 -2.123245,7.763587 0,0 -3.117535,-7.195588 -5.469609,-5.904882 -2.352075,1.290707 2.042991,7.78529 2.042991,7.78529 0,0 -6.297501,-4.672935 -7.689104,-2.379113 -1.391604,2.293822 5.661855,5.72073 5.661855,5.72073 0,0 -7.790307,-0.898059 -7.84856,1.784252 -0.05825,2.682312 7.763742,2.123268 7.763742,2.123268 0,0 -7.195745,3.117511 -5.90504,5.469589 1.290705,2.35207 7.785286,-2.042994 7.785286,-2.042994 0,0 -4.672932,6.297494 -2.379112,7.689104 2.293821,1.3916 5.720727,-5.66186 5.720727,-5.66186 0,0 -0.898061,7.79031 1.784249,7.84857 2.682309,0.0583 2.123429,-7.76372 2.123429,-7.76372 0,0 3.117352,7.19572 5.469425,5.90502 2.352075,-1.29072 -2.042992,-7.785294 -2.042992,-7.785294 0,0 6.297662,4.672964 7.689266,2.379134 1.391603,-2.293819 -5.661856,-5.720727 -5.661856,-5.720727 0,0 7.790305,0.898058 7.848561,-1.784252 0.05825,-2.682311 -7.763719,-2.12343 -7.763719,-2.12343 0,0 7.195561,-3.117376 5.904855,-5.469452 -1.290704,-2.352075 -7.785285,2.042995 -7.785285,2.042995 0,0 4.672957,-6.297668 2.379137,-7.689271 -2.293822,-1.391605 -5.720751,5.662021 -5.720751,5.662021 0,0 0.870224,-7.548914 -1.661114,-7.840378 z m 0.04222,11.668381 a 3.157889,3.1578909 8.2029285 0 1 2.674989,3.576115 3.157889,3.1578909 8.2029285 0 1 -3.576113,2.674991 3.157889,3.1578909 8.2029285 0 1 -2.674989,-3.576115 3.157889,3.1578909 8.2029285 0 1 3.576113,-2.674991 z"
       id="path822-8"
       inkscape:connector-curvature="0" />
    <path
       style="fill:#008000;fill-opacity:1;stroke:none;stroke-width:0.08200895;stroke-opacity:1"
       d="m 84.522376,56.716785 c -0.04043,0.0012 -0.08143,0.0044 -0.123045,0.0095 -2.663178,0.325053 -0.993817,7.9871 -0.993817,7.9871 0,0 -4.112302,-6.677161 -6.256156,-5.064067 -2.143853,1.613094 3.132892,7.414145 3.132892,7.414145 0,0 -6.899804,-3.726601 -7.949888,-1.257694 -1.050085,2.468907 6.42016,4.85437 6.42016,4.85437 0,0 -7.838739,0.222646 -7.513686,2.885826 0.325053,2.66318 7.987259,0.993817 7.987259,0.993817 0,0 -6.677321,4.112304 -5.064227,6.256162 1.613092,2.14385 7.414141,-3.132897 7.414141,-3.132897 0,0 -3.726601,6.899798 -1.257694,7.949886 2.468906,1.050081 4.854367,-6.420156 4.854367,-6.420156 0,0 0.222645,7.838739 2.885824,7.513687 2.663178,-0.325051 0.99398,-7.98726 0.99398,-7.98726 0,0 4.11214,6.677321 6.255995,5.064231 2.14385,-1.613101 -3.132894,-7.414147 -3.132894,-7.414147 0,0 6.899964,3.726602 7.950053,1.257695 1.05008,-2.468907 -6.420162,-4.85437 -6.420162,-4.85437 0,0 7.838732,-0.222647 7.513682,-2.885826 -0.32505,-2.663179 -7.987255,-0.993981 -7.987255,-0.993981 0,0 6.677156,-4.112142 5.064066,-6.255995 -1.61309,-2.143855 -7.414142,3.132893 -7.414142,3.132893 0,0 3.726602,-6.899972 1.257694,-7.950056 -2.468907,-1.050086 -4.854367,6.420326 -4.854367,6.420326 0,0 -0.215755,-7.595843 -2.76278,-7.523155 z M 86.229,68.259763 A 3.1578891,3.157891 0 0 1 89.386859,71.417624 3.1578891,3.157891 0 0 1 86.229,74.575485 3.1578891,3.157891 0 0 1 83.071141,71.417624 3.1578891,3.157891 0 0 1 86.229,68.259763 Z"
       id="path822-8-6"
       inkscape:connector-curvature="0" />
    <path
       style="fill:#008000;fill-opacity:1;stroke:none;stroke-width:0.05467264;stroke-opacity:1"
       d="m 58.892777,75.659082 c -0.02659,0.0045 -0.05339,0.01029 -0.0804,0.01744 -1.729234,0.457098 0.07071,5.365329 0.07071,5.365329 0,0 -3.32367,-4.035413 -4.592682,-2.774937 -1.269011,1.260476 2.743932,4.611288 2.743932,4.611288 0,0 -4.896015,-1.833054 -5.364773,-0.106943 -0.468759,1.72611 4.681905,2.621519 4.681905,2.621519 0,0 -5.156613,0.860589 -4.699516,2.589825 0.457098,1.729236 5.365433,-0.07073 5.365433,-0.07073 0,0 -4.035517,3.323686 -2.775041,4.592701 1.260476,1.269016 4.611284,-2.743935 4.611284,-2.743935 0,0 -1.833053,4.896013 -0.106943,5.364776 1.726109,0.468752 2.621517,-4.681907 2.621517,-4.681907 0,0 0.860589,5.156617 2.589825,4.699521 1.729234,-0.457096 -0.07062,-5.365452 -0.07062,-5.365452 0,0 3.323579,4.035538 4.592589,2.775059 1.269012,-1.26048 -2.743931,-4.611289 -2.743931,-4.611289 0,0 4.896122,1.833042 5.364881,0.10693 0.468758,-1.726111 -4.681906,-2.621519 -4.681906,-2.621519 0,0 5.156613,-0.860591 4.699516,-2.589825 -0.4571,-1.729235 -5.365448,0.07062 -5.365448,0.07062 0,0 4.035425,-3.323566 2.77495,-4.592578 -1.260476,-1.269013 -4.611285,2.743933 -4.611285,2.743933 0,0 1.833036,-4.896125 0.106928,-5.364884 -1.72611,-0.468761 -2.621502,4.682015 -2.621502,4.682015 0,0 -0.833928,-4.996828 -2.509424,-4.716972 z m 2.177834,7.467895 a 2.1052608,2.1052594 82.152159 0 1 2.372977,1.798068 2.1052608,2.1052594 82.152159 0 1 -1.798066,2.372978 2.1052608,2.1052594 82.152159 0 1 -2.372977,-1.798067 2.1052608,2.1052594 82.152159 0 1 1.798066,-2.372979 z"
       id="path822-8-7"
       inkscape:connector-curvature="0" />
    <path
       style="fill:#008000;fill-opacity:1;stroke:none;stroke-width:0.05467264;stroke-opacity:1"
       d="m 77.897295,88.202622 c -0.02629,0.006 -0.05272,0.01329 -0.07929,0.02196 -1.700609,0.554181 0.374096,5.352738 0.374096,5.352738 0,0 -3.546615,-3.840945 -4.742295,-2.510704 -1.195679,1.330239 3.00038,4.44869 3.00038,4.44869 0,0 -4.991863,-1.55317 -5.362232,0.196692 -0.370369,1.749862 4.822698,2.352485 4.822698,2.352485 0,0 -5.099677,1.1509 -4.545495,2.851515 0.554182,1.70061 5.352841,-0.37412 5.352841,-0.37412 0,0 -3.841047,3.54664 -2.510806,4.74233 1.330241,1.19568 4.448687,-3.00039 4.448687,-3.00039 0,0 -1.553169,4.99187 0.196693,5.36224 1.749861,0.37036 2.352482,-4.8227 2.352482,-4.8227 0,0 1.1509,5.09968 2.851512,4.5455 1.700609,-0.55418 -0.374014,-5.35287 -0.374014,-5.35287 0,0 3.546534,3.84108 4.742211,2.51083 1.19568,-1.33024 -3.000381,-4.44869 -3.000381,-4.44869 0,0 4.991973,1.55315 5.362341,-0.196709 0.370368,-1.749864 -4.822699,-2.352491 -4.822699,-2.352491 0,0 5.099675,-1.150903 4.545495,-2.851512 -0.554184,-1.70061 -5.352863,0.374009 -5.352863,0.374009 0,0 3.840963,-3.54651 2.510723,-4.742192 -1.33024,-1.195679 -4.448688,3.000383 -4.448688,3.000383 0,0 1.553147,-4.991974 -0.196713,-5.362343 -1.749863,-0.37037 -2.352463,4.822807 -2.352463,4.822807 0,0 -1.115243,-4.941655 -2.772225,-4.567471 z m 2.596775,7.332745 a 2.1052608,2.1052594 78.909433 0 1 2.470887,1.66096 2.1052608,2.1052594 78.909433 0 1 -1.660957,2.470891 2.1052608,2.1052594 78.909433 0 1 -2.470887,-1.660962 2.1052608,2.1052594 78.909433 0 1 1.660957,-2.470889 z"
       id="path822-8-7-7"
       inkscape:connector-curvature="0" />
    <path
       style="fill:#008000;fill-opacity:1;stroke:none;stroke-width:0.05467264;stroke-opacity:1"
       d="m 87.628481,34.960318 c -0.02655,0.0047 -0.0533,0.01071 -0.08026,0.01807 -1.725576,0.470716 0.113012,5.364605 0.113012,5.364605 0,0 -3.355381,-4.009084 -4.614415,-2.738643 -1.259035,1.270442 2.780201,4.589512 2.780201,4.589512 0,0 -4.910314,-1.794397 -5.36545,-0.06464 -0.455135,1.729752 4.702428,2.584526 4.702428,2.584526 0,0 -5.149669,0.901216 -4.678952,2.626795 0.470717,1.725579 5.364709,-0.113028 5.364709,-0.113028 0,0 -4.009188,3.355399 -2.738747,4.614437 1.270442,1.25904 4.589508,-2.780205 4.589508,-2.780205 0,0 -1.794396,4.910314 -0.06464,5.365452 1.729751,0.45513 2.584524,-4.702428 2.584524,-4.702428 0,0 0.901215,5.149672 2.626794,4.678956 1.725577,-0.470714 -0.112922,-5.364728 -0.112922,-5.364728 0,0 3.355293,4.00921 4.614326,2.738765 1.259035,-1.270445 -2.780201,-4.589512 -2.780201,-4.589512 0,0 4.910422,1.794383 5.365552,0.06463 0.455142,-1.729752 -4.702423,-2.584525 -4.702423,-2.584525 0,0 5.149665,-0.901219 4.678953,-2.626796 -0.470716,-1.725578 -5.364726,0.112919 -5.364726,0.112919 0,0 4.009098,-3.355276 2.738657,-4.614312 -1.270441,-1.259036 -4.589509,2.780204 -4.589509,2.780204 0,0 1.794379,-4.910426 0.06463,-5.365562 -1.729753,-0.455137 -2.584509,4.702538 -2.584509,4.702538 0,0 -0.873297,-4.990098 -2.546534,-4.697041 z m 2.236642,7.450493 a 2.1052608,2.1052594 81.700439 0 1 2.387079,1.779304 2.1052608,2.1052594 81.700439 0 1 -1.779302,2.38708 2.1052608,2.1052594 81.700439 0 1 -2.387079,-1.779303 2.1052608,2.1052594 81.700439 0 1 1.779302,-2.387081 z"
       id="path822-8-7-1"
       inkscape:connector-curvature="0" />
  </g>
</svg>
