<?xml version="1.0" encoding="UTF-8" standalone="no"?>
<!-- Created with Inkscape (http://www.inkscape.org/) -->

<svg
   xmlns:dc="http://purl.org/dc/elements/1.1/"
   xmlns:cc="http://creativecommons.org/ns#"
   xmlns:rdf="http://www.w3.org/1999/02/22-rdf-syntax-ns#"
   xmlns:svg="http://www.w3.org/2000/svg"
   xmlns="http://www.w3.org/2000/svg"
   xmlns:sodipodi="http://sodipodi.sourceforge.net/DTD/sodipodi-0.dtd"
   xmlns:inkscape="http://www.inkscape.org/namespaces/inkscape"
   width="105.03123mm"
   height="110.91075mm"
   viewBox="0 0 105.03123 110.91075"
   version="1.1"
   id="svg8"
   inkscape:version="0.92.2 (5c3e80d, 2017-08-06)"
   sodipodi:docname="KingFisher.svg">
  <defs
     id="defs2" />
  <sodipodi:namedview
     id="base"
     pagecolor="#ffffff"
     bordercolor="#666666"
     borderopacity="1.0"
     inkscape:pageopacity="0.0"
     inkscape:pageshadow="2"
     inkscape:zoom="0.7"
     inkscape:cx="155.95705"
     inkscape:cy="212.67331"
     inkscape:document-units="mm"
     inkscape:current-layer="layer1"
     showgrid="false"
     inkscape:window-width="1680"
     inkscape:window-height="997"
     inkscape:window-x="-8"
     inkscape:window-y="-8"
     inkscape:window-maximized="1" />
  <metadata
     id="metadata5">
    <rdf:RDF>
      <cc:Work
         rdf:about="">
        <dc:format>image/svg+xml</dc:format>
        <dc:type
           rdf:resource="http://purl.org/dc/dcmitype/StillImage" />
        <dc:title />
      </cc:Work>
    </rdf:RDF>
  </metadata>
  <g
     inkscape:label="Layer 1"
     inkscape:groupmode="layer"
     id="layer1"
     transform="translate(-3.2632255,-3.3278717)">
    <path
       style="fill:#008000;stroke:none;stroke-width:0.26458332px;stroke-linecap:butt;stroke-linejoin:miter;stroke-opacity:1"
       d="m 33.569279,73.261513 c 3.640639,3.411186 -0.576634,15.208843 3.064007,18.620032 4.21932,3.953395 1.892026,-10.496896 4.074,-8.452441 0.675995,0.633393 2.474182,15.536015 6.784813,10.935436 3.280182,-3.500826 -8.482094,-18.34846 -11.853956,-28.54478 -0.935448,-2.82874 -2.011358,-4.789334 -1.322281,-9.808559 0.281954,-2.053746 0.35577,-9.667761 2.198006,-14.676205 0.980955,-2.6669 2.179117,2.249872 5.145895,-0.182255 2.53544,-2.078521 -2.944194,-5.200021 -3.101282,-9.320655 -0.145641,-3.820454 2.732155,-23.8866677 -5.908028,-16.852232 -4.031559,3.282308 -7.180129,7.282189 -9.379142,11.714808 -0.399888,0.806065 -5.586053,-1.100283 -4.603802,1.771023 1.241304,3.628566 2.905942,2.232311 2.650259,3.018942 -4.361512,13.418589 -0.793998,29.553575 12.251511,41.776886 z"
       id="path833"
       inkscape:connector-curvature="0"
       sodipodi:nodetypes="ssccssssssssss" />
    <path
       style="fill:#008000;stroke:none;stroke-width:0.2604197px;stroke-linecap:butt;stroke-linejoin:miter;stroke-opacity:1"
       d="m 77.574651,82.723414 c -2.458701,5.230088 4.144533,12.118738 -2.456847,18.125616 -4.214496,3.83494 -2.232393,-10.104149 -4.346726,-8.055837 -3.995908,5.942539 0.170527,11.754897 -6.425596,10.802147 -7.668609,1.37425 2.802781,-13.890589 7.311248,-23.610609 1.221171,-2.632781 5.46268,-9.102405 4.610738,-13.940621 -0.348594,-1.979683 -1.158319,-9.184233 -2.674126,-14.141167 -1.334436,-4.363821 -5.915525,-0.03534 -6.485448,-4.545526 -0.254696,-2.015587 4.109876,-0.596563 4.132874,-4.591366 0.02132,-3.703789 -3.507524,-23.042479 5.356854,-16.503514 4.13617,3.051118 7.413154,6.824855 9.755157,11.047513 0.42589,0.767883 2.607351,-1.629739 4.658962,1.569769 2.023654,3.155909 -2.831809,2.253015 -2.550679,3.006625 4.795589,12.855302 -3.476874,25.075586 -10.886411,40.83697 z"
       id="path833-9"
       inkscape:connector-curvature="0"
       sodipodi:nodetypes="ssccssssssssss" />
    <path
       style="fill:#008000;stroke:none;stroke-width:0.13394292px;stroke-linecap:butt;stroke-linejoin:miter;stroke-opacity:1"
       d="m 64.729334,62.330003 c -1.984334,-1.362341 -4.513258,6.486198 -5.297374,8.024436 -0.984119,1.930594 -3.962438,2.020283 -3.369847,3.663521 0.693385,1.922831 2.288815,-0.122032 2.102773,1.404679 0,0 -0.08833,1.404082 -0.160201,2.103645 -0.647846,6.305503 -3.309383,11.484487 -2.441752,18.858672 0.393318,3.342898 -3.70882,4.158624 -4.302477,7.040474 -0.62774,3.0473 4.263461,-1.87841 4.628494,-0.31139 0.113087,0.48548 -0.914154,6.00133 1.765938,2.63851 2.076029,-2.60487 -0.596495,-6.539822 0.595511,-12.202764 0.30208,-1.435116 1.704848,-6.674587 3.361492,-9.023157 1.960052,-2.778701 4.536999,-6.45654 5.077884,-9.92451 0.06889,-0.441691 0.451027,0.652277 1.77701,-0.765386 1.049294,-1.121799 -1.535699,-1.53785 -1.522537,-2.025755 0.07237,-2.683023 -0.347103,-5.402095 -1.29443,-8.004122 -0.285505,-0.784196 -0.595803,-1.253881 -0.920511,-1.476809 z"
       id="path833-2"
       inkscape:connector-curvature="0"
       sodipodi:nodetypes="csccasscssscccscc" />
    <path
       style="fill:#008000;stroke:none;stroke-width:0.10946082px;stroke-linecap:butt;stroke-linejoin:miter;stroke-opacity:1"
       d="m 46.514732,70.063831 c 1.459478,1.459477 -2.714847,5.746429 -1.255368,7.205907 1.691463,1.691463 1.90994,-2.376618 3.268267,-2.905659 1.240933,-0.483319 4.759262,3.174025 3.994683,-0.06422 -0.745049,-3.155534 -3.794949,-3.023834 -5.052001,-7.285291 -0.348742,-1.182245 -0.767243,-2.007409 -0.414786,-4.073544 0.144217,-0.845413 0.27718,-3.99275 1.106313,-6.038913 0.441498,-1.089542 1.405315,-0.376726 2.664775,-1.342448 1.076347,-0.825334 -1.681976,-0.853423 -1.691491,-2.559384 -0.0088,-1.581684 1.451099,-9.840172 -2.216185,-7.04774 -1.711176,1.302964 -3.066898,2.914519 -4.035808,4.717783 -0.176195,0.327921 -3.36406,-0.262843 -2.996539,0.937632 0.46445,1.517082 1.721822,2.411752 1.723412,2.753946 0.02054,4.420713 0.415855,8.861807 2.098394,11.425654 z"
       id="path833-3"
       inkscape:connector-curvature="0"
       sodipodi:nodetypes="csasssssssssssc" />
    <path
       style="fill:#008000;stroke:none;stroke-width:0.14319469px;stroke-linecap:butt;stroke-linejoin:miter;stroke-opacity:1"
       d="m 59.898929,45.401239 c -1.419481,2.297233 2.382344,7.975837 0.962863,10.273072 -1.645108,2.662382 -2.418554,-5.303338 -3.269303,-3.926518 -0.263568,0.426552 0.846059,8.560455 -2.018206,6.705531 -2.179566,-1.41151 1.882304,-10.859833 2.232976,-16.713781 0.09728,-1.624046 0.386297,-2.807318 -0.658419,-5.372252 -0.427473,-1.04951 -1.508793,-5.07143 -3.149666,-7.475165 -0.873733,-1.279942 -0.821127,1.485211 -2.691888,0.597256 -1.598751,-0.758764 0.813487,-3.150567 0.330402,-5.353762 -0.447901,-2.042693 -4.688259,-12.280385 0.753248,-9.720447 2.539036,1.194485 4.718762,2.888006 6.465653,4.938715 0.317669,0.372917 2.744283,-1.335851 2.628571,0.317045 -0.146228,2.088823 -1.200216,1.573917 -0.959944,1.955988 4.098636,6.51749 4.46012,15.54254 -0.626309,23.774226 z"
       id="path833-7"
       inkscape:connector-curvature="0"
       sodipodi:nodetypes="ssccssssssssss" />
  </g>
</svg>
