<?xml version="1.0" encoding="UTF-8" standalone="no"?>
<!-- Created with Inkscape (http://www.inkscape.org/) -->

<svg
   xmlns:dc="http://purl.org/dc/elements/1.1/"
   xmlns:cc="http://creativecommons.org/ns#"
   xmlns:rdf="http://www.w3.org/1999/02/22-rdf-syntax-ns#"
   xmlns:svg="http://www.w3.org/2000/svg"
   xmlns="http://www.w3.org/2000/svg"
   xmlns:sodipodi="http://sodipodi.sourceforge.net/DTD/sodipodi-0.dtd"
   xmlns:inkscape="http://www.inkscape.org/namespaces/inkscape"
   width="105.03123mm"
   height="110.91075mm"
   viewBox="0 0 105.03123 110.91075"
   version="1.1"
   id="svg8"
   inkscape:version="0.92.2 (5c3e80d, 2017-08-06)"
   sodipodi:docname="NightOwl.svg">
  <defs
     id="defs2" />
  <sodipodi:namedview
     id="base"
     pagecolor="#ffffff"
     bordercolor="#666666"
     borderopacity="1.0"
     inkscape:pageopacity="0.0"
     inkscape:pageshadow="2"
     inkscape:zoom="1.4"
     inkscape:cx="155.95705"
     inkscape:cy="212.92754"
     inkscape:document-units="mm"
     inkscape:current-layer="layer1"
     showgrid="false"
     inkscape:window-width="1680"
     inkscape:window-height="997"
     inkscape:window-x="-8"
     inkscape:window-y="-8"
     inkscape:window-maximized="1" />
  <metadata
     id="metadata5">
    <rdf:RDF>
      <cc:Work
         rdf:about="">
        <dc:format>image/svg+xml</dc:format>
        <dc:type
           rdf:resource="http://purl.org/dc/dcmitype/StillImage" />
        <dc:title />
      </cc:Work>
    </rdf:RDF>
  </metadata>
  <g
     inkscape:label="Layer 1"
     inkscape:groupmode="layer"
     id="layer1"
     transform="translate(-3.2632255,-3.3278717)">
    <path
       style="fill:#008000;fill-opacity:1;stroke:none;stroke-width:0.63086694;stroke-opacity:1"
       d="M 246.22852 28.232422 C 243.09628 28.530025 240.41325 55.086413 233.57812 59.900391 C 222.73143 67.53973 209.96397 62.580455 198.16992 61.480469 C 187.83851 60.516893 177.07559 64.345068 167.32812 54.326172 C 162.07628 48.928062 159.89214 28.596138 157.29102 28.84375 C 150.15001 41.646775 138.82635 68.398697 137.70703 102.5957 C 136.51344 139.0617 145.77344 183.47074 145.77344 211.03125 C 145.77344 271.90469 145.99186 243.05122 141.9082 228.08398 C 122.24576 156.01815 90.589948 131.64748 68.333984 103.2207 C -1.2394233 45.156547 71.843531 122.45157 75.580078 141.5918 C 77.937014 153.66526 39.312752 120.62845 34.607422 121.94336 C 9.2655415 129.02511 86.023674 174.40009 79.6875 176.88086 C 70.623161 180.42977 26.573936 147.43489 20.248047 150.19727 C -4.1326101 160.84364 75.90751 200.12757 74.501953 203.27344 C 70.947228 211.2293 17.40643 186.66012 12.417969 189.35938 C -11.479268 202.2902 74.728182 218.82114 72.144531 225.79688 C 68.307339 236.15731 28.416276 233.95737 22.207031 239.04492 C -10.90492 266.1753 69.027872 245.42498 68.193359 252.09375 C 66.5414 265.29449 32.121904 269.67487 25.1875 277.18164 C 3.0065929 301.19339 74.111054 270.5443 74.439453 277.46875 C 74.604656 280.95207 51.00081 294.17098 40.074219 309.25781 C 23.819872 331.70089 76.082604 300.62103 78.738281 305.05078 C 83.095328 312.31858 54.455012 324.34114 56.878906 332.98828 C 59.528227 342.43963 93.411692 316.24374 95.070312 322.57812 C 97.714958 332.67823 72.053316 341.77924 73.363281 348.01758 C 76.816647 364.46346 116.44327 332.54621 107.93164 344.19922 C 83.103401 378.19085 105.33852 381.10893 108.90625 373.07422 C 116.44199 356.10327 128.69651 377.49274 132.56641 379.28711 C 136.57401 381.14535 150.1594 368.72953 152.10742 373.63672 C 159.02522 391.06306 194.39331 389.17796 202.66211 389.17773 C 204.06555 389.17766 205.25289 388.91369 206.22656 388.40625 C 219.8793 387.84537 238.4876 385.0897 243.30664 372.98047 C 245.25466 368.08553 258.84201 380.46887 262.84961 378.61523 C 266.7195 376.82536 278.97401 355.49123 286.50977 372.41992 C 290.07749 380.43467 312.30871 377.52235 287.48047 343.61523 C 278.96884 331.9912 318.59545 363.83074 322.04883 347.42578 C 323.3588 341.20295 297.70106 332.12183 300.3457 322.04688 C 302.00433 315.72823 335.88583 341.85949 338.53516 332.43164 C 340.95906 323.806 312.31873 311.81611 316.67578 304.56641 C 319.33145 300.14766 371.59613 331.14703 355.3418 308.75977 C 344.41522 293.71046 320.80941 280.52543 320.97461 277.05078 C 321.30301 270.14354 392.40751 300.71763 370.22656 276.76562 C 363.29217 269.27754 328.87459 264.90618 327.22266 251.73828 C 326.38816 245.08608 406.31703 265.78556 373.20508 238.72266 C 366.99584 233.64776 327.10868 235.84251 323.27148 225.50781 C 320.68784 218.54943 406.89337 202.06079 382.99609 189.16211 C 378.00768 186.46956 324.46684 210.97514 320.91211 203.03906 C 319.50655 199.90102 399.54864 160.71754 375.16797 150.09766 C 368.84206 147.34215 324.79285 180.25296 315.72852 176.71289 C 309.39235 174.23829 386.14851 128.97625 360.80664 121.91211 C 356.10132 120.60048 317.47704 153.55516 319.83398 141.51172 C 323.57053 122.41909 396.65351 45.316578 327.08008 103.23633 C 306.30873 125.25487 303.36366 112.7572 264.00195 223.11328 C 260.58598 232.69045 261.55862 233.04774 251.32422 243.03516 C 251.32422 243.03516 248.67541 246.03012 249.86719 223.25781 C 251.05898 200.4855 263.61347 146.5674 263.96484 107.21484 C 264.2468 75.637644 252.61752 42.062785 247.61328 29.851562 C 247.13414 28.682378 246.67598 28.189907 246.22852 28.232422 z M 157.29102 28.84375 C 157.57289 28.338348 157.02195 28.869073 157.29102 28.84375 z M 176.57227 105.61914 A 11.42857 11.071428 0 0 1 188 116.68945 A 11.42857 11.071428 0 0 1 176.57227 127.76172 A 11.42857 11.071428 0 0 1 165.14258 116.68945 A 11.42857 11.071428 0 0 1 176.57227 105.61914 z M 226.28516 105.97656 A 11.428571 11.071428 0 0 1 237.71484 117.04688 A 11.428571 11.071428 0 0 1 226.28516 128.11914 A 11.428571 11.071428 0 0 1 214.85742 117.04688 A 11.428571 11.071428 0 0 1 226.28516 105.97656 z M 202.42773 145.50391 L 211.22852 146.18945 L 207.25195 157.24805 L 202.42773 167.61914 L 197.60547 157.24805 L 193.62891 146.18945 L 202.42773 145.50391 z "
       transform="matrix(0.26458333,0,0,0.26458333,3.2632255,3.3278717)"
       id="path816" />
  </g>
</svg>
