<?xml version="1.0" encoding="UTF-8" standalone="no"?>
<!-- Created with Inkscape (http://www.inkscape.org/) -->

<svg
   xmlns:dc="http://purl.org/dc/elements/1.1/"
   xmlns:cc="http://creativecommons.org/ns#"
   xmlns:rdf="http://www.w3.org/1999/02/22-rdf-syntax-ns#"
   xmlns:svg="http://www.w3.org/2000/svg"
   xmlns="http://www.w3.org/2000/svg"
   xmlns:sodipodi="http://sodipodi.sourceforge.net/DTD/sodipodi-0.dtd"
   xmlns:inkscape="http://www.inkscape.org/namespaces/inkscape"
   width="105.03123mm"
   height="110.91075mm"
   viewBox="0 0 105.03123 110.91075"
   version="1.1"
   id="svg8"
   inkscape:version="0.92.2 (5c3e80d, 2017-08-06)"
   sodipodi:docname="drawing1.svg">
  <defs
     id="defs2" />
  <sodipodi:namedview
     id="base"
     pagecolor="#ffffff"
     bordercolor="#666666"
     borderopacity="1.0"
     inkscape:pageopacity="0.0"
     inkscape:pageshadow="2"
     inkscape:zoom="0.7"
     inkscape:cx="388.09991"
     inkscape:cy="41.498967"
     inkscape:document-units="mm"
     inkscape:current-layer="layer1"
     showgrid="false"
     inkscape:window-width="1680"
     inkscape:window-height="997"
     inkscape:window-x="-8"
     inkscape:window-y="-8"
     inkscape:window-maximized="1" />
  <metadata
     id="metadata5">
    <rdf:RDF>
      <cc:Work
         rdf:about="">
        <dc:format>image/svg+xml</dc:format>
        <dc:type
           rdf:resource="http://purl.org/dc/dcmitype/StillImage" />
        <dc:title></dc:title>
      </cc:Work>
    </rdf:RDF>
  </metadata>
  <g
     inkscape:label="Layer 1"
     inkscape:groupmode="layer"
     id="layer1"
     transform="translate(-3.2632255,-3.3278717)">
    <path
       style="fill:#008000;stroke-width:0.26458332"
       d="m 61.888875,3.3306195 c -0.386712,-0.00421 -0.773737,-0.00363 -1.160137,0.00207 -1.953548,0.193384 -4.514958,1.6535588 -4.015258,3.9470449 2.66914,2.226937 6.317683,3.6119936 7.667233,7.0920746 1.627119,3.127115 0.93454,6.76961 1.772502,10.063985 1.227288,3.590951 3.471227,6.850636 3.815786,10.717175 0.965002,5.472742 0.880748,11.64481 -2.328023,16.388665 -2.70129,2.265698 -6.721563,0.125703 -8.171593,-2.607593 -1.554329,-2.706693 -5.610183,-1.580163 -7.107576,0.619082 -1.931921,2.251652 -0.657114,5.288455 0.772562,7.417118 1.571641,2.48634 4.106339,5.1099 3.49281,8.281667 -1.622058,3.672186 -7.31374,3.612578 -9.520349,0.539501 -4.036875,-3.912719 -8.86043,-7.99212 -14.793928,-8.028966 -3.348003,1.094539 -2.749193,6.337633 0.214974,7.562329 2.494825,1.284279 5.212363,2.601259 6.493661,5.264792 2.427951,3.875289 2.714741,9.879185 -1.148252,12.938228 -4.150268,2.773288 -9.906212,0.701159 -12.715502,-3.04891 C 14.70927,69.737847 10.810796,53.91121 12.600927,39.28398 13.117259,33.352278 14.018297,27.332227 12.949743,21.407034 10.965546,19.601986 7.8655206,22.338555 8.5649995,24.633194 6.8100606,38.500538 1.8872761,52.194794 3.6314491,66.329357 6.638989,92.310403 30.722213,113.61917 56.739835,114.22411 c 20.007759,0.51045 39.302774,-12.4932 47.049325,-30.825511 3.17568,-7.356002 4.19249,-15.44406 4.49016,-23.388751 C 108.59137,44.744771 104.08756,29.00074 94.063655,17.277055 85.94958,8.3421421 73.876924,3.4611413 61.888875,3.3306195 Z M 87.690401,26.747278 a 5.2916663,5.2916663 0 0 1 5.291667,5.291667 5.2916663,5.2916663 0 0 1 -5.291667,5.291666 5.2916663,5.2916663 0 0 1 -5.291666,-5.291666 5.2916663,5.2916663 0 0 1 5.291666,-5.291667 z"
       id="path3715"
       inkscape:connector-curvature="0" />
  </g>
</svg>
