<?xml version="1.0" encoding="UTF-8" standalone="no"?>
<!-- Created with Inkscape (http://www.inkscape.org/) -->

<svg
   xmlns:dc="http://purl.org/dc/elements/1.1/"
   xmlns:cc="http://creativecommons.org/ns#"
   xmlns:rdf="http://www.w3.org/1999/02/22-rdf-syntax-ns#"
   xmlns:svg="http://www.w3.org/2000/svg"
   xmlns="http://www.w3.org/2000/svg"
   xmlns:sodipodi="http://sodipodi.sourceforge.net/DTD/sodipodi-0.dtd"
   xmlns:inkscape="http://www.inkscape.org/namespaces/inkscape"
   width="105.03123mm"
   height="110.91075mm"
   viewBox="0 0 105.03123 110.91075"
   version="1.1"
   id="svg8"
   inkscape:version="0.92.2 (5c3e80d, 2017-08-06)"
   sodipodi:docname="TooManyBugs.svg">
  <defs
     id="defs2" />
  <sodipodi:namedview
     id="base"
     pagecolor="#ffffff"
     bordercolor="#666666"
     borderopacity="1.0"
     inkscape:pageopacity="0.0"
     inkscape:pageshadow="2"
     inkscape:zoom="1.4"
     inkscape:cx="160.07674"
     inkscape:cy="217.03683"
     inkscape:document-units="mm"
     inkscape:current-layer="layer1"
     showgrid="false"
     inkscape:window-width="1680"
     inkscape:window-height="997"
     inkscape:window-x="-8"
     inkscape:window-y="-8"
     inkscape:window-maximized="1" />
  <metadata
     id="metadata5">
    <rdf:RDF>
      <cc:Work
         rdf:about="">
        <dc:format>image/svg+xml</dc:format>
        <dc:type
           rdf:resource="http://purl.org/dc/dcmitype/StillImage" />
        <dc:title />
      </cc:Work>
    </rdf:RDF>
  </metadata>
  <g
     inkscape:label="Layer 1"
     inkscape:groupmode="layer"
     id="layer1"
     transform="translate(-3.2632255,-3.3278717)">
    <path
       style="fill:#008000;fill-opacity:1;stroke:none;stroke-width:0.22851619;stroke-opacity:1"
       d="m 21.951814,5.6900025 c -0.314387,-0.00855 -0.629655,0.00925 -0.944619,0.054546 C 17.690292,6.2342581 15.145389,9.670514 14.646837,14.33282 12.442711,14.51114 10.620219,13.967 8.9142415,13.086603 7.6830885,12.451245 7.7882426,9.0905792 6.5956819,10.011411 c -1.8674591,1.441951 -1.3541158,3.184049 1.070063,4.511765 1.8505045,1.013517 4.7943801,1.632929 6.8934971,1.737136 0.0081,0.650952 0.0556,1.3048 0.142206,1.954763 0.0054,0.03475 0.01115,0.06939 0.01676,0.104085 -5.6014781,0.823347 -9.3890796,0.197807 -8.6908131,0.509841 -1.9245088,1.834525 4.9559011,2.305307 9.0022621,1.066438 0.252114,1.018151 0.599485,1.995057 1.032213,2.902647 -0.848439,0.293331 -1.636871,0.623827 -2.287739,1.167737 -1.43762,1.201373 -3.034342,3.159067 -3.482706,4.71381 -0.173988,0.603314 -0.6263008,1.085837 0.07083,1.515608 1.737465,1.071123 3.087458,-3.769219 3.434042,-4.152203 0.352017,-0.388992 1.838076,-1.046425 3.105291,-1.72656 1.179026,1.821576 2.695357,3.127536 4.338107,3.736984 -0.386801,0.569124 -0.54936,1.202184 -0.46555,1.813944 0.04846,0.342397 0.173222,0.670784 0.368763,0.971261 -1.88942,2.535531 -2.559218,8.095928 -1.063033,6.442595 1.013718,-1.120188 0.382973,-3.266792 1.486949,-4.486718 0.28993,-0.320383 0.564659,-0.615624 0.803493,-0.893337 0.791405,0.397765 1.771262,0.539567 2.748423,0.398523 0.869695,-0.127177 1.684438,-0.471363 2.316397,-0.978494 0.296633,0.192288 0.627764,0.390467 0.980306,0.607802 1.38951,0.856614 1.362211,3.099572 2.638119,3.886151 1.846598,1.138395 -0.177362,-3.794263 -2.612706,-5.774124 0.187825,-0.431479 0.2544,-0.882132 0.195737,-1.319689 -0.105489,-0.758681 -0.582241,-1.433944 -1.335011,-1.890755 1.198934,-1.082147 2.12942,-2.647587 2.687865,-4.52067 1.505677,0.370049 2.751198,0.522718 4.070995,0.913374 0.805333,0.238374 1.802727,0.454808 2.775458,0.948996 1.392681,0.707542 2.234172,1.901154 2.900904,1.164397 0.553878,-0.612051 -0.803464,-2.021999 -1.383674,-2.364974 -1.854644,-1.09633 -3.144556,-1.321017 -4.831233,-1.750494 -1.021366,-0.260071 -2.029511,-0.461872 -3.166391,-0.491474 0.167979,-0.982932 0.237714,-2.006591 0.207632,-3.042908 3.158667,-0.01123 11.57052,0.533865 9.37373,-1.969236 -0.485206,-0.55286 -3.537339,-0.455368 -9.485658,0.44472 -0.0075,-0.07949 -0.01519,-0.159354 -0.02379,-0.238779 -0.08057,-0.569815 -0.19127,-1.133961 -0.330374,-1.688156 2.018709,-0.595749 5.086793,-2.17329 6.746965,-3.831046 C 38.814992,8.4362516 38.838714,6.6158266 36.655849,5.7640295 35.261873,5.2200728 36.269606,8.4186665 35.258119,9.3807882 33.731076,10.833297 31.963048,11.942123 29.490918,12.324622 27.936145,8.3194876 24.990887,5.772714 21.951814,5.6900025 Z m 61.312601,0.477559 c -0.113431,-0.00199 -0.226624,0.0014 -0.340107,0.010016 -3.585463,0.2948307 -6.38588,5.8698515 -6.998936,13.9338145 -2.380215,-0.06123 -4.337725,-1.320826 -6.16354,-3.148104 -1.317636,-1.318693 -1.149338,-7.1744693 -2.450491,-5.766889 -2.037509,2.204165 -1.511812,5.335625 1.081418,8.066186 1.979549,2.084382 5.14424,3.664502 7.406628,4.201739 -0.0017,1.139031 0.0393,2.290286 0.122201,3.440876 0.0053,0.06162 0.01046,0.123194 0.01622,0.184789 -6.054965,0.491274 -10.129935,-1.242888 -9.381838,-0.579416 -2.105383,2.880617 5.30785,4.86751 9.692207,3.386884 0.255476,1.822072 0.614749,3.588182 1.066817,5.247587 -0.919852,0.369116 -1.775917,0.813723 -2.48672,1.654199 -1.570001,1.856429 -3.323826,5.007368 -3.832545,7.64874 -0.197405,1.024977 -0.693065,1.792038 0.05191,2.661084 1.856696,2.165936 3.390896,-6.065656 3.770903,-6.676366 0.385969,-0.620288 1.99948,-1.517592 3.377268,-2.49188 1.242249,3.383027 2.856739,5.922201 4.618736,7.265244 -0.426394,0.929218 -0.611487,2.007422 -0.530976,3.090777 0.04673,0.606606 0.175695,1.202284 0.381739,1.760511 -2.078861,4.111696 -2.89113,13.716557 -1.250658,11.08015 1.111478,-1.786256 0.465761,-5.644994 1.676195,-7.590297 0.317891,-0.510883 0.61927,-0.980485 0.881358,-1.42544 0.84717,0.829058 1.901449,1.243355 2.957677,1.162173 0.940089,-0.07525 1.824483,-0.539173 2.514295,-1.318577 0.316838,0.38625 0.670622,0.788928 1.047352,1.228408 1.484864,1.732169 1.41902,5.646859 2.78249,7.237412 1.97332,2.301978 -0.129897,-6.661371 -2.724632,-10.533572 0.209555,-0.72232 0.288711,-1.497937 0.232504,-2.27258 -0.101533,-1.34379 -0.605083,-2.60533 -1.409626,-3.531042 1.310632,-1.688441 2.339687,-4.265912 2.972273,-7.445025 1.618023,0.90146 2.959299,1.378243 4.3765,2.284267 0.864766,0.552853 1.937034,1.09961 2.978224,2.127867 1.490689,1.472177 2.378579,3.700668 3.109619,2.525831 0.60728,-0.975975 -0.8337,-3.669469 -1.45397,-4.36705 -1.982673,-2.229814 -3.370409,-2.840745 -5.182692,-3.876687 -1.097428,-0.627315 -2.181804,-1.15021 -3.407549,-1.394273 0.197062,-1.689455 0.289301,-3.466948 0.273598,-5.283205 3.407071,0.514727 12.471063,2.890621 10.142083,-1.855691 -0.5144,-1.048319 -3.808027,-1.394989 -10.238327,-0.828215 -0.0068,-0.140218 -0.01411,-0.280525 -0.02217,-0.420786 -0.07763,-1.009497 -0.18768,-2.014629 -0.328751,-3.006729 2.186974,-0.699672 5.521624,-2.937315 7.339043,-5.553712 2.157655,-3.106232 2.212495,-6.283909 -0.128151,-8.1418811 -1.494733,-1.1865017 -0.45937,4.5743241 -1.565893,6.0847031 -1.670503,2.280211 -3.595315,3.919187 -6.267895,4.169458 C 90.244768,11.349177 86.780735,6.2290624 83.264415,6.1675615 Z M 49.847523,6.2922389 c -0.02779,4.078e-4 -0.05941,0.00606 -0.0957,0.018367 -0.909191,0.3083687 -0.998537,1.1291832 -0.326046,2.0833376 0.513344,0.7283569 1.487606,1.4664924 2.23583,1.8501245 -0.100359,0.276871 -0.186863,0.561324 -0.258458,0.850478 -0.0036,0.0156 -0.0068,0.03173 -0.01027,0.04731 -2.171418,-0.557458 -3.452376,-1.4350365 -3.247498,-1.1900033 -0.992274,0.4653283 1.439907,1.7774313 3.110698,1.9074543 -0.06971,0.471789 -0.09851,0.941187 -0.08489,1.395385 -0.355658,-0.01305 -0.695255,-3.02e-4 -1.018697,0.124677 -0.714412,0.27605 -1.606765,0.846476 -2.016844,1.432121 -0.159133,0.227258 -0.400451,0.358194 -0.214662,0.652886 0.463023,0.734461 1.722735,-1.096174 1.909784,-1.202245 0.189978,-0.107735 0.836233,-0.145806 1.405842,-0.228762 0.140475,0.961825 0.485558,1.760013 0.987336,2.283712 -0.231236,0.178366 -0.390892,0.419874 -0.457439,0.692405 -0.0367,0.15278 -0.04357,0.312051 -0.02001,0.47088 -1.090736,0.767762 -2.217099,3.013794 -1.409629,2.555888 0.547092,-0.310246 0.658103,-1.321341 1.253905,-1.659212 0.156469,-0.08873 0.303107,-0.169308 0.434189,-0.248242 0.225207,0.296388 0.559743,0.515028 0.93813,0.613368 0.337034,0.08682 0.688514,0.07295 0.999231,-0.03952 0.07755,0.129376 0.166671,0.266751 0.26062,0.415776 0.370294,0.587375 0.0044,1.532299 0.344432,2.071649 0.492107,0.78059 0.537383,-1.634993 -0.03569,-2.867024 0.136899,-0.152277 0.233102,-0.331821 0.281167,-0.52654 0.08197,-0.338232 0.01521,-0.701763 -0.186544,-1.016899 0.608531,-0.264185 1.196045,-0.775715 1.696745,-1.478318 0.489832,0.400184 0.919415,0.665886 1.338253,1.044729 0.255576,0.231168 0.584842,0.483942 0.86081,0.850478 0.395104,0.524782 0.511794,1.166405 0.871624,0.962354 0.298918,-0.169512 0.02827,-0.986031 -0.128691,-1.225066 -0.501715,-0.764083 -0.93574,-1.067672 -1.482081,-1.52229 -0.330839,-0.275295 -0.666513,-0.523822 -1.076012,-0.720234 0.217184,-0.388936 0.405055,-0.810999 0.558553,-1.254568 1.152564,0.506135 4.130766,2.097337 3.727646,0.682387 -0.08904,-0.312521 -1.216541,-0.764781 -3.526502,-1.345848 0.0099,-0.03486 0.01968,-0.06965 0.0292,-0.104642 0.06107,-0.254255 0.110884,-0.511552 0.148153,-0.76866 0.830008,0.07431 2.197902,-0.09718 3.065819,-0.530435 1.030392,-0.514374 1.327866,-1.281191 0.66777,-1.9948442 C 60.956059,8.9189174 60.81575,10.43618 60.294557,10.679872 59.507722,11.047775 58.68755,11.231164 57.72619,10.993236 57.802492,8.8448752 56.980271,7.1743553 55.67961,6.8354763 54.393456,6.5063359 52.921062,7.5495212 51.999545,9.4425702 51.16823,9.1615585 50.589961,8.6362579 50.108146,7.9876293 49.782163,7.5487919 50.264391,6.2861219 49.847523,6.2922389 Z m 0.169786,19.6199981 v 5.56e-4 c -1.459066,0.0029 -2.759942,1.324076 -3.251283,3.302838 -0.960847,-0.06158 -1.714735,-0.410495 -2.398044,-0.897232 -0.493126,-0.351262 -0.248267,-1.793726 -0.817013,-1.471639 -0.89061,0.504363 -0.77232,1.287942 0.194116,2.01265 0.737729,0.553207 1.970178,1.004862 2.869002,1.181653 -0.03512,0.281153 -0.05342,0.56593 -0.05461,0.851592 3.01e-4,0.01532 7.2e-4,0.03089 0.0011,0.0462 -2.4638,0.0032 -4.05994,-0.504557 -3.777392,-0.326164 -0.938481,0.670029 1.999975,1.30518 3.817944,1.025248 0.04833,0.454797 0.140298,0.897873 0.273058,1.316351 -0.383181,0.07317 -0.742606,0.165948 -1.055463,0.359558 -0.691031,0.427645 -1.49562,1.171255 -1.781095,1.813392 -0.110781,0.249177 -0.334561,0.428812 -0.05948,0.657895 0.685583,0.570942 1.554898,-1.430707 1.727025,-1.574054 0.174828,-0.145594 0.854329,-0.335735 1.440989,-0.549359 0.400329,0.859408 0.976508,1.517572 1.648622,1.883519 -0.200501,0.221072 -0.30807,0.483503 -0.308204,0.752519 5.93e-4,0.150661 0.03516,0.300106 0.101655,0.441936 -0.964912,0.974463 -1.583337,3.329999 -0.840263,2.711177 0.503458,-0.419272 0.358486,-1.384615 0.906768,-1.841219 0.143992,-0.119913 0.280151,-0.229786 0.399584,-0.334511 0.317622,0.221202 0.731793,0.343955 1.161443,0.344531 0.382497,-2e-4 0.754022,-0.09769 1.056545,-0.276627 0.116488,0.101528 0.247498,0.20809 0.386606,0.323938 0.548282,0.456602 0.403313,1.421947 0.906768,1.841217 0.728646,0.606805 0.14856,-1.647278 -0.784027,-2.653848 0.106559,-0.174226 0.162105,-0.364264 0.162753,-0.556594 -5.01e-4,-0.333723 -0.165922,-0.654669 -0.463385,-0.898904 0.581054,-0.391232 1.075123,-1.007521 1.426928,-1.77999 0.627214,0.254122 1.15468,0.397656 1.70053,0.648988 0.333076,0.153363 0.750272,0.309702 1.140355,0.583869 0.558487,0.392534 0.85086,0.959815 1.18199,0.684057 0.275079,-0.229082 -0.226544,-0.922194 -0.45636,-1.106511 C 55.739866,33.840098 55.197202,33.662295 54.49548,33.37118 54.07055,33.194893 53.647781,33.044591 53.159389,32.96041 53.29008,32.547187 53.380732,32.11 53.4292,31.661318 c 1.362476,0.193577 4.95677,0.957241 4.158054,-0.259931 -0.176416,-0.268839 -1.497992,-0.418482 -4.115877,-0.404087 0.0014,-0.03474 0.0028,-0.06986 0.0038,-0.104642 -9.55e-4,-0.25073 -0.01506,-0.50095 -0.04217,-0.748621 0.905652,-0.130035 2.322075,-0.617426 3.13611,-1.227851 0.966434,-0.724707 1.084183,-1.50773 0.193574,-2.012093 -0.568744,-0.322087 -0.323884,1.119819 -0.81701,1.471083 -0.74447,0.530299 -1.572333,0.897635 -2.66083,0.90725 -0.477656,-2.013154 -1.790418,-3.367428 -3.267502,-3.370186 z m 16.0796,11.642869 c -0.321416,0.01197 0.03585,0.855534 -0.220611,1.167734 -0.41297,0.502749 -0.912218,0.909884 -1.652947,1.122656 -0.685748,-1.282652 -1.823157,-1.957201 -2.83115,-1.679249 -0.994717,0.278291 -1.645638,1.425919 -1.626995,2.868692 -0.666389,0.140032 -1.242591,0.04502 -1.795692,-0.157515 -0.399158,-0.14617 -0.49045,-1.176807 -0.820798,-0.849365 -0.517297,0.512747 -0.296717,1.025165 0.492046,1.336385 0.602104,0.237574 1.523556,0.311852 2.168243,0.262159 0.02632,0.198425 0.06491,0.396586 0.11517,0.591661 0.003,0.01041 0.0062,0.0208 0.0092,0.03117 -1.679982,0.468851 -2.859491,0.424995 -2.634875,0.493144 -0.520331,0.634815 1.597387,0.511423 2.787354,-0.02392 0.114287,0.301052 0.256385,0.585739 0.421752,0.846025 -0.248282,0.122497 -0.477097,0.253946 -0.65588,0.445278 -0.39488,0.422602 -0.810635,1.081974 -0.890545,1.574049 -0.03101,0.190952 -0.151265,0.356164 0.07732,0.460306 0.569706,0.259548 0.804176,-1.270567 0.895955,-1.400952 0.09322,-0.132429 0.52318,-0.391022 0.885141,-0.647876 0.426713,0.510348 0.937665,0.850096 1.461535,0.972373 -0.09724,0.188774 -0.123702,0.38866 -0.0757,0.57218 0.02734,0.10264 0.07744,0.198047 0.148152,0.282192 -0.483927,0.847474 -0.484882,2.571065 -0.08867,2.0082 0.26844,-0.381363 -0.0026,-1.012353 0.289821,-1.42767 0.07677,-0.109066 0.149758,-0.20984 0.212497,-0.303899 0.256195,0.09071 0.560618,0.09603 0.85378,0.01503 0.260858,-0.0726 0.496665,-0.209137 0.671021,-0.388504 0.0976,0.04719 0.206123,0.09427 0.321721,0.146941 0.455612,0.207571 0.529498,0.89365 0.94786,1.084248 0.605489,0.275853 -0.193432,-1.151547 -1.009502,-1.661439 0.04153,-0.139023 0.04529,-0.2789 0.01135,-0.410209 -0.06001,-0.227533 -0.230342,-0.415192 -0.476906,-0.525428 0.326382,-0.376935 0.553487,-0.891453 0.65534,-1.484997 0.473247,0.05451 0.85882,0.05277 1.276071,0.120782 0.254607,0.04151 0.567351,0.06891 0.882438,0.182006 0.451118,0.161936 0.751841,0.4935 0.928397,0.242679 0.146669,-0.208371 -0.31964,-0.585738 -0.509349,-0.667919 -0.606402,-0.262692 -1.008713,-0.281133 -1.539396,-0.346757 -0.321356,-0.03975 -0.636457,-0.06239 -0.98463,-0.02728 0.01525,-0.306611 -9.67e-4,-0.622085 -0.04812,-0.937305 0.963937,-0.126086 3.551932,-0.286237 2.789518,-0.965139 -0.168396,-0.149946 -1.096221,-0.0015 -2.879276,0.50428 -0.0052,-0.02398 -0.01071,-0.04788 -0.01622,-0.0718 -0.04547,-0.170841 -0.09998,-0.338808 -0.162754,-0.502604 0.594487,-0.26027 1.473414,-0.860981 1.919519,-1.431565 0.529628,-0.677407 0.47001,-1.234008 -0.22764,-1.4093 -0.02785,-0.007 -0.0521,-0.01029 -0.07353,-0.0095 z m -40.165478,2.804128 c -0.02143,-8.53e-4 -0.04567,0.002 -0.07353,0.009 -0.69807,0.173511 -0.758873,0.729991 -0.230883,1.408743 0.403042,0.518132 1.161397,1.061847 1.742164,1.354196 -0.07466,0.184931 -0.13851,0.375469 -0.190871,0.569955 -0.0026,0.01041 -0.0052,0.02122 -0.0076,0.03173 -1.679948,-0.468976 -2.676324,-1.120163 -2.515918,-0.944542 -0.760591,0.277285 1.127819,1.272011 2.417509,1.428779 -0.0491,0.319247 -0.06635,0.638928 -0.05137,0.949553 -0.274391,-0.02339 -0.536383,-0.02874 -0.784569,0.04341 -0.548185,0.159376 -1.23057,0.512446 -1.54102,0.895562 -0.120472,0.148668 -0.305675,0.22819 -0.159509,0.43693 0.364296,0.520249 1.318344,-0.678256 1.461536,-0.743058 0.145438,-0.06582 0.642988,-0.06562 1.081418,-0.09907 0.117811,0.662335 0.391924,1.221714 0.784028,1.599655 -0.176556,0.112356 -0.297424,0.27084 -0.346055,0.454182 -0.02679,0.102804 -0.03054,0.211212 -0.01081,0.3206 -0.833535,0.479738 -1.680106,1.966779 -1.061952,1.687041 0.418822,-0.189533 0.494455,-0.875057 0.950565,-1.081465 0.119782,-0.0542 0.232231,-0.103402 0.332537,-0.15195 0.176588,0.211504 0.436659,0.374426 0.729417,0.456963 0.260755,0.07299 0.532014,0.07806 0.770509,0.01392 0.06109,0.09148 0.13101,0.188879 0.204928,0.294438 0.291337,0.416061 0.01852,1.046182 0.286036,1.428225 0.387176,0.552924 0.398363,-1.094251 -0.0557,-1.958658 0.104068,-0.09838 0.176269,-0.217458 0.211417,-0.34843 0.05986,-0.227572 0.0046,-0.477962 -0.154102,-0.701312 0.466655,-0.155585 0.914737,-0.481371 1.293917,-0.940646 0.381673,0.293137 0.715766,0.492426 1.042486,0.768101 0.19936,0.16822 0.45568,0.354135 0.672099,0.615596 0.309857,0.374337 0.406376,0.817061 0.681834,0.692405 0.228838,-0.103548 0.012,-0.672 -0.111385,-0.841573 -0.394424,-0.542046 -0.73241,-0.767234 -1.158197,-1.099832 -0.257838,-0.201404 -0.518765,-0.38469 -0.836478,-0.535446 0.163639,-0.256679 0.304516,-0.537212 0.418508,-0.83378 0.893777,0.39244 3.205712,1.60019 2.880898,0.617822 -0.07174,-0.216976 -0.945178,-0.571838 -2.732203,-1.062543 0.0074,-0.02339 0.0141,-0.0466 0.02109,-0.07013 0.0446,-0.171086 0.08032,-0.344187 0.106521,-0.51819 0.64078,0.08452 1.694104,0.02278 2.359111,-0.237668 0.789517,-0.309207 1.011352,-0.820652 0.495292,-1.334715 -0.32956,-0.328279 -0.422911,0.701989 -0.822421,0.847139 -0.603134,0.219133 -1.234229,0.31065 -1.977912,0.109092 0.03765,-1.463548 -0.612553,-2.637285 -1.618884,-2.92157 -0.995034,-0.277089 -2.120281,0.37487 -2.812225,1.629712 -0.643829,-0.225679 -1.094409,-0.60736 -1.47235,-1.069778 -0.255703,-0.312856 0.103492,-1.155504 -0.217906,-1.168294 z m -9.612181,0.632847 c -0.321596,0.0046 0.01762,0.85588 -0.245483,1.162175 -0.423674,0.493234 -0.931621,0.889489 -1.676737,1.08536 C 13.738995,41.941677 12.616362,41.240844 11.602646,41.4958 10.602199,41.7514 9.9268839,42.884361 9.9145528,44.327204 9.2453199,44.452045 8.670723,44.343576 8.122103,44.128498 7.7261811,43.973286 7.6575267,42.941475 7.3202318,43.261321 c -0.5281797,0.500857 -0.3185025,1.017321 0.4633875,1.346407 0.5968579,0.25121 1.5161597,0.347269 2.1617538,0.312251 0.022046,0.198974 0.056145,0.397719 0.1021939,0.593886 0.0027,0.01041 0.0059,0.02073 0.0086,0.03117 -1.6896375,0.430521 -2.8677067,0.359786 -2.6446073,0.433031 -0.5338301,0.622823 1.5861872,0.547677 2.7873533,0.03952 0.107797,0.303578 0.243088,0.591504 0.402828,0.855487 -0.250851,0.116821 -0.482229,0.243031 -0.665071,0.43025 -0.4038583,0.413518 -0.8336168,1.063317 -0.9240714,1.553457 -0.035105,0.1902 -0.1587012,0.352659 0.067589,0.461974 0.5639949,0.272447 0.8316791,-1.252093 0.9262344,-1.380358 0.09603,-0.130276 0.530732,-0.378725 0.898117,-0.627282 0.415655,0.519932 0.919333,0.871049 1.440448,1.005213 -0.101267,0.186517 -0.132189,0.385389 -0.08814,0.569953 0.02513,0.103245 0.07333,0.199801 0.142207,0.285534 -0.502002,0.836257 -0.539581,2.559686 -0.131392,2.00597 0.27656,-0.375161 0.01892,-1.012423 0.320099,-1.42099 0.0791,-0.107296 0.154245,-0.20628 0.218987,-0.298889 0.254184,0.09651 0.558411,0.108827 0.853239,0.0345 0.262354,-0.06665 0.500969,-0.198119 0.679131,-0.373476 0.09656,0.0494 0.204039,0.09945 0.318477,0.154734 0.451046,0.217885 0.509901,0.905331 0.924072,1.105399 0.599419,0.289558 -0.168352,-1.155932 -0.973277,-1.684259 0.04451,-0.138045 0.05165,-0.277605 0.02055,-0.409654 -0.05512,-0.228843 -0.221414,-0.420744 -0.46555,-0.536557 0.334394,-0.369422 0.572131,-0.877778 0.6867,-1.468859 0.471963,0.06525 0.857679,0.07223 1.273369,0.149725 0.253653,0.04729 0.565528,0.0818 0.878112,0.202046 0.44753,0.172155 0.741092,0.510573 0.92299,0.263826 0.151107,-0.204981 -0.306852,-0.593128 -0.494748,-0.679605 -0.600619,-0.276421 -1.00214,-0.304145 -1.531288,-0.381823 -0.320425,-0.04703 -0.635244,-0.07672 -0.98409,-0.04953 0.02184,-0.30619 0.01226,-0.621645 -0.02811,-0.937865 0.966408,-0.104126 3.557719,-0.205608 2.810064,-0.901684 -0.165136,-0.153742 -1.096615,-0.02651 -2.89009,0.438597 -0.0047,-0.02409 -0.0097,-0.04832 -0.0146,-0.07237 -0.0418,-0.171833 -0.09215,-0.341321 -0.151398,-0.506503 0.599928,-0.246682 1.491012,-0.826739 1.949256,-1.387035 0.544031,-0.665197 0.496897,-1.223189 -0.196818,-1.41431 -0.02769,-0.0077 -0.05209,-0.01145 -0.07353,-0.01114 z m 30.746328,3.790975 c -1.764026,-0.02284 -3.564854,1.769648 -4.586833,4.619744 -1.218414,-0.289028 -2.10381,-0.992799 -2.867378,-1.900775 -0.551048,-0.655259 0.0978,-2.893825 -0.706709,-2.49633 -1.259796,0.622444 -1.290498,1.888178 -0.218985,3.229924 0.817943,1.024224 2.294391,1.986299 3.406463,2.44568 -0.110372,0.438867 -0.199758,0.886957 -0.267649,1.339728 -0.0032,0.02435 -0.0067,0.04909 -0.0097,0.07348 -3.161659,-0.485828 -5.09118,-1.60877 -4.770134,-1.269595 -1.3597,0.875631 2.262959,2.467955 4.660372,2.386126 -0.04365,0.730853 -0.02876,1.451711 0.04433,2.14178 -0.508604,0.03971 -0.991919,0.115398 -1.438284,0.360116 -0.985919,0.540536 -2.19026,1.559924 -2.705709,2.52138 -0.200019,0.373089 -0.528953,0.613299 -0.229258,1.031371 0.746913,1.041961 2.327205,-1.959871 2.581344,-2.152912 0.258122,-0.196066 1.173997,-0.361947 1.97629,-0.583867 0.313929,1.442602 0.900551,2.601441 1.677818,3.315638 -0.308597,0.310643 -0.507772,0.705532 -0.570446,1.132118 -0.03425,0.239042 -0.02478,0.483186 0.02757,0.721347 -1.464341,1.35314 -2.805205,4.964944 -1.708098,4.131608 0.743326,-0.564616 0.782335,-2.124122 1.591846,-2.739005 0.212596,-0.161488 0.412353,-0.309109 0.589911,-0.4514 0.3561,0.414051 0.858543,0.691633 1.409629,0.778121 0.490773,0.07583 0.9902,-0.0047 1.419902,-0.228204 0.125862,0.18422 0.269654,0.379127 0.421211,0.590547 0.597336,0.833292 0.186875,2.335069 0.735364,3.100238 0.793839,1.107406 0.57329,-2.582279 -0.38931,-4.364265 0.177185,-0.255073 0.292424,-0.545606 0.337943,-0.85048 0.07692,-0.529317 -0.06064,-1.071277 -0.385524,-1.517836 0.836368,-0.504697 1.613111,-1.383703 2.243942,-2.538632 0.745632,0.52792 1.389533,0.86138 2.031443,1.368667 0.391683,0.309542 0.890692,0.639683 1.32744,1.152153 0.625316,0.733723 0.868288,1.691598 1.357179,1.320246 0.406136,-0.308494 -0.0762,-1.507604 -0.328212,-1.845671 -0.805582,-1.080636 -1.461052,-1.470784 -2.293685,-2.072205 -0.504212,-0.364198 -1.011322,-0.686504 -1.618341,-0.917269 0.263679,-0.62927 0.481339,-1.304099 0.647768,-2.005973 1.703016,0.578352 6.137118,2.505078 5.395192,0.415777 -0.163865,-0.461465 -1.824505,-0.962474 -5.186477,-1.461065 0.01035,-0.05473 0.01985,-0.109705 0.02866,-0.164751 0.0567,-0.39785 0.0973,-0.797402 0.120036,-1.195567 1.19213,-0.02583 3.12218,-0.516577 4.308368,-1.322472 1.408273,-0.95677 1.741866,-2.175899 0.716443,-3.153114 -0.654845,-0.624051 -0.67589,1.712459 -1.390164,2.17128 -1.078323,0.692682 -2.226187,1.109364 -3.624913,0.907808 -0.14506,-3.287341 -1.514508,-5.6956 -3.408628,-5.994536 h -5.4e-4 c -0.116859,-0.01783 -0.23404,-0.02741 -0.351461,-0.02894 z m 20.476644,6.521631 c -0.07125,-0.0032 -0.141763,0.0013 -0.211416,0.01392 -1.099425,0.206822 -1.737362,2.359643 -1.594552,5.380055 -0.740455,0.0416 -1.399156,-0.37452 -2.040635,-1.00577 -0.462937,-0.455556 -0.652859,-2.64176 -0.998148,-2.082224 -0.540694,0.876188 -0.24837,2.028606 0.668315,2.975562 0.699757,0.722858 1.746384,1.225874 2.46996,1.364771 0.04645,0.424337 0.10631,0.85215 0.179516,1.278501 0.0042,0.0228 0.0087,0.04567 0.01297,0.06846 -1.856926,0.346817 -3.192121,-0.189048 -2.932804,0.03785 -0.533815,1.130004 1.846617,1.669269 3.144763,0.999089 0.154423,0.671804 0.338543,1.319931 0.547197,1.925823 -0.269941,0.162389 -0.516707,0.35174 -0.702381,0.684056 -0.410112,0.734003 -0.82402,1.955065 -0.872705,2.952741 -0.0189,0.387143 -0.14085,0.686066 0.125985,0.989624 0.665034,0.756566 0.801189,-2.350954 0.893793,-2.588725 0.09405,-0.241504 0.557147,-0.619477 0.944078,-1.019684 0.524779,1.226558 1.130184,2.128336 1.731888,2.580934 -0.09383,0.357671 -0.10699,0.764698 -0.03731,1.166069 0.03953,0.224695 0.103952,0.442728 0.19087,0.645094 -0.474775,1.587859 -0.330014,5.187563 0.06975,4.161108 0.270853,-0.695455 -0.08841,-2.115211 0.20655,-2.872589 0.07746,-0.198908 0.151234,-0.382088 0.214122,-0.554927 0.296867,0.285899 0.641058,0.411708 0.965163,0.352882 0.288352,-0.05346 0.543405,-0.249828 0.725093,-0.558823 0.114173,0.135304 0.240311,0.275624 0.37525,0.429136 0.531851,0.605049 0.673077,2.064871 1.161445,2.620455 0.706805,0.804079 -0.31504,-2.477801 -1.27932,-3.849974 0.03516,-0.274736 0.02777,-0.565671 -0.02162,-0.852706 -0.08695,-0.497812 -0.295242,-0.95433 -0.582884,-1.277386 0.336632,-0.664412 0.549358,-1.652331 0.614244,-2.853665 0.538843,0.292007 0.973951,0.433335 1.450721,0.732479 0.290923,0.182536 0.645883,0.357036 1.011127,0.711887 0.522924,0.508043 0.890297,1.314564 1.06844,0.857156 0.147989,-0.379985 -0.409913,-1.344348 -0.631005,-1.58741 -0.70673,-0.776953 -1.161879,-0.967261 -1.766496,-1.304103 -0.366128,-0.203978 -0.723773,-0.369169 -1.113862,-0.426911 -0.0087,-0.634651 -0.05372,-1.299229 -0.133554,-1.975357 1.077528,0.09953 3.985411,0.739275 3.06744,-0.965694 -0.202753,-0.376576 -1.237857,-0.41686 -3.208026,-0.03173 -0.0079,-0.05206 -0.01603,-0.103821 -0.02433,-0.155848 -0.06574,-0.373934 -0.141325,-0.745227 -0.226015,-1.110963 0.649139,-0.319813 1.590596,-1.243782 2.046041,-2.267571 0.540708,-1.215458 0.426565,-2.4008 -0.375792,-3.02955 -0.512387,-0.401522 0.04658,1.716199 -0.234126,2.308758 -0.423775,0.894582 -0.953123,1.557111 -1.771363,1.722663 -0.82722,-2.753542 -2.05754,-4.540512 -3.126379,-4.587462 z m 34.396118,2.584832 c -1.05461,0.06671 -2.233593,1.835744 -3.006345,4.556847 -0.712987,-0.20986 -1.203935,-0.824512 -1.609693,-1.636948 -0.292821,-0.586312 0.222308,-2.715785 -0.281707,-2.303192 -0.789251,0.646088 -0.879192,1.833379 -0.313613,3.036786 0.431738,0.918623 1.261428,1.745865 1.901134,2.12063 -0.09087,0.416654 -0.170071,0.840922 -0.236291,1.268482 -0.0033,0.02295 -0.0066,0.04603 -0.0097,0.06902 -1.865038,-0.29713 -2.95658,-1.252359 -2.783569,-0.950663 -0.863354,0.888273 1.215224,2.199134 2.654879,2.00263 -0.06742,0.686858 -0.0994,1.361487 -0.09462,2.0043 -0.306695,0.06262 -0.600348,0.15753 -0.881358,0.409099 -0.620684,0.555663 -1.399314,1.57097 -1.762169,2.497445 -0.140807,0.359515 -0.350964,0.600708 -0.195196,0.977382 0.38822,0.938791 1.503437,-1.952129 1.666464,-2.145677 0.165585,-0.19658 0.723826,-0.398201 1.216595,-0.646206 0.106411,1.33576 0.391567,2.392097 0.816471,3.022313 -0.20227,0.306441 -0.343374,0.686495 -0.404991,1.089258 -0.03401,0.225652 -0.0422,0.453541 -0.02434,0.674036 -0.952965,1.340842 -1.959846,4.791809 -1.256067,3.956284 0.476838,-0.566098 0.588084,-2.028998 1.107372,-2.645501 0.136381,-0.161906 0.264717,-0.309778 0.379037,-0.451953 0.18976,0.370088 0.474727,0.604417 0.799707,0.657896 0.289482,0.04653 0.59314,-0.05354 0.86298,-0.284423 0.0649,0.166291 0.13967,0.34162 0.21844,0.532107 0.31048,0.750781 -0.0196,2.178178 0.26549,2.867581 0.41261,0.997755 0.48849,-2.447993 0.013,-4.069273 0.12047,-0.247806 0.20642,-0.525297 0.25089,-0.813184 0.0759,-0.499722 0.0238,-1.001076 -0.14545,-1.403178 0.52914,-0.514619 1.04409,-1.376721 1.48694,-2.490208 0.4165,0.457291 0.78264,0.737389 1.1382,1.18054 0.21696,0.270406 0.49748,0.554742 0.72995,1.013001 0.33285,0.656103 0.42392,1.541737 0.73754,1.169409 0.26052,-0.309306 0.0393,-1.408536 -0.0925,-1.712646 -0.42113,-0.972087 -0.79109,-1.304941 -1.25553,-1.826745 -0.28122,-0.315976 -0.56672,-0.592835 -0.91703,-0.778677 0.19339,-0.602685 0.36195,-1.245503 0.50123,-1.911352 0.98672,0.456682 3.53193,2.039873 3.20586,0.11967 -0.072,-0.424116 -1.03778,-0.810269 -3.02202,-1.109295 0.009,-0.05186 0.0181,-0.103938 0.0271,-0.155848 0.0566,-0.375515 0.10341,-0.751844 0.1395,-1.125993 0.71504,-0.08378 1.8977,-0.640115 2.65326,-1.454383 0.89702,-0.966716 1.16579,-2.125265 0.60722,-2.989477 -0.35672,-0.551886 -0.50143,1.637837 -0.9549,2.103376 -0.68459,0.702818 -1.39484,1.150827 -2.22069,1.031927 0.0989,-3.072662 -0.58508,-5.260718 -1.70215,-5.445731 h -5.4e-4 c -0.069,-0.01091 -0.13841,-0.01392 -0.20872,-0.0095 z m -81.444277,1.589636 c -1.0308,0.0019 -1.949807,0.935851 -2.296932,2.333804 -0.678818,-0.0435 -1.211294,-0.290092 -1.694041,-0.633963 -0.348383,-0.24816 -0.175671,-1.267266 -0.577477,-1.039719 -0.6292,0.356322 -0.545428,0.909553 0.13734,1.421546 0.521192,0.390832 1.391575,0.709995 2.026577,0.834894 -0.02481,0.198629 -0.03755,0.399866 -0.03839,0.601678 2.13e-4,0.01082 2.63e-4,0.02203 5.41e-4,0.03284 -1.740629,0.0021 -2.868013,-0.356463 -2.668399,-0.230432 -0.663018,0.473366 1.412695,0.921898 2.697057,0.724132 0.03416,0.321306 0.09924,0.634427 0.193033,0.930071 -0.270712,0.0517 -0.524611,0.117582 -0.745639,0.254365 -0.488198,0.302122 -1.056545,0.827069 -1.258229,1.280727 -0.07827,0.176038 -0.236511,0.302915 -0.04217,0.464756 0.48435,0.40336 1.098774,-1.010806 1.22038,-1.112076 0.123513,-0.102866 0.60369,-0.237027 1.018155,-0.387948 0.282825,0.607155 0.68985,1.072285 1.164686,1.33082 -0.14165,0.156181 -0.217809,0.341494 -0.217905,0.531549 4.15e-4,0.106438 0.02495,0.21205 0.07192,0.312251 -0.68169,0.688439 -1.118665,2.35243 -0.593699,1.915243 0.355683,-0.296206 0.253389,-0.978183 0.640741,-1.300762 0.101726,-0.08472 0.197874,-0.162565 0.28225,-0.236553 0.224393,0.156275 0.516717,0.243381 0.820255,0.24379 0.270226,-1.44e-4 0.532992,-0.06895 0.74672,-0.195367 0.08229,0.07173 0.174779,0.14692 0.273057,0.228763 0.38735,0.322579 0.285057,1.004555 0.64074,1.300762 0.514772,0.428693 0.104627,-1.164048 -0.554226,-1.875171 0.07529,-0.123088 0.114712,-0.257077 0.115171,-0.392956 -3.61e-4,-0.235769 -0.117518,-0.462527 -0.327671,-0.635075 0.410505,-0.2764 0.759336,-0.712173 1.007883,-1.257907 0.443112,0.179534 0.816363,0.281629 1.201995,0.45919 0.235311,0.108349 0.530072,0.218188 0.805656,0.411882 0.39456,0.277318 0.60092,0.6785 0.834855,0.483681 0.194337,-0.161842 -0.159904,-0.651799 -0.322262,-0.782016 -0.518986,-0.416239 -0.90252,-0.541839 -1.398274,-0.747507 -0.300203,-0.124544 -0.599038,-0.230518 -0.944077,-0.289986 0.09232,-0.291937 0.156629,-0.600843 0.190869,-0.917829 0.962564,0.13676 3.501952,0.676233 2.937672,-0.183676 -0.124633,-0.189929 -1.058445,-0.295701 -2.907933,-0.285532 0.001,-0.02454 0.0019,-0.04945 0.0027,-0.07403 -6.65e-4,-0.177137 -0.01058,-0.353791 -0.02974,-0.528763 0.639826,-0.09186 1.640184,-0.435925 2.215283,-0.867177 0.682774,-0.511993 0.765998,-1.06578 0.1368,-1.422104 -0.401807,-0.227546 -0.228552,0.79156 -0.576936,1.039722 -0.525955,0.374648 -1.111044,0.633851 -1.880045,0.640642 -0.337456,-1.422254 -1.264753,-2.378612 -2.308286,-2.380561 z m 4.885304,12.453271 c -0.234634,0.0078 -0.468445,0.0321 -0.7013,0.07292 -3.677323,0.662438 -6.26658,5.363801 -6.471203,11.750848 -2.454795,0.238591 -4.537206,-0.511882 -6.514461,-1.722664 -1.426924,-0.873782 -1.563876,-5.478176 -2.8295289,-4.219552 -1.9819142,1.970909 -1.2749968,4.359316 1.5404799,6.184893 2.149203,1.393554 5.493001,2.249557 7.851633,2.397814 0.0584,0.891963 0.161365,1.788082 0.307663,2.678894 0.0088,0.04761 0.01746,0.0955 0.02649,0.143044 -6.210444,1.113565 -10.499464,0.246335 -9.6938284,0.675709 -2.0160228,2.508667 5.7246844,3.171959 10.1620824,1.484995 0.35957,1.395739 0.822653,2.734941 1.376104,3.979661 -0.927888,0.399712 -1.78612,0.851073 -2.473743,1.594647 -1.518803,1.642387 -3.15748,4.320122 -3.541643,6.449273 -0.149076,0.826222 -0.619724,1.486522 0.193573,2.077212 2.026984,1.4722 3.171756,-5.156741 3.53083,-5.680612 0.364705,-0.532078 1.978933,-1.429111 3.346447,-2.35774 1.458539,2.499026 3.255708,4.292462 5.1416,5.131811 -0.389991,0.778811 -0.523627,1.645631 -0.383362,2.484091 0.0803,0.46927 0.244867,0.91971 0.486638,1.33193 -1.923548,3.46929 -2.251944,11.0869 -0.70184,8.82537 1.050247,-1.53225 0.180978,-4.47558 1.324736,-6.14426 0.30038,-0.43823 0.585759,-0.84238 0.832151,-1.22227 0.916445,0.54708 2.024406,0.74452 3.107994,0.5538 0.964293,-0.17198 1.850468,-0.64148 2.519705,-1.33471 0.346776,0.26425 0.732851,0.53673 1.14414,0.83545 1.621045,1.17735 1.760602,4.24998 3.24912,5.33108 2.1543,1.56465 -0.486837,-5.19951 -3.364292,-7.91869 0.177605,-0.59073 0.218384,-1.20756 0.119496,-1.807265 -0.175554,-1.039853 -0.761235,-1.966401 -1.638888,-2.594291 1.260552,-1.479647 2.184033,-3.622052 2.667318,-6.187118 1.714228,0.510971 3.120836,0.723086 4.628468,1.2618 0.919946,0.328731 2.053089,0.627768 3.179907,1.307444 1.613291,0.973117 2.646496,2.610776 3.337255,1.602995 0.573838,-0.837188 -1.053409,-2.772378 -1.729186,-3.243838 -2.160119,-1.507036 -3.621376,-1.8183 -5.542808,-2.411174 -1.163523,-0.359013 -2.308419,-0.637749 -3.583817,-0.681271 0.113547,-1.346388 0.11446,-2.749407 0.0021,-4.169458 3.536432,-0.0072 12.997548,0.762176 10.347547,-2.67333 -0.585304,-0.758799 -3.995666,-0.633934 -10.588703,0.58387 -0.01445,-0.108944 -0.02918,-0.217879 -0.04488,-0.326723 -0.133518,-0.780963 -0.299624,-1.554599 -0.49745,-2.314324 2.215488,-0.811037 5.531555,-2.964294 7.264961,-5.231443 2.057926,-2.691596 1.946257,-5.185717 -0.562877,-6.358549 -1.602333,-0.748973 -0.231468,3.636358 -1.291212,4.952031 -1.599885,1.986261 -3.495474,3.500959 -6.234915,4.01862 -2.115486,-5.681318 -5.779069,-9.228019 -9.29857,-9.110914 z M 54.45058,72.16311 c -0.02137,-0.0019 -0.04594,-2.7e-5 -0.07408,0.0056 -0.705113,0.140115 -0.790552,0.693353 -0.293606,1.396499 0.379347,0.536755 1.112424,1.11579 1.679443,1.43546 -0.08289,0.18118 -0.155248,0.368706 -0.216283,0.560493 -0.0031,0.01029 -0.0061,0.02079 -0.0092,0.03117 -1.657096,-0.548404 -2.622848,-1.246718 -2.470498,-1.063657 -0.77223,0.240804 1.069189,1.324365 2.350459,1.542327 -0.06338,0.316569 -0.09456,0.635205 -0.09354,0.946214 -0.273045,-0.03642 -0.53449,-0.05419 -0.78565,0.0061 -0.554754,0.133124 -1.252629,0.453598 -1.579951,0.821535 -0.127018,0.142776 -0.315072,0.213107 -0.178434,0.428579 0.340548,0.537025 1.346949,-0.614451 1.492898,-0.672369 0.148236,-0.05883 0.645196,-0.03475 1.084662,-0.04731 0.08794,0.667232 0.336315,1.238527 0.711033,1.634721 -0.181416,0.103833 -0.308711,0.256092 -0.365521,0.436927 -0.03137,0.101415 -0.04021,0.209834 -0.02541,0.320043 -0.854185,0.439569 -1.766083,1.88475 -1.13603,1.63472 0.426883,-0.169402 0.532715,-0.850782 0.997609,-1.035268 0.122084,-0.04844 0.237185,-0.09209 0.339565,-0.135808 0.166899,0.21968 0.419048,0.395094 0.707787,0.491473 0.257198,0.08533 0.527768,0.102804 0.768887,0.05009 0.05691,0.09429 0.122312,0.194938 0.191412,0.303902 0.272344,0.429478 -0.02839,1.046104 0.22169,1.440467 0.361937,0.570754 0.447201,-1.074127 0.03244,-1.959218 0.108376,-0.09332 0.185568,-0.208691 0.226558,-0.337851 0.07002,-0.224482 0.0263,-0.47733 -0.122202,-0.707991 0.473145,-0.133215 0.935613,-0.437006 1.335012,-0.877752 0.368101,0.310985 0.692265,0.525601 1.006257,0.816528 0.191595,0.177521 0.439536,0.375285 0.643984,0.646763 0.292718,0.38868 0.36917,0.83555 0.649933,0.724133 0.233241,-0.09256 0.04211,-0.670765 -0.07353,-0.846026 -0.369665,-0.560236 -0.696974,-0.800768 -1.107372,-1.153267 -0.248516,-0.213456 -0.501,-0.409253 -0.811606,-0.574964 0.174989,-0.248617 0.328089,-0.521802 0.455279,-0.812628 0.875198,0.434543 3.130972,1.750958 2.850616,0.754185 -0.06192,-0.220156 -0.918834,-0.616469 -2.681916,-1.191671 0.0083,-0.02302 0.01629,-0.04586 0.02434,-0.06902 0.05224,-0.16878 0.09523,-0.34061 0.12923,-0.513183 0.636302,0.114916 1.691231,0.103853 2.367223,-0.124679 0.802557,-0.271312 1.047194,-0.771597 0.554768,-1.309667 -0.314465,-0.34361 -0.45359,0.681076 -0.859187,0.807061 -0.61233,0.190203 -1.246779,0.251755 -1.980617,0.01503 0.103309,-1.459956 -0.493667,-2.663508 -1.485867,-2.995597 h -5.42e-4 c -0.98142,-0.323766 -2.134556,0.274088 -2.881976,1.494459 -0.63301,-0.256069 -1.066371,-0.659448 -1.423148,-1.139353 -0.241382,-0.324685 0.155564,-1.14913 -0.164915,-1.177199 z m 34.503173,1.415978 c -2.884526,0.09608 -5.699324,3.161818 -7.166016,7.896981 -2.011859,-0.380168 -3.509867,-1.463733 -4.822581,-2.889844 -0.947349,-1.029179 -0.04645,-4.736343 -1.332846,-4.025858 -2.014407,1.112561 -1.973478,3.183187 -0.126526,5.294894 1.409875,1.61198 3.89101,3.0726 5.741246,3.73921 -0.149044,0.72558 -0.263637,1.465152 -0.342269,2.210241 -0.0035,0.04004 -0.007,0.08018 -0.01027,0.120227 -5.20171,-0.554788 -8.435138,-2.244331 -7.88624,-1.714316 -2.159601,1.533896 3.874025,3.862865 7.786208,3.547741 -0.01916,1.197718 0.05675,2.374299 0.225476,3.496533 -0.828362,0.103381 -1.612501,0.264262 -2.324506,0.697971 -1.572665,0.957975 -3.468671,2.714469 -4.242403,4.324749 -0.300244,0.624866 -0.820261,1.042613 -0.300635,1.703185 1.295069,1.646339 3.662962,-3.378901 4.064508,-3.713607 0.407846,-0.339955 1.893244,-0.6809 3.188562,-1.104286 0.616052,2.33386 1.656957,4.183166 2.978223,5.291556 -0.482153,0.53102 -0.778563,1.191639 -0.850534,1.893535 -0.0389,0.39325 -0.0068,0.79139 0.0957,1.17664 -2.296515,2.3222 -4.229377,8.32665 -2.495911,6.88175 1.174485,-0.97899 1.12656,-3.53078 2.405614,-4.59693 0.335912,-0.27999 0.652161,-0.53603 0.932182,-0.78201 0.611527,0.64974 1.45285,1.06475 2.359654,1.1644 0.807468,0.0869 1.617671,-0.0819 2.303959,-0.47979 0.218844,0.29155 0.467175,0.59882 0.729957,0.93286 1.035711,1.31664 0.472666,3.80204 1.423687,5.01103 1.376419,1.74975 0.752526,-4.26384 -0.947863,-7.10327 0.271354,-0.43026 0.438882,-0.91318 0.491504,-1.41487 0.08791,-0.87087 -0.175771,-1.746586 -0.738609,-2.451801 1.330821,-0.8881 2.537468,-2.383426 3.485952,-4.318628 1.256266,0.806354 2.332543,1.302855 3.41782,2.083338 0.662221,0.476243 1.501153,0.978298 2.251511,1.782774 1.074333,1.151791 1.539613,2.698837 2.312073,2.054947 0.64171,-0.534885 -0.23231,-2.457713 -0.66831,-2.991139 -1.393714,-1.705102 -2.492118,-2.293335 -3.895814,-3.213226 -0.850024,-0.557048 -1.702595,-1.045809 -2.711115,-1.377017 0.385994,-1.048349 0.694624,-2.167684 0.916502,-3.32733 2.824491,0.816329 10.207687,3.629419 8.845997,0.271062 -0.30076,-0.741761 -3.04998,-1.43438 -8.57997,-1.994839 0.01301,-0.09025 0.02463,-0.180997 0.03515,-0.27162 0.06432,-0.654477 0.101573,-1.31068 0.110303,-1.963113 1.946424,-0.132408 5.066017,-1.080627 6.947027,-2.487427 2.23318,-1.670173 2.69076,-3.686938 0.94516,-5.206395 -1.11475,-0.970325 -0.98178,2.849054 -2.11633,3.652937 -1.712831,1.21362 -3.55883,1.981856 -5.859127,1.758289 -0.471814,-5.361626 -2.881608,-9.193942 -5.998621,-9.538938 h -5.43e-4 c -0.192364,-0.02033 -0.384814,-0.027 -0.576935,-0.0206 z M 59.099595,87.929797 c -0.118854,0.0016 -0.238068,0.01169 -0.356327,0.03006 -1.870282,0.300129 -3.226215,2.658405 -3.389164,5.89435 -1.246804,0.09684 -2.29572,-0.304011 -3.28697,-0.937307 -0.715354,-0.457032 -0.742208,-2.793079 -1.395568,-2.167384 -1.023112,0.979786 -0.686521,2.197651 0.724008,3.150888 1.076733,0.727651 2.763529,1.194632 3.95799,1.292972 0.02135,0.4528 0.06548,0.908353 0.131392,1.361432 0.004,0.02422 0.0083,0.04815 0.01243,0.07237 -3.159043,0.503548 -5.326013,0.02207 -4.921534,0.247684 -1.045389,1.252098 2.87294,1.664406 5.138357,0.852703 0.169367,0.711178 0.392229,1.394506 0.661287,2.03102 -0.474146,0.193539 -0.913521,0.414005 -1.269043,0.784245 -0.785265,0.81778 -1.641197,2.15922 -1.855714,3.23494 -0.08325,0.41742 -0.327923,0.74782 0.07894,1.0553 1.014038,0.76632 1.655829,-2.58324 1.842737,-2.84532 0.189838,-0.26618 1.016968,-0.70534 1.718912,-1.16272 0.716315,1.28134 1.610805,2.20865 2.559175,2.65274 -0.204945,0.39102 -0.281245,0.82864 -0.217903,1.25511 0.03634,0.23873 0.115908,0.46877 0.234666,0.68017 -1.007413,1.74003 -1.24431,5.59914 -0.437435,4.46779 0.546688,-0.76654 0.132976,-2.26768 0.728335,-3.10247 0.156359,-0.21923 0.304663,-0.42095 0.433111,-0.61115 0.459567,0.28638 1.019606,0.39721 1.570756,0.31114 0.490491,-0.0777 0.944397,-0.30688 1.290133,-0.65177 0.173366,0.13737 0.36631,0.27921 0.57207,0.43471 0.810962,0.61284 0.853139,2.17234 1.597794,2.7351 1.077736,0.81446 -0.198195,-2.64121 -1.631859,-4.04812 0.09552,-0.29774 0.121899,-0.61001 0.07732,-0.91504 -0.07942,-0.52892 -0.368129,-1.00441 -0.807279,-1.33137 0.652826,-0.73781 1.141356,-1.81507 1.410168,-3.110821 0.864379,0.275907 1.57486,0.397225 2.334241,0.685171 0.463366,0.1757 1.035509,0.33841 1.600498,0.69408 0.808926,0.50922 1.31718,1.34962 1.676738,0.84547 0.298697,-0.41882 -0.50796,-1.41577 -0.846209,-1.66144 -1.081222,-0.7853 -1.819227,-0.957369 -2.787894,-1.276838 -0.586589,-0.193454 -1.164613,-0.346113 -1.810836,-0.380711 0.07005,-0.681509 0.08378,-1.392873 0.04002,-2.113951 1.793045,0.03112 6.582536,0.513839 5.270829,-1.254011 -0.289713,-0.390462 -2.01958,-0.36007 -5.373566,0.192585 -0.0059,-0.05544 -0.01307,-0.111169 -0.02055,-0.166423 -0.06075,-0.397218 -0.137616,-0.791188 -0.230882,-1.178314 1.130787,-0.389433 2.832111,-1.44851 3.731973,-2.580934 1.068334,-1.344428 1.034703,-2.610084 -0.226557,-3.229368 -0.805456,-0.39547 -0.15072,1.841364 -0.70022,2.498003 -0.829559,0.991321 -1.804583,1.74093 -3.198292,1.976469 C 62.709796,89.7396 60.885066,87.905012 59.099584,87.929809 Z M 44.636713,98.021989 c -0.839708,0.0021 -1.588618,0.935853 -1.871394,2.333801 -0.552977,-0.0435 -0.986633,-0.2901 -1.379887,-0.633959 -0.283801,-0.248158 -0.143098,-1.267264 -0.470418,-1.03972 -0.512558,0.35632 -0.444269,0.909557 0.111927,1.421539 0.424575,0.39083 1.133498,0.71056 1.650785,0.83546 -0.0202,0.19863 -0.03067,0.39986 -0.03136,0.60168 1.71e-4,0.0108 3.15e-4,0.0215 5.4e-4,0.0323 -1.417951,0.002 -2.336261,-0.35648 -2.173649,-0.23044 -0.540109,0.47337 1.151171,0.9219 2.19744,0.72414 0.02782,0.3213 0.0804,0.63442 0.156805,0.93007 -0.220525,0.0517 -0.427164,0.11758 -0.607217,0.25436 -0.397696,0.30212 -0.860887,0.82762 -1.025182,1.28128 -0.06375,0.17605 -0.192376,0.30293 -0.03407,0.46477 0.394562,0.40336 0.894763,-1.01138 0.993825,-1.11264 0.100613,-0.10284 0.491814,-0.23703 0.829447,-0.38794 0.230393,0.60715 0.562131,1.07228 0.948942,1.33081 -0.115391,0.1562 -0.177274,0.3415 -0.177351,0.53155 3.38e-4,0.10642 0.02014,0.21205 0.0584,0.31225 -0.55532,0.68845 -0.911587,2.35244 -0.483936,1.91525 0.289746,-0.29621 0.20678,-0.97819 0.522325,-1.30076 0.08287,-0.0847 0.161067,-0.16202 0.229802,-0.236 0.182794,0.15627 0.421045,0.24282 0.668315,0.24323 0.220132,-1.3e-4 0.43365,-0.069 0.607756,-0.19537 0.06704,0.0717 0.142713,0.14692 0.222773,0.22876 0.315543,0.32258 0.232036,1.00457 0.521782,1.30077 0.419346,0.42869 0.08576,-1.1635 -0.450949,-1.87461 0.06132,-0.1231 0.09316,-0.25764 0.09354,-0.39352 -2.93e-4,-0.23577 -0.09592,-0.46252 -0.267109,-0.63507 0.334405,-0.2764 0.618866,-0.71161 0.821336,-1.25735 0.360966,0.17953 0.665079,0.28107 0.979224,0.45863 0.191688,0.10834 0.431384,0.21819 0.655879,0.41188 0.321417,0.27731 0.489641,0.6785 0.680211,0.48369 0.158313,-0.16185 -0.13052,-0.65181 -0.262785,-0.78203 -0.422774,-0.41623 -0.734879,-0.54184 -1.138732,-0.74751 -0.244552,-0.12453 -0.487812,-0.23051 -0.768887,-0.28998 0.07521,-0.29193 0.127289,-0.60083 0.155184,-0.91783 0.784122,0.13677 2.85285,0.67623 2.393177,-0.18367 -0.101522,-0.18994 -0.862215,-0.2957 -2.368845,-0.28553 8.53e-4,-0.0246 0.0016,-0.0489 0.0021,-0.0735 -5.4e-4,-0.17713 -0.0088,-0.35435 -0.02434,-0.52932 0.521216,-0.0919 1.336399,-0.43593 1.804886,-0.86718 0.556203,-0.511978 0.623947,-1.065215 0.111386,-1.421546 -0.327317,-0.227543 -0.186075,0.791006 -0.469875,1.039166 -0.428442,0.37464 -0.905384,0.63384 -1.531827,0.64064 -0.274911,-1.422252 -1.029964,-2.378609 -1.880046,-2.380558 z"
       id="path816"
       inkscape:connector-curvature="0" />
  </g>
</svg>
