<?xml version="1.0" encoding="UTF-8" standalone="no"?>
<!-- Created with Inkscape (http://www.inkscape.org/) -->

<svg
   xmlns:dc="http://purl.org/dc/elements/1.1/"
   xmlns:cc="http://creativecommons.org/ns#"
   xmlns:rdf="http://www.w3.org/1999/02/22-rdf-syntax-ns#"
   xmlns:svg="http://www.w3.org/2000/svg"
   xmlns="http://www.w3.org/2000/svg"
   xmlns:sodipodi="http://sodipodi.sourceforge.net/DTD/sodipodi-0.dtd"
   xmlns:inkscape="http://www.inkscape.org/namespaces/inkscape"
   width="105.03123mm"
   height="110.91075mm"
   viewBox="0 0 105.03123 110.91075"
   version="1.1"
   id="svg8"
   inkscape:version="0.92.2 (5c3e80d, 2017-08-06)"
   sodipodi:docname="WorldClass.svg">
  <defs
     id="defs2" />
  <sodipodi:namedview
     id="base"
     pagecolor="#ffffff"
     bordercolor="#666666"
     borderopacity="1.0"
     inkscape:pageopacity="0.0"
     inkscape:pageshadow="2"
     inkscape:zoom="1.4"
     inkscape:cx="188.13456"
     inkscape:cy="219.25038"
     inkscape:document-units="mm"
     inkscape:current-layer="layer1"
     showgrid="false"
     inkscape:window-width="1680"
     inkscape:window-height="997"
     inkscape:window-x="-8"
     inkscape:window-y="-8"
     inkscape:window-maximized="1" />
  <metadata
     id="metadata5">
    <rdf:RDF>
      <cc:Work
         rdf:about="">
        <dc:format>image/svg+xml</dc:format>
        <dc:type
           rdf:resource="http://purl.org/dc/dcmitype/StillImage" />
        <dc:title />
      </cc:Work>
    </rdf:RDF>
  </metadata>
  <g
     inkscape:label="Layer 1"
     inkscape:groupmode="layer"
     id="layer1"
     transform="translate(-3.2632255,-3.3278717)">
    <path
       style="fill:#008000;fill-opacity:1;stroke:none;stroke-width:0.99204576;stroke-opacity:1"
       d="M 198.14258,9.7617188 C 91.236574,9.7623486 4.5724149,99.145147 4.5722656,209.4043 4.5724155,319.66345 91.236575,409.04625 198.14258,409.04688 305.04935,409.04736 391.71469,319.66424 391.71484,209.4043 391.66395,174.73623 382.86079,140.67934 366.17188,110.58594 361.71206,94.687278 345.65963,74.289406 323.99805,58.029297 288.97391,26.967988 244.33455,9.8480797 198.14258,9.7617188 Z m 0.0723,8.9179692 c 22.38852,0.07578 44.57703,4.350417 65.48243,12.615234 -4.465,-0.655829 -8.95079,-1.013672 -13.43165,-1.013672 -21.49142,0 -94.48303,-16.479633 -51.15039,6.369141 -26.24609,16.693359 39.14783,5.535703 37.48084,8.678407 -2.99723,5.650539 -48.93014,11.697613 -63.72693,8.014952 -8.42944,-2.097939 -15.56612,15.10187 -15.56612,24.414062 0,5.508201 25.66149,20.823516 14.74386,28.275388 -5.19958,3.549 -15.79186,6.94581 -16.86244,11.76942 -1.88653,8.50004 9.25298,18.42314 13.32728,19.91808 4.67762,1.71631 16.64056,6.2448 28.15234,-13.16992 7.48914,-12.6305 14.1845,1.67214 29.07422,1.33399 5.97182,-0.13563 9.13118,16.62153 14.22461,15.85156 9.29377,-1.40493 0.70511,-14.05598 5.32227,-17.36719 2.48315,-1.78081 13.95233,-6.50396 19.50781,0.68945 6.7484,8.73805 15.61896,20.52542 19.17641,22.14454 8.74626,3.98074 5.76008,-15.28296 8.72203,-13.88672 20.44273,9.63652 28.16563,47.1838 39.98225,58.26735 4.20411,3.9433 12.8967,-2.9626 17.33415,-5.22048 12.6199,-6.42129 23.633,-6.27919 19.69141,-18.54297 -3.18602,-9.9131 -16.4801,3.80107 -4.32422,-39.08203 11.44314,25.15538 17.41019,52.58874 17.48242,80.375 -3.4e-4,105.17356 -82.6675,190.43344 -184.64258,190.4336 -34.00847,-0.0838 -67.33383,-9.8531 -96.30078,-28.23047 0.69482,-0.71267 -11.743163,-15.46967 1.37383,-24.3511 9.27025,-6.27683 6.64136,-11.61729 9.84882,-21.972 2.6531,-8.56506 -14.603005,-6.11749 -36.412836,-18.60127 -26.353282,-15.08441 14.891027,-14.22926 -55.753171,-44.26118 -3.260724,-11.66712 -5.432068,-23.62913 -6.484375,-35.72266 4.132148,-1.76685 2.763924,-23.27019 9.443943,-34.59639 8.131576,-13.78737 38.30728,-30.2872 33.143524,-41.82661 -9.091373,-20.31644 -16.258817,-24.42798 -23.384342,-26.8602 7.702866,-15.64741 17.465824,-30.121617 29.011719,-43.011719 -0.03523,0.395772 -0.07227,0.791931 -0.07227,1.181641 0,16.736753 -0.178932,25.047288 17.93083,22.727348 11.482424,-1.47094 11.255752,-15.250987 17.424653,-30.809379 6.060915,-15.286046 28.463265,-20.684148 11.697255,-30.988282 27.1306,-15.378991 57.57498,-23.475507 88.5332,-23.544921 z M 171.5864,146.2086 c -15.89972,-0.10404 -21.78554,10.68323 -31.46723,16.61949 -15.57249,9.54817 -15.85846,38.72253 -17.89027,52.05941 -6.65354,43.67404 13.54384,50.51272 55.44652,48.56097 17.02968,-1.19533 27.47066,5.12474 36.82276,12.99442 4.4658,3.75792 -4.2003,14.86949 -3.37585,16.98287 6.566,16.83128 8.29901,19.51522 6.93161,29.47971 -2.07367,15.11124 1.75791,20.80276 3.1178,26.59638 1.87891,8.00487 2.25316,13.44993 4.7494,19.40285 0.94708,2.25855 -2.2541,5.85643 0.18848,6.90044 12.4616,5.32632 34.55372,1.26192 47.64155,-8.13208 13.09547,-9.39949 12.00987,-26.6098 22.96172,-42.55978 6.59892,-9.61049 21.9392,-14.14017 16.93945,-37.24219 -6.76725,-31.26899 5.6356,-40.6119 18.58204,-61.07031 7.01265,-11.08164 17.7832,-15.24898 17.7832,-25.55078 0,-6.06401 -16.35469,5.30665 -21.39139,-0.92501 -9.92697,-12.28213 -25.38244,-42.96153 -38.59649,-52.23902 -15.28838,-10.73387 -30.23216,10.55325 -53.14884,4.92965 -13.37853,-3.28299 -49.39475,-6.70298 -65.29446,-6.80702 z"
       transform="matrix(0.26458333,0,0,0.26458333,3.2632255,3.3278717)"
       id="path836"
       inkscape:connector-curvature="0"
       sodipodi:nodetypes="cccccccccscssssssscscssssscccccsssccssccsssccssscssssssassssssss" />
  </g>
</svg>
