<?xml version="1.0" encoding="UTF-8" standalone="no"?>
<!-- Created with Inkscape (http://www.inkscape.org/) -->

<svg
   width="105.03123mm"
   height="110.91075mm"
   viewBox="0 0 105.03123 110.91075"
   version="1.1"
   id="svg8"
   inkscape:version="1.1.2 (b8e25be833, 2022-02-05)"
   sodipodi:docname="AlwaysOn.svg"
   xmlns:inkscape="http://www.inkscape.org/namespaces/inkscape"
   xmlns:sodipodi="http://sodipodi.sourceforge.net/DTD/sodipodi-0.dtd"
   xmlns="http://www.w3.org/2000/svg"
   xmlns:svg="http://www.w3.org/2000/svg"
   xmlns:rdf="http://www.w3.org/1999/02/22-rdf-syntax-ns#"
   xmlns:cc="http://creativecommons.org/ns#"
   xmlns:dc="http://purl.org/dc/elements/1.1/">
  <defs
     id="defs2" />
  <sodipodi:namedview
     id="base"
     pagecolor="#ffffff"
     bordercolor="#666666"
     borderopacity="1.0"
     inkscape:pageopacity="0.0"
     inkscape:pageshadow="2"
     inkscape:zoom="1.4"
     inkscape:cx="176.78572"
     inkscape:cy="189.28572"
     inkscape:document-units="mm"
     inkscape:current-layer="layer1"
     showgrid="false"
     inkscape:window-width="1920"
     inkscape:window-height="1017"
     inkscape:window-x="-8"
     inkscape:window-y="-8"
     inkscape:window-maximized="1"
     inkscape:pagecheckerboard="0" />
  <metadata
     id="metadata5">
    <rdf:RDF>
      <cc:Work
         rdf:about="">
        <dc:format>image/svg+xml</dc:format>
        <dc:type
           rdf:resource="http://purl.org/dc/dcmitype/StillImage" />
      </cc:Work>
    </rdf:RDF>
  </metadata>
  <g
     inkscape:label="Layer 1"
     inkscape:groupmode="layer"
     id="layer1"
     transform="translate(-3.2632255,-3.3278717)">
    <circle
       style="fill:#ffffff;stroke-width:0.238;fill-opacity:1"
       id="path860"
       cx="68.369629"
       cy="44.05481"
       r="32.600445" />
    <path
       style="fill:#008000;stroke:none;stroke-width:0.24643034;stroke-opacity:1"
       d="M 68.263155,9.238761 A 34.999998,34.999998 0 0 0 33.263225,44.23869 34.999998,34.999998 0 0 0 68.263155,79.238623 34.999998,34.999998 0 0 0 103.26308,44.23869 34.999998,34.999998 0 0 0 68.263155,9.238761 Z m 0,4.999695 A 30,30 0 0 1 98.262875,44.23869 30,30 0 0 1 68.263155,74.23841 30,30 0 0 1 38.262919,44.23869 30,30 0 0 1 68.263155,14.238456 Z"
       id="path824"
       inkscape:connector-curvature="0" />
    <path
       id="rect845"
       style="fill:#008000;stroke-width:0.436718"
       transform="rotate(39.036079)"
       d="m 73.619431,24.678646 13.101528,0 c 0,0 1.507614,44.954452 0,46.16729 -3.40275,2.737429 -10.361962,3.40103 -13.101528,0 -1.450891,-1.801206 0,-46.16729 0,-46.16729 z"
       sodipodi:nodetypes="ccssc" />
    <rect
       style="fill:#008000;stroke:none;stroke-width:0.26458332;stroke-opacity:1"
       id="rect847"
       width="3.2127976"
       height="27.214285"
       x="42.388821"
       y="41.945435"
       transform="rotate(-22.957806)" />
    <rect
       style="fill:#008000;stroke:none;stroke-width:0.26458332;stroke-opacity:1"
       id="rect849"
       width="16.630953"
       height="3.7797644"
       x="81.087181"
       y="-1.6008528"
       transform="rotate(33.998323)" />
    <ellipse
       style="fill:#008000;stroke:none;stroke-width:0.26458332;stroke-opacity:1"
       id="path867"
       cx="45.49181"
       cy="45.149452"
       rx="4.0090427"
       ry="4.1426778" />
    <circle
       style="fill:#008000;stroke:none;stroke-width:0.26458332;stroke-opacity:1"
       id="path869"
       cx="50.970833"
       cy="56.909309"
       r="1.4699824" />
    <ellipse
       style="fill:#008000;stroke:none;stroke-width:0.26458332;stroke-opacity:1"
       id="path867-3"
       cx="68.27227"
       cy="19.892479"
       rx="4.0090423"
       ry="4.1426778" />
    <ellipse
       style="fill:#008000;stroke:none;stroke-width:0.26458332;stroke-opacity:1"
       id="path867-1"
       cx="91.462173"
       cy="44.347641"
       rx="4.0090423"
       ry="4.1426778" />
    <ellipse
       style="fill:#008000;stroke:none;stroke-width:0.26458332;stroke-opacity:1"
       id="path867-31"
       cx="68.27227"
       cy="67.199188"
       rx="4.0090423"
       ry="4.1426778" />
    <circle
       style="fill:#008000;stroke:none;stroke-width:0.26458332;stroke-opacity:1"
       id="path869-9"
       cx="57.786209"
       cy="64.259224"
       r="1.4699824" />
    <circle
       style="fill:#008000;stroke:none;stroke-width:0.26458332;stroke-opacity:1"
       id="path869-1"
       cx="49.500854"
       cy="33.255959"
       r="1.4699824" />
    <circle
       style="fill:#008000;stroke:none;stroke-width:0.26458332;stroke-opacity:1"
       id="path869-2"
       cx="56.717133"
       cy="24.970602"
       r="1.4699824" />
    <circle
       style="fill:#008000;stroke:none;stroke-width:0.26458332;stroke-opacity:1"
       id="path869-5"
       cx="80.637756"
       cy="23.50062"
       r="1.4699824" />
    <circle
       style="fill:#008000;stroke:none;stroke-width:0.26458332;stroke-opacity:1"
       id="path869-3"
       cx="87.987671"
       cy="32.053242"
       r="1.4699824" />
    <circle
       style="fill:#008000;stroke:none;stroke-width:0.26458332;stroke-opacity:1"
       id="path869-8"
       cx="87.987679"
       cy="55.706596"
       r="1.4699824" />
    <circle
       style="fill:#008000;stroke:none;stroke-width:0.26458332;stroke-opacity:1"
       id="path869-4"
       cx="82.241371"
       cy="63.457417"
       r="1.4699824" />
  </g>
</svg>
