<?xml version="1.0" encoding="UTF-8" standalone="no"?>
<!-- Created with Inkscape (http://www.inkscape.org/) -->

<svg
   width="105.03123mm"
   height="110.91075mm"
   viewBox="0 0 105.03123 110.91075"
   version="1.1"
   id="svg8"
   inkscape:version="1.1.2 (b8e25be833, 2022-02-05)"
   sodipodi:docname="AppIcon.svg"
   xmlns:inkscape="http://www.inkscape.org/namespaces/inkscape"
   xmlns:sodipodi="http://sodipodi.sourceforge.net/DTD/sodipodi-0.dtd"
   xmlns="http://www.w3.org/2000/svg"
   xmlns:svg="http://www.w3.org/2000/svg"
   xmlns:rdf="http://www.w3.org/1999/02/22-rdf-syntax-ns#"
   xmlns:cc="http://creativecommons.org/ns#"
   xmlns:dc="http://purl.org/dc/elements/1.1/">
  <defs
     id="defs2" />
  <sodipodi:namedview
     id="base"
     pagecolor="#ffffff"
     bordercolor="#666666"
     borderopacity="1.0"
     inkscape:pageopacity="0.0"
     inkscape:pageshadow="2"
     inkscape:zoom="1.7255553"
     inkscape:cx="230.94015"
     inkscape:cy="206.88992"
     inkscape:document-units="mm"
     inkscape:current-layer="layer1"
     showgrid="false"
     inkscape:window-width="1920"
     inkscape:window-height="1017"
     inkscape:window-x="-8"
     inkscape:window-y="-8"
     inkscape:window-maximized="1"
     inkscape:pagecheckerboard="0" />
  <metadata
     id="metadata5">
    <rdf:RDF>
      <cc:Work
         rdf:about="">
        <dc:format>image/svg+xml</dc:format>
        <dc:type
           rdf:resource="http://purl.org/dc/dcmitype/StillImage" />
        <dc:title />
      </cc:Work>
    </rdf:RDF>
  </metadata>
  <g
     inkscape:label="Layer 1"
     inkscape:groupmode="layer"
     id="layer1"
     transform="translate(-3.2632255,-3.3278717)">
    <path
       id="path1781"
       style="fill:#008000;stroke-width:0.99792;stroke-miterlimit:4;stroke-dasharray:none"
       inkscape:transform-center-x="4.7644333"
       inkscape:transform-center-y="-0.4996361"
       transform="matrix(0.23849608,0,0,0.23849608,45.543989,35.798945)"
       d="M 243.57142,238.57142 C 212.42359,278.88968 140.81804,212.49821 89.894536,214.09393 43.568582,215.54559 31.856725,331.73271 -16.11343,314.56839 -64.083583,297.40407 -34.388805,225.43334 -29.770192,187.16037 -22.478743,126.73846 -168.20978,154.21952 -166.70913,103.29313 -165.20848,52.366732 -52.432824,72.96156 -31.571604,27.499995 -10.322907,-18.805974 -52.11592,-108.73407 -3.2183127,-123.04399 45.679293,-137.35391 52.229416,-27.019903 96.985002,-5.9981018 143.09988,15.662163 222.8213,-73.97028 251.54104,-31.887902 280.26077,10.194475 159.31797,70.250735 182.24802,112.17634 c 24.44736,44.69986 92.47123,86.07682 61.3234,126.39508 z"
       sodipodi:nodetypes="sssssssssss" />
    <path
       id="path1781-7"
       style="fill:#ffffff;stroke-width:0.0394728;stroke-miterlimit:4;stroke-dasharray:none"
       inkscape:transform-center-x="0.79019078"
       inkscape:transform-center-y="-0.082864997"
       d="m 67.678871,65.829485 c -1.232054,1.594788 -4.064414,-1.031328 -6.078695,-0.96821 -1.832424,0.05742 -2.295687,4.653205 -4.193148,3.974272 -1.897461,-0.678937 -0.722883,-3.525739 -0.540194,-5.03963 0.288413,-2.38999 -5.475983,-1.302976 -5.416625,-3.317371 0.05936,-2.014396 4.520204,-1.199766 5.34537,-2.998 0.840493,-1.831634 -0.812631,-5.388743 1.121515,-5.954772 1.934147,-0.56603 2.193237,3.798236 3.963546,4.629754 1.824075,0.856772 4.977458,-2.688642 6.113469,-1.024072 1.13601,1.66457 -3.647887,4.040097 -2.740888,5.698466 0.967017,1.768104 3.657703,3.40477 2.42565,4.999563 z"
       sodipodi:nodetypes="sssssssssss" />
    <circle
       style="fill:#ffffff;stroke-width:0.238;stroke-miterlimit:4;stroke-dasharray:none"
       id="path3466"
       cx="50.336239"
       cy="29.547691"
       r="2.4533167" />
    <circle
       style="fill:#ffffff;stroke-width:0.238;stroke-miterlimit:4;stroke-dasharray:none"
       id="path3468"
       cx="53.479549"
       cy="41.430946"
       r="4.2166381" />
    <circle
       style="fill:#ffffff;stroke-width:0.238;stroke-miterlimit:4;stroke-dasharray:none"
       id="path3470"
       cx="48.112919"
       cy="19.811092"
       r="1.3033243" />
    <circle
       style="fill:#ffffff;stroke-width:0.238;stroke-miterlimit:4;stroke-dasharray:none"
       id="path3466-0"
       cx="47.959583"
       cy="90.190613"
       r="2.4533167" />
    <circle
       style="fill:#ffffff;stroke-width:0.238;stroke-miterlimit:4;stroke-dasharray:none"
       id="path3468-3"
       cx="53.55621"
       cy="78.767357"
       r="4.2166381" />
    <circle
       style="fill:#ffffff;stroke-width:0.238;stroke-miterlimit:4;stroke-dasharray:none"
       id="path3470-1"
       cx="44.662937"
       cy="100.08054"
       r="1.3033243" />
    <circle
       style="fill:#ffffff;stroke-width:0.238;stroke-miterlimit:4;stroke-dasharray:none"
       id="path3466-4"
       cx="87.825981"
       cy="79.764008"
       r="2.4533167" />
    <circle
       style="fill:#ffffff;stroke-width:0.238;stroke-miterlimit:4;stroke-dasharray:none"
       id="path3468-5"
       cx="76.862717"
       cy="73.400726"
       r="4.2166381" />
    <circle
       style="fill:#ffffff;stroke-width:0.238;stroke-miterlimit:4;stroke-dasharray:none"
       id="path3470-12"
       cx="96.029259"
       cy="86.740631"
       r="1.3033243" />
    <circle
       style="fill:#ffffff;stroke-width:0.238;stroke-miterlimit:4;stroke-dasharray:none"
       id="path3466-1"
       cx="88.28598"
       cy="40.510944"
       r="2.4533167" />
    <circle
       style="fill:#ffffff;stroke-width:0.238;stroke-miterlimit:4;stroke-dasharray:none"
       id="path3468-8"
       cx="76.096062"
       cy="49.940884"
       r="4.2166381" />
    <circle
       style="fill:#ffffff;stroke-width:0.238;stroke-miterlimit:4;stroke-dasharray:none"
       id="path3470-5"
       cx="96.182594"
       cy="34.147659"
       r="1.3033243" />
    <circle
       style="fill:#ffffff;stroke-width:0.238;stroke-miterlimit:4;stroke-dasharray:none"
       id="path3466-8"
       cx="27.106398"
       cy="59.677486"
       r="2.4533167" />
    <circle
       style="fill:#ffffff;stroke-width:0.238;stroke-miterlimit:4;stroke-dasharray:none"
       id="path3468-9"
       cx="40.522972"
       cy="59.90749"
       r="4.2166381" />
    <circle
       style="fill:#ffffff;stroke-width:0.238;stroke-miterlimit:4;stroke-dasharray:none"
       id="path3470-4"
       cx="17.216463"
       cy="59.75415"
       r="1.3033243" />
  </g>
</svg>
