<?xml version="1.0" encoding="UTF-8" standalone="no"?>
<!-- Created with Inkscape (http://www.inkscape.org/) -->

<svg
   width="105.03123mm"
   height="110.91075mm"
   viewBox="0 0 105.03123 110.91075"
   version="1.1"
   id="svg8"
   inkscape:version="1.1.2 (b8e25be833, 2022-02-05)"
   sodipodi:docname="FlowerChild.svg"
   xmlns:inkscape="http://www.inkscape.org/namespaces/inkscape"
   xmlns:sodipodi="http://sodipodi.sourceforge.net/DTD/sodipodi-0.dtd"
   xmlns="http://www.w3.org/2000/svg"
   xmlns:svg="http://www.w3.org/2000/svg"
   xmlns:rdf="http://www.w3.org/1999/02/22-rdf-syntax-ns#"
   xmlns:cc="http://creativecommons.org/ns#"
   xmlns:dc="http://purl.org/dc/elements/1.1/">
  <defs
     id="defs2" />
  <sodipodi:namedview
     id="base"
     pagecolor="#ffffff"
     bordercolor="#666666"
     borderopacity="1.0"
     inkscape:pageopacity="0.0"
     inkscape:pageshadow="2"
     inkscape:zoom="1.979899"
     inkscape:cx="197.73736"
     inkscape:cy="216.67772"
     inkscape:document-units="mm"
     inkscape:current-layer="layer1"
     showgrid="false"
     inkscape:window-width="1920"
     inkscape:window-height="1017"
     inkscape:window-x="-8"
     inkscape:window-y="-8"
     inkscape:window-maximized="1"
     inkscape:pagecheckerboard="0" />
  <metadata
     id="metadata5">
    <rdf:RDF>
      <cc:Work
         rdf:about="">
        <dc:format>image/svg+xml</dc:format>
        <dc:type
           rdf:resource="http://purl.org/dc/dcmitype/StillImage" />
      </cc:Work>
    </rdf:RDF>
  </metadata>
  <g
     inkscape:label="Layer 1"
     inkscape:groupmode="layer"
     id="layer1"
     transform="translate(-3.2632255,-3.3278717)">
    <circle
       style="fill:#ffffff;stroke-width:0.238;fill-opacity:1"
       id="path863"
       cx="52.507633"
       cy="86.114609"
       r="3.2740517" />
    <ellipse
       style="fill:#ffffff;stroke-width:0.198005;fill-opacity:1"
       id="path865"
       cx="23.996502"
       cy="75.984772"
       rx="2.9674094"
       ry="2.9389589" />
    <ellipse
       style="fill:#ffffff;stroke-width:0.238;fill-opacity:1"
       id="path859"
       cx="65.250702"
       cy="59.102776"
       rx="3.188175"
       ry="2.8555379" />
    <ellipse
       style="fill:#ffffff;fill-opacity:1;stroke-width:0.212574"
       id="path861"
       cx="87.819138"
       cy="53.951469"
       rx="3.162637"
       ry="3.1019423" />
    <circle
       style="fill:#ffffff;stroke-width:0.238;fill-opacity:1"
       id="path857"
       cx="65.202942"
       cy="33.729778"
       r="2.3386083" />
    <circle
       style="fill:#ffffff;stroke-width:0.238;fill-opacity:1"
       id="path853"
       cx="33.197411"
       cy="45.957359"
       r="4.543582" />
    <path
       style="fill:#008000;fill-opacity:1;stroke:none;stroke-width:0.05467264;stroke-opacity:1"
       d="m 24.471519,66.20627 c -0.02668,-0.0039 -0.05397,-0.0065 -0.08188,-0.008 -1.786177,-0.09358 -1.57335,5.129944 -1.57335,5.129944 0,0 -1.930462,-4.858462 -3.52413,-4.046419 -1.593667,0.812042 1.202396,5.229472 1.202396,5.229472 0,0 -4.100953,-3.242411 -5.075089,-1.742327 -0.974135,1.500084 3.655994,3.927635 3.655994,3.927635 0,0 -5.172765,-0.757488 -5.26635,1.028692 -0.09358,1.786179 5.130048,1.573366 5.130048,1.573366 0,0 -4.858567,1.930446 -4.046525,3.524118 0.812041,1.593672 5.229471,-1.202401 5.229471,-1.202401 0,0 -3.242411,4.100953 -1.742329,5.075091 1.500085,0.97413 3.927634,-3.655994 3.927634,-3.655994 0,0 -0.75749,5.172767 1.02869,5.266353 1.786177,0.09359 1.573474,-5.130033 1.573474,-5.130033 0,0 1.930337,4.858554 3.524004,4.046508 1.593669,-0.812047 -1.202395,-5.229473 -1.202395,-5.229473 0,0 4.10106,3.242432 5.075195,1.742346 0.974136,-1.500083 -3.655993,-3.927633 -3.655993,-3.927633 0,0 5.172764,0.757485 5.26635,-1.028693 0.09358,-1.786179 -5.130029,-1.573475 -5.130029,-1.573475 0,0 4.858442,-1.930358 4.0464,-3.524027 -0.812042,-1.593668 -5.22947,1.202398 -5.22947,1.202398 0,0 3.242428,-4.101063 1.742347,-5.075198 -1.500083,-0.974138 -3.927653,3.656102 -3.927653,3.656102 0,0 0.73401,-5.012479 -0.946804,-5.258383 z m -0.210113,7.776134 a 2.1052594,2.1052608 9.9579999 0 1 1.709471,2.437576 2.1052594,2.1052608 9.9579999 0 1 -2.437574,1.709473 2.1052594,2.1052608 9.9579999 0 1 -1.709472,-2.437575 2.1052594,2.1052608 9.9579999 0 1 2.437575,-1.709474 z"
       id="path822-8-7"
       inkscape:connector-curvature="0" />
    <path
       style="fill:#008000;fill-opacity:1;stroke:none;stroke-width:0.05467264;stroke-opacity:1"
       d="m 86.414166,43.951774 c -0.02695,8e-4 -0.05429,0.0029 -0.08203,0.0063 -1.775451,0.216702 -0.662545,5.324734 -0.662545,5.324734 0,0 -2.741535,-4.451441 -4.17077,-3.376045 -1.429235,1.075396 2.088595,4.942763 2.088595,4.942763 0,0 -4.59987,-2.484401 -5.299926,-0.838462 -0.700056,1.645938 4.280107,3.236247 4.280107,3.236247 0,0 -5.225826,0.14843 -5.009124,1.923884 0.216702,1.775454 5.324839,0.662544 5.324839,0.662544 0,0 -4.451547,2.741537 -3.376151,4.170776 1.075395,1.42924 4.942761,-2.088599 4.942761,-2.088599 0,0 -2.4844,4.599869 -0.838463,5.299928 1.645938,0.70005 3.236245,-4.280107 3.236245,-4.280107 0,0 0.148429,5.225828 1.923883,5.009127 1.775452,-0.216699 0.662652,-5.324843 0.662652,-5.324843 0,0 2.741428,4.451553 4.170662,3.376154 1.429236,-1.0754 -2.088594,-4.942764 -2.088594,-4.942764 0,0 4.599978,2.484403 5.300034,0.838463 0.700056,-1.645938 -4.280106,-3.236246 -4.280106,-3.236246 0,0 5.225824,-0.148433 5.009123,-1.923885 -0.216704,-1.775453 -5.324839,-0.662654 -5.324839,-0.662654 0,0 4.451439,-2.741429 3.376044,-4.170665 -1.075396,-1.429236 -4.942761,2.088596 -4.942761,2.088596 0,0 2.484399,-4.599981 0.838463,-5.300037 -1.645938,-0.700058 -3.236246,4.280217 -3.236246,4.280217 0,0 -0.143837,-5.063895 -1.841852,-5.015437 z m 1.137749,7.695319 a 2.1052594,2.1052608 0 0 1 2.105239,2.105241 2.1052594,2.1052608 0 0 1 -2.105239,2.10524 2.1052594,2.1052608 0 0 1 -2.105239,-2.10524 2.1052594,2.1052608 0 0 1 2.105239,-2.105241 z"
       id="path822-8-7-1"
       inkscape:connector-curvature="0" />
    <path
       style="fill:#008000;fill-opacity:1;stroke:none;stroke-width:0.78070074;stroke-opacity:1"
       d="M 160.81641 250.62109 C 159.40655 250.53425 158.04244 250.72955 156.75 251.26758 C 142.96396 257.00656 151.00195 295.95508 151.00195 295.95508 C 151.00195 295.95508 112.93851 306.50044 114.1543 321.48242 C 115.37008 336.46441 154.65234 340.95312 154.65234 340.95312 C 154.65234 340.95312 152.99966 380.65928 167.53711 384.17969 C 182.07454 387.70009 198.31445 351.52539 198.31445 351.52539 C 198.31445 351.52539 235.3542 365.5211 243.12305 352.71484 C 250.8919 339.90858 221.64844 313.0625 221.64844 313.0625 C 221.64844 313.0625 246.19306 282.00542 236.45703 270.57031 C 226.721 259.13521 192.40625 278.71875 192.40625 278.71875 C 192.40625 278.71875 174.44504 251.46057 160.81641 250.62109 z M 184.35352 309.08398 A 7.0710678 6.5659913 0 0 1 191.42383 315.65039 A 7.0710678 6.5659913 0 0 1 184.35352 322.21484 A 7.0710678 6.5659913 0 0 1 177.28125 315.65039 A 7.0710678 6.5659913 0 0 1 184.35352 309.08398 z "
       id="path852"
       transform="matrix(0.26458333,0,0,0.26458333,3.2632255,3.3278717)" />
    <path
       style="fill:#008000;fill-opacity:1;stroke:none;stroke-width:0.87226462;stroke-opacity:1"
       d="m 286.55273,249.45703 c -1.76929,-0.0703 -3.57295,0.23735 -5.41601,1.00586 -14.74449,6.14805 -8.17676,55.26107 -10.22464,71.1042 -2.04788,15.84312 -14.73954,14.11477 -2.04294,23.80986 12.69661,9.69508 7.83219,0.4207 22.57667,-5.72734 14.7445,-6.14805 63.70748,-15.26156 65.75536,-31.10469 1.56769,-12.12821 -13.16461,-18.25705 -25.85937,-24.8125 5.23358,-5.07849 6.70195,-7.44189 5.16211,-9.09375 -1.50836,-1.61808 -4.43496,5.39686 -7.12696,8.06836 -1.03759,-0.55229 -2.05198,-1.11107 -3.03711,-1.67773 7.355,-16.10537 7.83349,-22.18334 -0.0605,-23.46289 -6.79416,-1.10128 -3.78392,11.85301 -5.83203,19.58007 -1.46825,-1.14851 -2.93044,-2.46964 -4.39063,-3.9082 0.82544,-3.69367 2.47791,-8.05912 0.71875,-8.07226 -1.75861,-0.013 -2.59549,1.61629 -2.97851,5.76171 -8.71738,-9.17176 -17.46282,-21.0822 -27.24415,-21.4707 z"
       transform="matrix(0.26458333,0,0,0.26458333,3.2632255,3.3278717)"
       id="path854"
       inkscape:connector-curvature="0"
       sodipodi:nodetypes="ccsssscccccccccc" />
    <path
       style="fill:#008000;fill-opacity:1;stroke:none;stroke-width:1.03003645;stroke-opacity:1"
       d="M 113.75391 90.685547 C 102.72179 90.800656 107.85547 124.29492 107.85547 124.29492 C 107.85547 124.29492 102.34304 90.865596 91.869141 94.490234 C 81.395242 98.114877 96.320312 128.28516 96.320312 128.28516 C 96.320312 128.28516 81.05253 98.298752 72.162109 105.07812 C 63.271685 111.8575 86.53125 135.75195 86.53125 135.75195 C 86.53125 135.75195 62.99919 112.14162 56.5625 121.41211 C 50.12581 130.68261 79.441406 145.96094 79.441406 145.96094 C 79.441406 145.96094 49.952504 131.03843 46.599609 141.89258 C 43.246715 152.74673 75.75 157.91211 75.75 157.91211 C 75.75 157.91211 43.188935 153.14029 43.248047 164.51562 C 43.307162 175.89096 75.814453 170.43945 75.814453 170.43945 C 75.814453 170.43945 43.370606 176.28339 46.835938 187.06641 C 50.301265 197.84942 79.630859 182.31445 79.630859 182.31445 C 79.630859 182.31445 50.477431 198.20076 57.009766 207.33594 C 63.542101 216.47112 86.824219 192.37305 86.824219 192.37305 C 86.824219 192.37305 63.815476 216.75062 72.775391 223.34375 C 81.735301 229.93689 96.691406 199.63477 96.691406 199.63477 C 96.691406 199.63477 82.07942 230.11383 92.589844 233.51953 C 103.10028 236.92523 108.26562 203.38477 108.26562 203.38477 C 108.26563 203.38477 103.48156 236.98231 114.51367 236.86719 C 125.54578 236.75209 120.41406 203.25781 120.41406 203.25781 C 120.41406 203.25781 125.9265 236.68714 136.40039 233.0625 C 146.87429 229.43786 131.94922 199.26562 131.94922 199.26562 C 131.94922 199.26562 147.217 229.25399 156.10742 222.47461 C 164.99784 215.69524 141.73828 191.80078 141.73828 191.80078 C 141.73828 191.80078 165.26838 215.41112 171.70508 206.14062 C 178.14176 196.87013 148.82617 181.5918 148.82617 181.5918 C 148.82617 181.5918 178.31508 196.51431 181.66797 185.66016 C 185.02087 174.806 152.51953 169.63867 152.51953 169.63867 C 152.51953 169.63867 185.0806 174.41244 185.02148 163.03711 C 184.96237 151.66178 152.45312 157.11328 152.45312 157.11328 C 152.45312 157.11328 184.89892 151.26934 181.43359 140.48633 C 177.96827 129.70331 148.63867 145.23828 148.63867 145.23828 C 148.63867 145.23828 177.7921 129.35003 171.25977 120.21484 C 164.72743 111.07966 141.44531 135.17773 141.44531 135.17773 C 141.44531 135.17773 164.4521 110.80212 155.49219 104.20898 C 146.53228 97.615848 131.57812 127.91797 131.57812 127.91797 C 131.57812 127.91797 146.18816 97.438905 135.67773 94.033203 C 125.1673 90.627494 120.00391 124.16797 120.00391 124.16797 C 120.00391 124.16797 124.78602 90.57046 113.75391 90.685547 z M 113.64258 147.45898 A 13.637059 14.142136 0 0 1 127.2793 161.60156 A 13.637059 14.142136 0 0 1 113.64258 175.74414 A 13.637059 14.142136 0 0 1 100.00586 161.60156 A 13.637059 14.142136 0 0 1 113.64258 147.45898 z "
       transform="matrix(0.26458333,0,0,0.26458333,3.2632255,3.3278717)"
       id="path856" />
    <path
       inkscape:connector-curvature="0"
       style="fill:#008000;fill-opacity:1;stroke:none;stroke-width:0.12158159;stroke-opacity:1"
       d="m 69.001282,49.055525 c -0.152253,-0.158774 -0.329048,-0.280424 -0.533821,-0.355263 -2.184251,-0.798288 -5.375659,4.50958 -5.375659,4.50958 0,0 -5.471229,-2.810897 -6.91364,-0.967226 -1.442414,1.843674 2.581253,6.504528 2.581253,6.504528 0,0 -4.380902,4.371593 -3.088113,6.309336 1.292788,1.937741 6.971012,-0.489588 6.971012,-0.489588 0,0 2.763285,5.5126 5.004685,4.866516 2.241402,-0.646083 1.727316,-6.80692 1.727316,-6.80692 0,0 6.088796,-0.964692 6.181269,-3.301735 0.09247,-2.337043 -5.903699,-3.717397 -5.903699,-3.717397 0,0 0.821154,-5.016979 -0.650603,-6.551834 z m -3.476958,9.178322 a 1.1012052,1.0225477 42.677504 0 1 0.116299,1.4982 1.1012052,1.0225477 42.677504 0 1 -1.502491,0.0052 1.1012052,1.0225477 42.677504 0 1 -0.11673,-1.498184 1.1012052,1.0225477 42.677504 0 1 1.502922,-0.0052 z"
       id="path852-0" />
    <path
       inkscape:connector-curvature="0"
       style="fill:#008000;fill-opacity:1;stroke:none;stroke-width:0.14450987;stroke-opacity:1"
       d="m 65.513962,21.227724 c -0.243966,-0.103613 -0.49833,-0.156337 -0.76248,-0.146226 -2.817593,0.107841 -3.948316,7.241544 -3.948316,7.241544 0,0 -7.431852,-0.604079 -8.199023,2.021762 -0.767172,2.625844 5.894632,5.864821 5.894632,5.864821 0,0 -2.896445,6.652006 -0.55299,8.167033 2.343454,1.515024 7.591445,-3.616938 7.591445,-3.616938 0,0 5.641262,4.715324 7.856768,3.025817 2.215507,-1.689508 -1.202497,-8.100117 -1.202497,-8.100117 0,0 6.383004,-3.737894 5.408808,-6.297092 -0.974199,-2.559196 -8.334919,-1.389192 -8.334919,-1.389192 0,0 -1.393102,-5.769825 -3.751429,-6.771416 z m 0.3342,11.430756 a 1.3309665,1.1952095 13.314057 0 1 0.821419,1.562804 1.3309665,1.1952095 13.314057 0 1 -1.682486,0.671472 1.3309665,1.1952095 13.314057 0 1 -0.821896,-1.562594 1.3309665,1.1952095 13.314057 0 1 1.68297,-0.671664 z"
       id="path852-0-6" />
  </g>
</svg>
