<?xml version="1.0" encoding="UTF-8" standalone="no"?>
<!-- Created with Inkscape (http://www.inkscape.org/) -->

<svg
   width="105.03123mm"
   height="110.91075mm"
   viewBox="0 0 105.03123 110.91075"
   version="1.1"
   id="svg8"
   inkscape:version="1.1.2 (b8e25be833, 2022-02-05)"
   sodipodi:docname="KingFisher.svg"
   xmlns:inkscape="http://www.inkscape.org/namespaces/inkscape"
   xmlns:sodipodi="http://sodipodi.sourceforge.net/DTD/sodipodi-0.dtd"
   xmlns="http://www.w3.org/2000/svg"
   xmlns:svg="http://www.w3.org/2000/svg"
   xmlns:rdf="http://www.w3.org/1999/02/22-rdf-syntax-ns#"
   xmlns:cc="http://creativecommons.org/ns#"
   xmlns:dc="http://purl.org/dc/elements/1.1/">
  <defs
     id="defs2" />
  <sodipodi:namedview
     id="base"
     pagecolor="#ffffff"
     bordercolor="#666666"
     borderopacity="1.0"
     inkscape:pageopacity="0.0"
     inkscape:pageshadow="2"
     inkscape:zoom="1.4"
     inkscape:cx="180.35714"
     inkscape:cy="231.42857"
     inkscape:document-units="mm"
     inkscape:current-layer="layer1"
     showgrid="false"
     inkscape:window-width="1920"
     inkscape:window-height="1017"
     inkscape:window-x="-8"
     inkscape:window-y="-8"
     inkscape:window-maximized="1"
     inkscape:pagecheckerboard="0" />
  <metadata
     id="metadata5">
    <rdf:RDF>
      <cc:Work
         rdf:about="">
        <dc:format>image/svg+xml</dc:format>
        <dc:type
           rdf:resource="http://purl.org/dc/dcmitype/StillImage" />
      </cc:Work>
    </rdf:RDF>
  </metadata>
  <g
     inkscape:label="Layer 1"
     inkscape:groupmode="layer"
     id="layer1"
     transform="translate(-3.2632255,-3.3278717)">
    <path
       style="fill:#008000;stroke:none;stroke-width:0.293798px;stroke-linecap:butt;stroke-linejoin:miter;stroke-opacity:1"
       d="m 31.519379,74.133245 c 4.152659,3.687466 -0.657731,16.440643 3.494929,20.128112 4.812725,4.273589 2.158122,-11.347064 4.646968,-9.137024 0.771066,0.684693 2.82215,16.794317 7.739029,11.821122 3.741506,-3.784366 -9.675016,-19.834544 -13.521096,-30.856688 -1.06701,-3.057846 -2.294236,-5.177234 -1.508248,-10.602977 0.321608,-2.220084 0.405806,-10.450776 2.507134,-15.864866 1.118917,-2.882898 2.485588,2.432095 5.869614,-0.197016 2.892023,-2.246865 -3.358265,-5.621183 -3.537446,-10.075557 -0.166124,-4.129881 3.116405,-25.8213046 -6.738933,-18.217133 -4.598557,3.54815 -8.189943,7.87199 -10.698225,12.663617 -0.456128,0.871351 -6.371674,-1.189397 -5.25128,1.914463 1.415882,3.922452 3.314635,2.413111 3.022992,3.263453 -4.974915,14.505392 -0.905667,31.947188 13.974562,45.160494 z"
       id="path833"
       inkscape:connector-curvature="0"
       sodipodi:nodetypes="ssccssssssssss" />
    <path
       style="fill:#008000;stroke:none;stroke-width:0.289175px;stroke-linecap:butt;stroke-linejoin:miter;stroke-opacity:1"
       d="m 81.713665,84.361487 c -2.804492,5.653685 4.72742,13.100263 -2.802378,19.593653 -4.807222,4.14554 -2.546357,-10.922508 -4.958049,-8.708299 -4.557892,6.423839 0.194509,12.706949 -7.329291,11.677039 -8.747122,1.48555 3.196963,-15.015621 8.339501,-25.522888 1.392916,-2.846016 6.230951,-9.83963 5.259192,-15.069705 -0.397621,-2.140022 -1.321225,-9.928085 -3.050216,-15.286493 -1.52211,-4.717257 -6.747483,-0.0382 -7.39756,-4.913679 -0.290517,-2.178834 4.687888,-0.64488 4.714121,-4.963231 0.02432,-4.003768 -4.000823,-24.908743 6.110241,-17.840172 4.717881,3.298235 8.45574,7.377616 11.127122,11.942277 0.485787,0.830075 2.97405,-1.761736 5.314199,1.696908 2.30826,3.411513 -3.230076,2.435492 -2.909407,3.250138 5.470041,13.896483 -3.965861,27.106517 -12.417475,44.144452 z"
       id="path833-9"
       inkscape:connector-curvature="0"
       sodipodi:nodetypes="ssccssssssssss" />
    <path
       style="fill:#008000;stroke:none;stroke-width:0.148732px;stroke-linecap:butt;stroke-linejoin:miter;stroke-opacity:1"
       d="m 67.061783,62.316366 c -2.26341,-1.47268 -5.148002,7.011531 -6.042396,8.674354 -1.122525,2.086957 -4.519715,2.18391 -3.843782,3.960238 0.790902,2.078566 2.610714,-0.131915 2.398507,1.518447 0,0 -0.100749,1.517802 -0.182731,2.274025 -0.73896,6.8162 -3.774815,12.414642 -2.785162,20.38608 0.448635,3.61365 -4.230428,4.49544 -4.907576,7.61069 -0.716025,3.29411 4.863074,-2.03054 5.279445,-0.33661 0.128991,0.5248 -1.04272,6.4874 2.0143,2.85221 2.368001,-2.81584 -0.680387,-7.06949 0.679263,-13.191087 0.344565,-1.55135 1.944617,-7.215178 3.834252,-9.753964 2.235713,-3.003755 5.175083,-6.97947 5.792037,-10.728319 0.07858,-0.477465 0.514459,0.705106 2.026929,-0.827377 1.196866,-1.212656 -1.751679,-1.662404 -1.736666,-2.189825 0.08255,-2.900328 -0.39592,-5.839624 -1.476479,-8.652395 -0.325659,-0.84771 -0.679597,-1.355436 -1.049972,-1.596419 z"
       id="path833-2"
       inkscape:connector-curvature="0"
       sodipodi:nodetypes="csccasscssscccscc" />
    <path
       style="fill:#008000;stroke:none;stroke-width:0.121546px;stroke-linecap:butt;stroke-linejoin:miter;stroke-opacity:1"
       d="m 46.285479,70.676575 c 1.664741,1.577683 -3.096661,6.211846 -1.431922,7.78953 1.929351,1.828459 2.178555,-2.569106 3.727917,-3.140995 1.415457,-0.522464 5.428604,3.431097 4.556494,-0.06942 -0.849832,-3.411108 -4.328669,-3.268742 -5.762514,-7.875344 -0.397788,-1.277998 -0.875148,-2.169994 -0.473121,-4.40347 0.1645,-0.913885 0.316162,-4.316132 1.261904,-6.528018 0.50359,-1.177787 1.602959,-0.407238 3.03955,-1.451177 1.227724,-0.892179 -1.918529,-0.922543 -1.929383,-2.766674 -0.01005,-1.709788 1.655181,-10.637151 -2.527869,-7.618553 -1.951836,1.408494 -3.498226,3.150573 -4.603404,5.099887 -0.200975,0.35448 -3.837182,-0.284131 -3.417971,1.013573 0.52977,1.639954 1.963978,2.607086 1.965792,2.976995 0.02343,4.778757 0.47434,9.579545 2.393511,12.351044 z"
       id="path833-3"
       inkscape:connector-curvature="0"
       sodipodi:nodetypes="csasssssssssssc" />
    <path
       style="fill:#008000;stroke:none;stroke-width:0.159005px;stroke-linecap:butt;stroke-linejoin:miter;stroke-opacity:1"
       d="m 61.552031,44.016502 c -1.619117,2.483291 2.717396,8.621819 1.098279,11.105112 -1.876476,2.878015 -2.758699,-5.732868 -3.729098,-4.244536 -0.300636,0.4611 0.965049,9.253787 -2.302045,7.248628 -2.486101,-1.525832 2.14703,-11.739396 2.547022,-18.067469 0.110959,-1.755582 0.440624,-3.03469 -0.75102,-5.807364 -0.487592,-1.134512 -1.72099,-5.482177 -3.592635,-8.080596 -0.996615,-1.383607 -0.936611,1.605502 -3.070475,0.645629 -1.8236,-0.820218 0.927896,-3.405738 0.37687,-5.787375 -0.510895,-2.208136 -5.347617,-13.2750027 0.859184,-10.507729 2.896125,1.291229 5.382408,3.121912 7.374982,5.338713 0.362346,0.40312 3.130239,-1.444045 2.998254,0.342723 -0.166794,2.258002 -1.369015,1.701392 -1.094951,2.114408 4.675067,7.045357 5.087392,16.801367 -0.714393,25.699756 z"
       id="path833-7"
       inkscape:connector-curvature="0"
       sodipodi:nodetypes="ssccssssssssss" />
  </g>
</svg>
