<?xml version="1.0" encoding="UTF-8" standalone="no"?>
<!-- Created with Inkscape (http://www.inkscape.org/) -->

<svg
   width="105.03123mm"
   height="110.91075mm"
   viewBox="0 0 105.03123 110.91075"
   version="1.1"
   id="svg8"
   inkscape:version="1.1.2 (b8e25be833, 2022-02-05)"
   sodipodi:docname="LichenMoss.svg"
   xmlns:inkscape="http://www.inkscape.org/namespaces/inkscape"
   xmlns:sodipodi="http://sodipodi.sourceforge.net/DTD/sodipodi-0.dtd"
   xmlns="http://www.w3.org/2000/svg"
   xmlns:svg="http://www.w3.org/2000/svg"
   xmlns:rdf="http://www.w3.org/1999/02/22-rdf-syntax-ns#"
   xmlns:cc="http://creativecommons.org/ns#"
   xmlns:dc="http://purl.org/dc/elements/1.1/">
  <defs
     id="defs2" />
  <sodipodi:namedview
     id="base"
     pagecolor="#ffffff"
     bordercolor="#666666"
     borderopacity="1.0"
     inkscape:pageopacity="0.0"
     inkscape:pageshadow="2"
     inkscape:zoom="1.4"
     inkscape:cx="140.35714"
     inkscape:cy="214.28571"
     inkscape:document-units="mm"
     inkscape:current-layer="layer1"
     showgrid="false"
     inkscape:window-width="1920"
     inkscape:window-height="1017"
     inkscape:window-x="-8"
     inkscape:window-y="-8"
     inkscape:window-maximized="1"
     inkscape:pagecheckerboard="0" />
  <metadata
     id="metadata5">
    <rdf:RDF>
      <cc:Work
         rdf:about="">
        <dc:format>image/svg+xml</dc:format>
        <dc:type
           rdf:resource="http://purl.org/dc/dcmitype/StillImage" />
      </cc:Work>
    </rdf:RDF>
  </metadata>
  <g
     inkscape:label="Layer 1"
     inkscape:groupmode="layer"
     id="layer1"
     transform="translate(-3.2632255,-3.3278717)">
    <path
       style="fill:#008000;fill-opacity:1;stroke:none;stroke-width:0.255743;stroke-opacity:1"
       d="m 74.546603,43.803298 c 0.492085,-8.098451 0.564811,-16.406007 3.200293,-24.172419 3.363912,-3.722885 10.329016,2.457048 13.780756,-3.030015 C 97.132937,12.755629 92.679628,5.3040537 86.565718,6.5292951 81.085871,6.053755 77.586865,10.892256 76.240962,15.532538 67.504254,31.348994 70.571939,88.522607 74.546603,43.803298 Z m -3.348176,10.639959 c -6.599139,-2.766917 -1.201283,-9.085865 -5.588763,-11.952444 -3.556386,6.833032 -5.191822,5.655138 -6.666577,9.54309 -0.636272,1.768777 -1.425812,5.982891 -0.875247,1.642492 1.707447,-14.261012 -2.303221,-30.55858 -14.627511,-39.334759 -4.311414,-3.224244 -11.998885,-4.9434815 -15.402938,0.404241 -2.651716,4.388484 -2.968394,13.089507 3.726677,13.783335 3.973887,1.390868 12.573956,-5.920352 5.52991,-7.384428 -5.562703,-2.929846 1.460013,-7.511424 4.783349,-3.949768 5.090163,3.764286 8.024259,9.751199 10.573812,15.372256 3.805487,8.645311 2.713411,18.233089 1.355972,27.27164 -4.170121,-1.847539 0.677384,-7.418728 -3.402684,-10.860789 -3.313756,8.128535 -8.644205,-15.790079 -10.053369,-0.982125 1.325188,4.121738 5.023746,7.306482 -0.863689,9.194615 -3.215469,0.167591 -6.036419,-10.113278 -6.306616,-4.81892 -0.587231,11.506454 -11.211597,0.594814 -15.815205,3.516161 -4.49821,2.854464 16.609988,7.585778 5.353266,9.518074 -13.1302746,-2.278653 11.285225,9.459023 3.914669,9.365944 -6.731572,0.360704 -6.359959,-4.191034 -13.060391,-2.936224 -5.2073262,3.697441 -3.757405,6.002324 0.755189,3.97335 4.728933,-2.126245 7.000954,1.087892 3.324591,4.907949 -0.686658,0.713497 7.094455,1.475158 6.42621,2.602034 -1.110005,1.350534 -3.429616,4.396537 -7.494831,1.582697 -7.7273143,-5.348657 -14.9196912,17.110552 -7.2713237,8.882472 1.5975797,-1.71867 5.0679307,1.913936 4.6157937,3.896405 0.796819,8.901835 3.973924,-2.457596 8.209849,-3.368941 1.665564,-0.991942 6.494752,-2.387735 5.991155,2.6792 -0.329301,3.313226 7.46207,-3.084387 5.777718,0.970158 -2.902689,4.355078 -11.768873,-3.649358 -12.572762,7.304748 12.561913,-2.73449 4.813971,7.69367 11.765014,4.20208 12.485378,-1.61719 25.366806,0.93813 37.648682,-2.23141 3.676616,-0.80879 6.211054,-4.724 4.619045,-8.274946 2.905008,11.076906 6.248284,13.049406 21.056777,6.635006 6.655591,-2.83882 1.549029,-6.254092 1.109282,-4.47864 -1.109282,4.47864 -4.59338,0.41992 -5.690999,-1.189854 5.690999,1.189854 1.37855,-3.303007 7.208152,-2.420101 6.708436,1.016009 -9.445553,-7.44882 -6.278085,-7.184357 5.909501,-0.93193 5.234063,4.029712 10.956751,2.137038 -7.919876,-5.817078 -1.11448,-8.677094 -4.656418,-9.033962 -3.86437,-0.01173 -6.300333,6.896924 -4.866039,-0.09549 -4.762481,-2.946061 1.727123,-2.317014 6.839907,-4.014795 10.97483,-3.644369 -6.200001,-2.368682 -7.429217,-3.314428 -4.449467,-3.423374 2.565603,-10.561524 0.08396,-8.653252 -2.00791,0.490162 -3.842982,1.656359 -5.530334,2.412465 -2.246098,1.00648 5.530334,-2.412465 4.4253,-10.854196 -3.691911,4.60812 -9.856752,4.981785 -9.374394,2.393432 0.872687,-4.682859 1.586268,-9.521524 -0.996159,-9.281924 -4.551383,6.466489 -8.917076,7.294313 -11.227485,2.424877 z"
       id="path826"
       inkscape:connector-curvature="0"
       sodipodi:nodetypes="ccccccccccccccccccccsscccsscssccsccccccscsccccsscscsccc" />
  </g>
</svg>
