<?xml version="1.0" encoding="UTF-8" standalone="no"?>
<!-- Created with Inkscape (http://www.inkscape.org/) -->

<svg
   xmlns:dc="http://purl.org/dc/elements/1.1/"
   xmlns:cc="http://creativecommons.org/ns#"
   xmlns:rdf="http://www.w3.org/1999/02/22-rdf-syntax-ns#"
   xmlns:svg="http://www.w3.org/2000/svg"
   xmlns="http://www.w3.org/2000/svg"
   xmlns:sodipodi="http://sodipodi.sourceforge.net/DTD/sodipodi-0.dtd"
   xmlns:inkscape="http://www.inkscape.org/namespaces/inkscape"
   width="105.03123mm"
   height="110.91075mm"
   viewBox="0 0 105.03123 110.91075"
   version="1.1"
   id="svg8"
   inkscape:version="0.92.2 (5c3e80d, 2017-08-06)"
   sodipodi:docname="NotABug.svg">
  <defs
     id="defs2" />
  <sodipodi:namedview
     id="base"
     pagecolor="#ffffff"
     bordercolor="#666666"
     borderopacity="1.0"
     inkscape:pageopacity="0.0"
     inkscape:pageshadow="2"
     inkscape:zoom="1.4"
     inkscape:cx="217.35312"
     inkscape:cy="163.64044"
     inkscape:document-units="mm"
     inkscape:current-layer="layer1"
     showgrid="false"
     inkscape:window-width="1280"
     inkscape:window-height="1001"
     inkscape:window-x="1672"
     inkscape:window-y="-8"
     inkscape:window-maximized="1" />
  <metadata
     id="metadata5">
    <rdf:RDF>
      <cc:Work
         rdf:about="">
        <dc:format>image/svg+xml</dc:format>
        <dc:type
           rdf:resource="http://purl.org/dc/dcmitype/StillImage" />
        <dc:title />
      </cc:Work>
    </rdf:RDF>
  </metadata>
  <g
     inkscape:label="Layer 1"
     inkscape:groupmode="layer"
     id="layer1"
     transform="translate(-3.2632255,-3.3278717)">
    <path
       style="fill:#008000;fill-opacity:1;stroke:none;stroke-width:0.32420617;stroke-opacity:1"
       d="M 48.934589,4.9374081 C 39.985197,4.9775942 31.498838,6.4858117 25.293228,10.180589 7.0546004,21.039742 4.9557872,51.117652 5.7267805,66.079606 c 0.2286324,4.43687 -0.1028553,8.259663 3.9809747,8.422747 3.0540038,0.121958 3.2343268,-2.421567 3.5474078,-7.030495 1.877922,0.215989 2.908315,0.15731 5.363565,-1.304529 -1.03951,0.3064 -1.784235,0.384336 -2.864542,0.587815 -0.781381,0.147175 -1.59218,0.220334 -2.458677,0.152773 0.08443,-1.226552 0.185263,-2.569686 0.299883,-3.986395 1.275485,0.176426 4.453701,-0.254803 5.228679,-1.077758 l -5.186527,0.554394 c 0.107374,-1.294256 0.228168,-2.635541 0.370939,-4.044876 2.653365,-0.06997 4.36858,-0.636487 5.836273,-2.007517 l -2.901276,0.902906 -2.757356,0.478605 c 0.153364,-1.482551 0.193015,-2.803986 0.396231,-4.371904 2.872869,-0.589678 5.761825,-1.511228 5.779065,-2.149549 l -5.6779,1.373755 c 0.273391,-2.031254 0.593947,-4.11079 0.972512,-6.202183 3.334913,-0.233909 3.890114,-0.02904 5.997655,-1.408963 l -5.79954,0.861133 c 0.272986,-1.48184 0.44811,-2.789084 0.784031,-4.264485 2.555867,-0.04143 3.951032,10e-4 6.352335,-1.428658 l -3.078314,0.623619 -3.15178,0.119355 c 0.420256,-1.841076 0.783487,-3.030889 1.315751,-4.811721 2.662489,0.282754 3.823385,0.261188 6.000065,-1.034792 l -2.950052,0.485769 -2.830821,-0.180225 c 0.417621,-1.345743 0.867564,-2.665669 1.359107,-3.944022 2.980489,-0.08906 3.863372,0.427092 6.001269,-0.517396 l -5.71343,-0.303753 c 0.542843,-1.410036 0.854246,-1.970608 1.495801,-3.26729 1.961572,0.466785 4.135908,0.399492 5.615275,-0.263771 l -5.266617,-0.402817 c 0.750755,-1.47008 1.455783,-2.652616 2.350889,-3.921941 1.312744,0.269064 3.946425,1.296323 5.707409,0.519782 0.343939,-0.151672 -2.321799,-0.334823 -2.644751,-0.423703 -0.851765,-0.234417 -1.494683,-0.444517 -2.585736,-0.638539 1.313886,-1.846627 2.381466,-3.007893 4.040588,-4.293131 1.315391,0.77016 3.352886,2.567698 4.795113,2.39303 0,0 -3.884771,-2.705026 -4.13513,-2.853732 1.026867,-0.794064 1.475464,-1.014278 2.647763,-1.545623 0.669552,-0.303476 1.352402,-0.577491 2.044982,-0.827116 1.302497,1.084391 2.91537,3.496023 3.906905,3.250582 0,0 -2.404849,-3.03332 -3.09999,-3.542401 1.671807,-0.595593 2.122104,-0.702895 3.90269,-1.015694 1.297206,1.398758 3.276574,4.560379 3.891248,4.194664 -1.025391,-1.56351 -1.958531,-2.912499 -3.164425,-4.299098 1.880532,-0.322204 3.587814,-0.466016 5.549038,-0.52217 0.754185,1.895505 0.463674,3.55203 2.486977,5.401324 l -1.646343,-5.400728 c 1.847785,-0.03694 3.14608,0.0075 5.028153,0.161128 -0.148939,1.615319 0.331301,3.286974 1.269986,4.932862 -0.03389,-0.81986 -0.332281,-2.358494 -0.46247,-3.46482 -0.104439,-0.887485 -0.04937,-1.456107 -0.04937,-1.456107 1.679038,0.147358 3.363904,0.360786 5.04321,0.6272 -0.436094,1.516575 -0.714839,3.812508 0.01926,4.988959 l 0.277001,-3.503013 0.433565,-1.351674 c 1.627123,0.260019 2.371718,0.360428 3.97676,0.705376 -0.27287,1.667591 -0.329831,3.709201 0.270976,5.109507 0.360551,-1.48807 0.508237,-4.897654 0.508237,-4.897654 1.195495,0.263499 2.05995,0.365848 3.231266,0.66241 0.08398,1.913627 -0.378198,4.244592 0.661788,5.428177 -0.04663,-1.127904 0.03285,-3.703974 -0.06022,-5.18231 1.381944,0.35315 2.650539,0.745615 3.983983,1.12729 -0.20996,1.848522 0.06483,3.886241 0.752719,4.798591 l -0.0843,-4.627916 c 1.405592,0.402693 2.238761,0.635291 3.573305,1.049113 -0.01819,1.023201 -0.569942,3.763278 0.761147,4.682818 -0.05779,-1.397827 -0.118664,-3.208529 -0.155361,-4.496031 1.723082,0.539055 3.04148,1.020251 4.605428,1.531897 -0.361917,1.467789 -2.10697,3.299196 -0.618433,4.407112 0.187019,-0.43101 -0.101393,-1.050586 0.07045,-1.598733 0.34769,-1.109098 1.111597,-2.186068 1.234455,-2.6383 1.107325,0.362644 2.197283,0.719764 3.20477,1.046129 0.04565,1.583081 -2.055906,3.889614 0.437179,4.648207 0.09944,-0.410438 -0.587468,-0.898496 -0.525696,-1.569493 0.0861,-0.935216 0.886036,-2.098983 0.727425,-2.776153 1.862916,0.600834 3.832626,-0.100071 4.265803,0.637344 2.537045,4.318923 5.105818,2.836654 6.269837,1.130274 0.961789,-1.409916 0.930366,-4.606878 -0.325777,-5.652561 0.674755,-1.042391 2.390865,-3.972516 4.101411,-5.443695 1.337883,-1.150665 2.912999,-0.976472 2.414719,-1.213224 -3.410953,-1.6206733 -5.550446,4.494518 -7.209834,5.742674 -0.559009,-0.575349 -0.824563,-0.944205 -1.656579,-1.320641 2.306658,-1.860323 1.81663,-5.168741 -1.546386,-8.326072 -0.947034,0.1600915 4.009632,5.665278 0.647943,7.630242 C 82.312108,9.4588987 64.887852,4.865772 48.934589,4.9374081 Z m 0.166199,20.5179889 c -0.438723,-1.48e-4 -0.815766,0.268323 -1.092345,0.926179 -0.424445,1.009569 3.983682,4.795011 4.79933,5.627498 0.915213,0.93411 2.110423,2.258184 3.1295,3.172405 -0.650726,0.488161 -1.279614,1.011791 -1.881192,1.566507 -0.181162,0.171124 -0.359879,0.34525 -0.535333,0.521576 -1.491361,-0.905964 -3.216086,-1.68061 -4.634334,-2.696784 -1.933567,-1.385404 -4.355935,-4.4967 -5.494837,-4.513932 -4.184024,0.140153 3.294382,7.670759 8.302174,9.251056 -0.238607,0.298162 -0.468034,0.600156 -0.688284,0.905889 -0.665334,-0.286164 -1.983256,-0.783869 -4.514502,-1.703765 -10.297444,-3.742252 -10.792219,-0.193666 -7.150217,0.910665 2.587694,0.784643 7.795979,2.576456 10.427852,2.708121 -0.430646,0.765946 -0.796804,1.538545 -1.094752,2.308289 -0.603113,-0.165409 -1.097172,-0.363555 -1.775209,-0.404012 -4.388663,-0.261851 -16.622022,-1.772609 -13.351408,0.782361 0.379244,0.296259 9.993538,1.860133 14.613562,1.139822 -0.412927,1.531219 -0.527816,2.994877 -0.33842,4.315213 -1.057609,0.212499 -2.096875,0.758182 -2.946438,1.547411 -1.06895,0.997062 -1.744553,2.294503 -1.8559,3.563883 -1.502778,1.418963 -1.745704,2.64904 -1.745704,2.64904 0.05832,0.800956 1.151241,-0.07513 2.15518,-0.553798 0.13518,0.243828 0.300569,0.466691 0.493782,0.6648 0.09582,0.09527 0.198273,0.184191 0.306507,0.266752 -2.172513,3.04619 -0.508055,2.230323 1.410897,1.058664 0.393701,-0.236385 0.965282,-0.243232 1.346458,-0.337771 1.223122,-0.118728 2.467598,-0.703713 3.459494,-1.626186 0.60172,-0.56119 1.085895,-1.224389 1.411495,-1.933519 1.322294,0.52593 2.887525,0.703937 4.595794,0.522765 -0.17688,4.808695 0.341845,12.226247 0.788246,12.730797 2.733175,3.08923 1.481093,-8.680541 1.413906,-12.966519 -8.67e-4,-0.05989 -0.0085,-0.112852 -0.01204,-0.170078 0.749185,-0.201228 1.507392,-0.462975 2.266582,-0.781761 0.431913,2.722209 1.573529,6.463948 2.125676,8.523002 0.964674,3.597442 4.62303,3.278572 1.260349,-6.921286 -0.399108,-1.210611 -0.697151,-2.099693 -0.943604,-2.818523 0.33746,-0.19539 0.67199,-0.40088 1.003219,-0.616456 2.254542,4.783851 8.160598,10.472107 8.459949,6.840721 0.03453,-1.109925 -3.042613,-3.611143 -4.373592,-5.557679 -0.644541,-0.942633 -1.172106,-2.012391 -1.704757,-3.060807 0.287653,-0.239895 0.570123,-0.486786 0.846656,-0.73999 0.618437,-0.576752 1.204675,-1.184365 1.75293,-1.815958 0.663219,0.674363 1.357179,1.348231 1.912507,1.915021 0.815649,0.832489 4.492092,5.299347 5.546024,4.932267 3.139496,-1.093499 -1.969577,-4.600414 -3.61124,-6.422389 -0.689851,-0.765632 -1.486277,-1.647605 -2.343665,-2.367966 3.596477,-5.174022 4.0753,-10.632448 1.192306,-13.586559 -2.968723,-3.029972 -8.799518,-2.717355 -14.376911,0.770423 -0.667596,-1.384184 -2.086474,-2.711101 -3.233073,-3.787668 -1.39977,-1.31427 -3.75574,-4.737193 -5.322617,-4.737721 z m 42.288891,36.908748 c -7.570353,0.107521 -14.44764,12.002923 -13.565781,19.076798 -1.242851,0.412534 -2.340967,1.534943 -3.077111,3.145551 C 72.300913,78.601811 64.493538,74.475441 55.60668,74.470128 c -11.005158,0 -19.92685,6.248818 -19.927152,13.957745 0.0067,5.849336 4.11333,8.859083 11.32449,12.484937 1.613887,0.81148 2.054377,0.89033 3.144554,1.12012 1.459906,0.30767 3.337886,0.28651 4.466928,0.32941 -3.407172,4.17232 -16.12763,6.41981 -13.242413,9.24927 2.388216,2.34208 12.251988,-4.67348 15.522244,-9.27015 0.763831,-0.033 1.524076,-0.0967 2.277424,-0.19097 0.927215,4.86803 5.445033,11.51609 5.963933,8.97536 0.559416,-2.7391 -2.236812,-6.18676 -3.374583,-9.12276 0,0 2.538154,-0.70168 5.119085,-2.065998 2.880749,1.312868 6.855577,1.490648 9.39512,3.663538 1.642726,1.40555 0.745141,8.61532 3.218019,5.58334 0.699244,-8.56043 -3.345133,-9.694799 -9.505322,-11.101028 1.992413,-1.462742 3.507609,-3.211187 4.440436,-5.124423 0.891706,2.520792 1.976414,4.815548 3.826818,4.815893 0.892883,1.57e-4 3.217149,0.0057 3.946045,-0.623617 1.559197,-1.346309 1.748157,-5.024744 1.748114,-7.99427 -6.6e-4,-2.150472 -0.07104,-3.600721 -1.070067,-5.088023 2.992224,-2.143028 6.555483,-7.391282 8.990463,-8.870321 2.276283,-1.382647 11.068484,-0.65882 13.615164,-3.156293 0.89186,-0.874628 -12.947136,-0.77566 -14.481089,0.728652 -3.608902,3.539163 -5.270056,5.047236 -8.787531,8.496745 -0.33932,0.332758 -0.660514,0.624992 -0.967092,0.923198 -0.580986,-0.477834 -0.647257,-0.647116 -1.301297,-0.748345 0.516205,-8.074611 6.60441,-16.717107 10.932471,-16.682578 1.560704,0.01246 7.525538,0.391036 8.664086,-0.242883 1.428502,-0.795355 -5.73687,-1.994309 -7.794543,-2.148954 -0.120486,-0.0043 -0.241142,-0.0053 -0.361306,-0.0036 z"
       id="path816"
       inkscape:connector-curvature="0" />
  </g>
</svg>
