<?xml version="1.0" encoding="UTF-8" standalone="no"?>
<!-- Created with Inkscape (http://www.inkscape.org/) -->

<svg
   width="110mm"
   height="110mm"
   viewBox="0 0 110 110"
   version="1.1"
   id="svg8"
   inkscape:version="1.1.2 (b8e25be833, 2022-02-05)"
   sodipodi:docname="NotSeeingIsBelieving.svg"
   xmlns:inkscape="http://www.inkscape.org/namespaces/inkscape"
   xmlns:sodipodi="http://sodipodi.sourceforge.net/DTD/sodipodi-0.dtd"
   xmlns="http://www.w3.org/2000/svg"
   xmlns:svg="http://www.w3.org/2000/svg"
   xmlns:rdf="http://www.w3.org/1999/02/22-rdf-syntax-ns#"
   xmlns:cc="http://creativecommons.org/ns#"
   xmlns:dc="http://purl.org/dc/elements/1.1/">
  <defs
     id="defs2" />
  <sodipodi:namedview
     id="base"
     pagecolor="#ffffff"
     bordercolor="#666666"
     borderopacity="1.0"
     inkscape:pageopacity="0.0"
     inkscape:pageshadow="2"
     inkscape:zoom="1.7255553"
     inkscape:cx="128.944"
     inkscape:cy="210.36706"
     inkscape:document-units="mm"
     inkscape:current-layer="layer1"
     showgrid="false"
     inkscape:window-width="1920"
     inkscape:window-height="1017"
     inkscape:window-x="-8"
     inkscape:window-y="-8"
     inkscape:window-maximized="1"
     inkscape:pagecheckerboard="false"
     width="110mm"
     showborder="true"
     borderlayer="false"
     inkscape:showpageshadow="true" />
  <metadata
     id="metadata5">
    <rdf:RDF>
      <cc:Work
         rdf:about="">
        <dc:format>image/svg+xml</dc:format>
        <dc:type
           rdf:resource="http://purl.org/dc/dcmitype/StillImage" />
      </cc:Work>
    </rdf:RDF>
  </metadata>
  <g
     inkscape:label="Layer 1"
     inkscape:groupmode="layer"
     id="layer1"
     transform="translate(-3.2632255,-3.3278717)">
    <path
       id="path1781"
       style="fill:#008000;stroke-width:0.242484;stroke-miterlimit:4;stroke-dasharray:none"
       inkscape:transform-center-x="4.9764727"
       inkscape:transform-center-y="-0.55516468"
       d="M 103.05264,102.41536 C 95.960368,101.29941 86.663238,86.956438 81.362357,84.982254 70.599126,80.973753 63.594777,82.024284 29.448769,44.6342 14.989286,28.800979 6.0986328,11.752493 12.139008,9.9960806 20.79415,7.4793507 53.666693,25.170464 66.453895,41.804708 c 3.533366,4.596382 14.367814,17.865537 19.086699,29.031016 1.429111,3.381458 0.931644,7.730788 1.738257,10.875112 1.15327,4.495659 13.894589,14.376956 15.773789,20.704524 z"
       sodipodi:nodetypes="cssssssc"
       inkscape:export-filename="C:\_Code\GitHub\inat-achievements\public\icon.png"
       inkscape:export-xdpi="23.258366"
       inkscape:export-ydpi="23.258366" />
    <ellipse
       style="fill:#008000;fill-opacity:1;stroke-width:0.244831"
       id="path2442"
       cx="-20.388741"
       cy="53.173698"
       rx="2.5187929"
       ry="3.5559428"
       transform="rotate(-35.981939)" />
    <ellipse
       style="fill:#008000;fill-opacity:1;stroke-width:0.261943"
       id="path3268"
       cx="-14.314004"
       cy="53.568825"
       rx="2.6669574"
       ry="3.7534955"
       transform="rotate(-35.981939)" />
    <ellipse
       style="fill:#008000;fill-opacity:1;stroke-width:0.21903"
       id="path3270"
       cx="-26.116953"
       cy="58.260681"
       rx="2.1228805"
       ry="3.2102263"
       transform="rotate(-35.981939)" />
    <ellipse
       style="fill:#008000;fill-opacity:1;stroke-width:0.214186"
       id="path3272"
       cx="-9.2270279"
       cy="58.260681"
       rx="2.2224643"
       ry="3.4077787"
       transform="rotate(-35.981939)" />
    <path
       id="path3274"
       style="fill:#008000;stroke-width:0.374915"
       d="m 28.158562,57.988382 c 3.495597,1.72189 2.68836,4.414118 1.757275,5.108058 -1.51755,1.131035 -3.305455,1.312922 -4.810657,2.252795 -1.335881,0.834151 -2.248621,3.402669 -3.887751,4.35293 -1.410949,0.817976 -3.579477,-0.899637 -4.028518,-3.749147 -0.714411,-4.533486 -1.706178,-6.235591 2.001924,-8.927899 3.708102,-2.692308 5.732158,-0.630538 8.967727,0.963263 z"
       sodipodi:nodetypes="sssssss" />
    <path
       id="path3276"
       style="fill:#008000;stroke-width:0.304617"
       d="m 96.580492,72.695535 c 4.135048,4.821229 4.888428,5.893707 3.392997,7.060487 -1.495433,1.16678 -3.831751,0.831517 -6.165311,-2.159348 -2.333562,-2.990865 -2.429789,-6.780302 -2.285259,-8.671532 0.303503,-3.970573 2.587905,0.890894 5.057573,3.770393 z"
       sodipodi:nodetypes="sssss" />
    <path
       id="path3276-3"
       style="fill:#008000;stroke-width:0.304617"
       d="m 97.648452,71.86228 c 3.670868,5.183398 4.527918,6.174988 6.023358,5.008208 1.49543,-1.16678 1.73842,-3.51449 -0.59514,-6.505354 -2.33357,-2.990866 -5.985818,-4.005806 -7.855436,-4.325525 -3.925175,-0.671232 0.234781,2.726869 2.427218,5.822671 z"
       sodipodi:nodetypes="sssss" />
    <path
       id="path3276-7"
       style="fill:#008000;stroke-width:0.304617"
       d="m 100.59653,49.469478 c 4.13504,4.821229 4.88842,5.893707 3.39299,7.060487 -1.49543,1.16678 -3.83175,0.831517 -6.165306,-2.159348 -2.333562,-2.990865 -2.429789,-6.780302 -2.285259,-8.671532 0.303503,-3.970573 2.587905,0.890894 5.057575,3.770393 z"
       sodipodi:nodetypes="sssss" />
    <path
       id="path3276-3-2"
       style="fill:#008000;stroke-width:0.304617"
       d="m 101.66449,48.636223 c 3.67086,5.183398 4.52791,6.174988 6.02335,5.008208 1.49543,-1.16678 1.73842,-3.51449 -0.59514,-6.505354 -2.33357,-2.990866 -5.98581,-4.005806 -7.85543,-4.325525 -3.925175,-0.671232 0.234781,2.726869 2.42722,5.822671 z"
       sodipodi:nodetypes="sssss" />
    <path
       id="path3276-8"
       style="fill:#008000;stroke-width:0.304617"
       d="m 79.590007,41.956196 c 4.13505,4.821229 4.88843,5.893707 3.393,7.060487 -1.49544,1.16678 -3.83176,0.831517 -6.165315,-2.159348 -2.333562,-2.990865 -2.429789,-6.780302 -2.285259,-8.671532 0.303503,-3.970573 2.587905,0.890894 5.057574,3.770393 z"
       sodipodi:nodetypes="sssss" />
    <path
       id="path3276-3-3"
       style="fill:#008000;stroke-width:0.304617"
       d="m 80.657967,41.122941 c 3.67087,5.183398 4.52792,6.174988 6.02336,5.008208 1.49543,-1.16678 1.73842,-3.51449 -0.59514,-6.505354 -2.33357,-2.990866 -5.98582,-4.005806 -7.855439,-4.325525 -3.925175,-0.671232 0.234781,2.726869 2.427219,5.822671 z"
       sodipodi:nodetypes="sssss" />
    <path
       id="path3276-2"
       style="fill:#008000;stroke-width:0.321962"
       d="m 83.08277,20.608581 c 4.336125,5.125039 5.124768,6.263914 3.535927,7.486475 -1.588841,1.222561 -4.055755,0.851608 -6.500876,-2.32608 -2.445123,-3.177688 -2.519925,-7.183485 -2.353689,-9.181345 0.349004,-4.194411 2.72887,0.959997 5.318638,4.02095 z"
       sodipodi:nodetypes="sssss" />
    <path
       id="path3276-3-56"
       style="fill:#008000;stroke-width:0.321962"
       d="m 84.21744,19.73549 c 3.842956,5.50452 4.741744,6.558644 6.330579,5.336086 1.58885,-1.222561 1.862359,-3.702171 -0.582768,-6.879859 -2.44512,-3.177688 -6.298035,-4.276359 -8.271791,-4.627568 -4.143817,-0.73734 0.228759,2.883747 2.52398,6.171341 z"
       sodipodi:nodetypes="sssss" />
    <path
       id="path3276-50"
       style="fill:#008000;stroke-width:0.328627"
       d="m 58.226423,17.736486 c 4.709076,4.9751 5.576369,6.089724 4.013097,7.41249 -1.563271,1.322767 -4.10921,1.074269 -6.779688,-2.023069 -2.67048,-3.097339 -2.956687,-7.157741 -2.890968,-9.193384 0.137971,-4.2737398 2.845047,0.832563 5.657559,3.803963 z"
       sodipodi:nodetypes="sssss" />
    <path
       id="path3276-3-58"
       style="fill:#008000;stroke-width:0.328627"
       d="m 59.342831,16.791835 c 4.223838,5.385685 5.199506,6.408609 6.762777,5.085842 1.563269,-1.322765 1.71364,-3.852752 -0.956836,-6.950091 -2.670479,-3.097338 -6.673986,-4.012337 -8.713822,-4.266362 -4.282538,-0.533312 0.385175,2.91399 2.907881,6.130611 z"
       sodipodi:nodetypes="sssss" />
    <path
       id="path3401"
       style="fill:#008000;stroke-width:0.240648"
       d="m 10.785114,58.017491 c 0.476059,0.346408 0.351847,1.087267 -0.0016,1.343894 -0.353451,0.256627 -1.0804157,0.141833 -1.2783547,-0.414566 0,0 -0.351845,-1.087267 0.0016,-1.343894 0.353452,-0.256627 1.2783547,0.414566 1.2783547,0.414566 z"
       sodipodi:nodetypes="sssss" />
    <path
       id="path3401-8"
       style="fill:#008000;stroke-width:0.243848"
       d="m 24.311267,47.923734 c 0.479995,0.34355 0.344173,1.092838 -0.01874,1.356336 -0.362916,0.263499 -1.101166,0.156899 -1.295492,-0.402123 0,0 -0.344173,-1.092837 0.01874,-1.356337 0.362915,-0.263498 1.295491,0.402124 1.295491,0.402124 z"
       sodipodi:nodetypes="sssss" />
    <path
       id="path3401-1"
       style="fill:#008000;stroke-width:0.262129"
       d="m 12.323384,50.48585 c 0.50348,0.326499 0.298409,1.126064 -0.12096,1.430552 -0.419369,0.304487 -1.224932,0.246762 -1.397709,-0.327906 0,0 -0.298409,-1.126065 0.12096,-1.430553 0.419369,-0.304487 1.397709,0.327907 1.397709,0.327907 z"
       sodipodi:nodetypes="sssss" />
    <path
       id="path3401-18"
       style="fill:#008000;stroke-width:0.262129"
       d="m 17.624755,46.916617 c 0.503479,0.326499 0.298408,1.126066 -0.120961,1.430553 -0.419369,0.304488 -1.224931,0.246761 -1.39771,-0.327906 0,0 -0.298408,-1.126066 0.120961,-1.430553 0.419369,-0.304488 1.39771,0.327906 1.39771,0.327906 z"
       sodipodi:nodetypes="sssss" />
    <ellipse
       style="fill:#008000;fill-opacity:1;stroke-width:0.244831"
       id="path2442-2"
       cx="-19.253315"
       cy="108.63063"
       rx="2.5187929"
       ry="3.5559428"
       transform="rotate(-43.419569)" />
    <ellipse
       style="fill:#008000;fill-opacity:1;stroke-width:0.261943"
       id="path3268-4"
       cx="-13.178579"
       cy="109.02576"
       rx="2.6669574"
       ry="3.7534955"
       transform="rotate(-43.419569)" />
    <ellipse
       style="fill:#008000;fill-opacity:1;stroke-width:0.21903"
       id="path3270-7"
       cx="-24.981527"
       cy="113.71762"
       rx="2.1228805"
       ry="3.2102263"
       transform="rotate(-43.419569)" />
    <ellipse
       style="fill:#008000;fill-opacity:1;stroke-width:0.214186"
       id="path3272-9"
       cx="-8.0915995"
       cy="113.71762"
       rx="2.2224643"
       ry="3.4077787"
       transform="rotate(-43.419569)" />
    <path
       id="path3274-1"
       style="fill:#008000;stroke-width:0.374915"
       d="m 74.370285,93.355617 c 3.689077,1.254903 3.237137,4.028981 2.40371,4.837603 -1.358394,1.317947 -3.107687,1.729767 -4.478566,2.85658 -1.216661,1.00005 -1.789233,3.6651 -3.291566,4.81954 -1.293189,0.99375 -3.665817,-0.4287 -4.479936,-3.19612 -1.295249,-4.402857 -2.499004,-5.962264 0.829388,-9.111922 3.328393,-3.149657 5.602308,-1.367243 9.01697,-0.205681 z"
       sodipodi:nodetypes="sssssss" />
    <path
       id="path3401-5"
       style="fill:#008000;stroke-width:0.240648"
       d="m 57.146777,95.633416 c 0.516894,0.281869 0.489629,1.032572 0.17237,1.332799 -0.317256,0.300215 -1.052964,0.280491 -1.321264,-0.245583 0,0 -0.489628,-1.032575 -0.172371,-1.332796 0.317258,-0.300222 1.321262,0.245604 1.321262,0.245604 z"
       sodipodi:nodetypes="sssss" />
    <path
       id="path3401-8-8"
       style="fill:#008000;stroke-width:0.243848"
       d="m 69.25252,83.873665 c 0.520428,0.278525 0.482742,1.039092 0.15699,1.347351 -0.325754,0.308262 -1.071592,0.298121 -1.336646,-0.231042 0,0 -0.482742,-1.039089 -0.156988,-1.34735 0.325752,-0.30826 1.336644,0.23104 1.336644,0.231041 z"
       sodipodi:nodetypes="sssss" />
    <path
       id="path3401-1-7"
       style="fill:#008000;stroke-width:0.262129"
       d="m 57.697158,87.966018 c 0.541506,0.258578 0.441662,1.077963 0.06524,1.434175 -0.376426,0.356211 -1.182682,0.403247 -1.428395,-0.144221 0,0 -0.441664,-1.077963 -0.06524,-1.434175 0.376427,-0.356211 1.428397,0.144211 1.428397,0.144221 z"
       sodipodi:nodetypes="sssss" />
    <path
       id="path3401-18-2"
       style="fill:#008000;stroke-width:0.262129"
       d="m 62.491898,83.74057 c 0.541507,0.258578 0.441664,1.077963 0.06524,1.434175 -0.376425,0.356212 -1.182682,0.403248 -1.428395,-0.144221 0,0 -0.441663,-1.077963 -0.06524,-1.434174 0.376426,-0.356212 1.428397,0.144221 1.428397,0.14422 z"
       sodipodi:nodetypes="sssss" />
    <ellipse
       style="fill:#008000;fill-opacity:1;stroke-width:0.244831"
       id="path2442-9"
       cx="-31.842775"
       cy="76.474976"
       rx="2.5187929"
       ry="3.5559428"
       transform="rotate(-40.320089)" />
    <ellipse
       style="fill:#008000;fill-opacity:1;stroke-width:0.261943"
       id="path3268-49"
       cx="-25.768038"
       cy="76.870094"
       rx="2.6669574"
       ry="3.7534955"
       transform="rotate(-40.320089)" />
    <ellipse
       style="fill:#008000;fill-opacity:1;stroke-width:0.21903"
       id="path3270-8"
       cx="-37.570984"
       cy="81.561966"
       rx="2.1228805"
       ry="3.2102263"
       transform="rotate(-40.320089)" />
    <ellipse
       style="fill:#008000;fill-opacity:1;stroke-width:0.214186"
       id="path3272-4"
       cx="-20.681059"
       cy="81.561966"
       rx="2.2224643"
       ry="3.4077787"
       transform="rotate(-40.320089)" />
    <path
       id="path3274-7"
       style="fill:#008000;stroke-width:0.374915"
       d="m 38.808508,80.869531 c 3.615833,1.452542 3.014555,4.198119 2.138631,4.960502 -1.427667,1.242564 -3.196675,1.55919 -4.626467,2.610235 -1.268954,0.93281 -1.984795,3.562997 -3.547346,4.634537 -1.345034,0.92236 -3.637272,-0.6263 -4.300574,-3.433687 -1.055286,-4.46645 -2.172963,-6.088658 1.320861,-9.053743 3.493825,-2.965086 5.668038,-1.062331 9.014895,0.282156 z"
       sodipodi:nodetypes="sssssss" />
    <path
       id="path3401-3"
       style="fill:#008000;stroke-width:0.240648"
       d="m 21.487038,82.212731 c 0.500902,0.309411 0.433083,1.057537 0.100056,1.340165 -0.333026,0.282628 -1.066588,0.223156 -1.306051,-0.31668 0,0 -0.433076,-1.057531 -0.10005,-1.340158 0.333027,-0.282628 1.306045,0.316673 1.306045,0.316673 z"
       sodipodi:nodetypes="sssss" />
    <path
       id="path3401-8-2"
       style="fill:#008000;stroke-width:0.243848"
       d="m 34.210924,71.124744 c 0.504605,0.306255 0.425853,1.063674 0.08391,1.353868 -0.341945,0.290197 -1.086146,0.239741 -1.322199,-0.302976 0,0 -0.425854,-1.063674 -0.08391,-1.353871 0.341943,-0.290195 1.322198,0.302979 1.322199,0.302979 z"
       sodipodi:nodetypes="sssss" />
    <path
       id="path3401-1-6"
       style="fill:#008000;stroke-width:0.262129"
       d="m 22.451191,74.586313 c 0.526734,0.287479 0.382732,1.100266 -0.0124,1.435604 -0.395136,0.335337 -1.202756,0.338711 -1.418508,-0.22124 0,0 -0.382733,-1.100267 0.0124,-1.435604 0.395135,-0.335338 1.418508,0.22124 1.418508,0.22124 z"
       sodipodi:nodetypes="sssss" />
    <path
       id="path3401-18-4"
       style="fill:#008000;stroke-width:0.262129"
       d="m 27.467386,70.626297 c 0.526734,0.287479 0.382733,1.100267 -0.0124,1.435604 -0.395135,0.335338 -1.202756,0.338711 -1.418509,-0.22124 0,0 -0.382732,-1.100267 0.0124,-1.435605 0.395135,-0.335337 1.418508,0.221241 1.418508,0.221241 z"
       sodipodi:nodetypes="sssss" />
  </g>
</svg>
