<?xml version="1.0" encoding="UTF-8" standalone="no"?>
<!-- Created with Inkscape (http://www.inkscape.org/) -->

<svg
   width="110mm"
   height="110mm"
   viewBox="0 0 110 110"
   version="1.1"
   id="svg8"
   inkscape:version="1.1.2 (b8e25be833, 2022-02-05)"
   sodipodi:docname="OldGeeser.svg"
   xmlns:inkscape="http://www.inkscape.org/namespaces/inkscape"
   xmlns:sodipodi="http://sodipodi.sourceforge.net/DTD/sodipodi-0.dtd"
   xmlns="http://www.w3.org/2000/svg"
   xmlns:svg="http://www.w3.org/2000/svg"
   xmlns:rdf="http://www.w3.org/1999/02/22-rdf-syntax-ns#"
   xmlns:cc="http://creativecommons.org/ns#"
   xmlns:dc="http://purl.org/dc/elements/1.1/">
  <defs
     id="defs2" />
  <sodipodi:namedview
     id="base"
     pagecolor="#ffffff"
     bordercolor="#666666"
     borderopacity="1.0"
     inkscape:pageopacity="0.0"
     inkscape:pageshadow="2"
     inkscape:zoom="1.2201519"
     inkscape:cx="116.78874"
     inkscape:cy="166.37273"
     inkscape:document-units="mm"
     inkscape:current-layer="layer1"
     showgrid="false"
     inkscape:window-width="1920"
     inkscape:window-height="1017"
     inkscape:window-x="-8"
     inkscape:window-y="-8"
     inkscape:window-maximized="1"
     inkscape:pagecheckerboard="false"
     width="110mm"
     showborder="true"
     borderlayer="false"
     inkscape:showpageshadow="true" />
  <metadata
     id="metadata5">
    <rdf:RDF>
      <cc:Work
         rdf:about="">
        <dc:format>image/svg+xml</dc:format>
        <dc:type
           rdf:resource="http://purl.org/dc/dcmitype/StillImage" />
      </cc:Work>
    </rdf:RDF>
  </metadata>
  <g
     inkscape:label="Layer 1"
     inkscape:groupmode="layer"
     id="layer1"
     transform="translate(-3.2632255,-3.3278717)">
    <path
       id="path1781"
       style="fill:#008000;stroke-width:0.242484;stroke-miterlimit:4;stroke-dasharray:none"
       inkscape:transform-center-x="4.954777"
       inkscape:transform-center-y="-0.49871899"
       d="m 83.363252,68.198104 c -7.038386,10.112719 -14.445384,14.186231 -27.075635,14.566109 -6.498701,0.19546 -5.645517,3.395265 -4.956141,10.235671 0.04416,0.438227 -0.648082,2.960597 -0.579801,4.852961 0.09343,2.589475 -0.196581,4.625735 0.329817,4.977505 3.650499,2.4395 14.312189,0.76372 11.898649,3.37254 -1.603674,1.73343 -2.965571,2.69065 -4.449884,2.82896 -4.77371,0.44483 -7.762009,-0.54453 -12.256756,-0.88558 -3.325741,-0.25235 -0.639742,-10.644805 -0.34574,-18.300591 0.141926,-3.695734 -0.256115,-5.601018 -0.256115,-5.601018 -1.367924,0.828204 -5.148317,-0.168645 -9.923767,-0.742674 C 28.444263,82.624061 22.479971,86.785152 7.823646,85.213561 1.8427432,84.572232 26.899765,68.223337 33.827715,58.430386 40.324558,49.246824 60.26347,40.853884 72.860225,40.952844 80.867956,41.015752 83.403117,10.565327 97.145954,7.2161617 100.8189,6.3210564 106.15276,9.9511858 109.26862,22.475653 c 1.01127,4.064898 -2.6824,2.169209 -8.70591,1.376712 -2.883478,-0.379373 -5.857363,3.697671 -7.096198,6.793627 -4.070054,10.171418 -6.033551,10.355102 -5.813432,20.85967 0.103273,4.92844 -2.013162,13.42134 -4.289828,16.692442 z"
       sodipodi:nodetypes="ssssssssssssssssssss"
       inkscape:export-filename="C:\_Code\GitHub\inat-achievements\public\icon.png"
       inkscape:export-xdpi="23.258366"
       inkscape:export-ydpi="23.258366" />
    <path
       id="path1781-5"
       style="fill:#008000;stroke-width:0.223744;stroke-miterlimit:4;stroke-dasharray:none"
       inkscape:transform-center-x="4.9369901"
       inkscape:transform-center-y="-1.1222021"
       d="m 67.527806,79.849825 c -6.156004,0.494061 -5.179786,3.314776 -4.169343,9.400507 0.06473,0.389882 -0.460694,2.680455 -0.297328,4.370052 0.223544,2.312004 0.05445,4.14794 0.572237,4.436792 3.590798,2.003134 13.619672,-0.01971 11.465526,2.432724 -1.431319,1.62954 -2.673668,2.55278 -4.07483,2.74942 -4.506284,0.63242 -7.393222,-0.1059 -11.675756,-0.19024 -3.168721,-0.0624 -1.161532,-9.491672 -1.28139,-16.35516 -0.05786,-3.313263 -0.534787,-4.998225 -0.534787,-4.998225 -1.254789,0.80812 -4.893682,0.101997 -9.454693,-0.176987 -6.975651,-0.42668 12.309112,-5.542585 -1.679173,-6.228691 9.455749,-9.041632 36.533518,-11.866418 21.129537,4.559808 z"
       sodipodi:nodetypes="cssssssssscc"
       inkscape:export-filename="C:\_Code\GitHub\inat-achievements\public\icon.png"
       inkscape:export-xdpi="23.258366"
       inkscape:export-ydpi="23.258366" />
    <circle
       style="fill:#ffffff;fill-opacity:1;stroke-width:0.264522"
       id="path3871"
       cx="99.124466"
       cy="13.550776"
       r="1.6099889" />
    <path
       id="path1781-6"
       style="fill:#008000;stroke-width:0.0745246;stroke-miterlimit:4;stroke-dasharray:none"
       inkscape:transform-center-x="1.5227827"
       inkscape:transform-center-y="-0.15327805"
       d="m 148.21328,171.22836 c -2.16316,3.10802 -4.43961,4.35997 -8.32137,4.47672 -1.9973,0.0601 -1.73508,1.04349 -1.52321,3.14581 0.0136,0.13468 -0.19918,0.9099 -0.1782,1.4915 0.0287,0.79584 -0.0604,1.42166 0.10137,1.52978 1.12193,0.74975 4.39868,0.23472 3.6569,1.03651 -0.49286,0.53275 -0.91143,0.82694 -1.36761,0.86944 -1.46715,0.13672 -2.38556,-0.16735 -3.76697,-0.27217 -1.02213,-0.0776 -0.19662,-3.27155 -0.10626,-5.62447 0.0436,-1.13584 -0.0787,-1.7214 -0.0787,-1.7214 -0.42042,0.25453 -1.58228,-0.0518 -3.04996,-0.22826 -2.24468,-0.26982 -4.07773,1.00905 -8.58218,0.52604 -1.83816,-0.19711 5.86282,-5.22175 7.99204,-8.2315 1.99673,-2.82245 8.12472,-5.40192 11.99618,-5.37151 2.46108,0.0193 3.24023,-9.33924 7.46393,-10.36857 1.12884,-0.2751 2.76814,0.84058 3.72576,4.68983 0.3108,1.2493 -0.82441,0.66668 -2.67566,0.42311 -0.8862,-0.11659 -1.80019,1.13644 -2.18093,2.08794 -1.25088,3.12607 -1.85434,3.18252 -1.78669,6.41097 0.0317,1.5147 -0.61872,4.12489 -1.31843,5.13023 z"
       sodipodi:nodetypes="ssssssssssssssssssss"
       inkscape:export-filename="C:\_Code\GitHub\inat-achievements\public\icon.png"
       inkscape:export-xdpi="23.258366"
       inkscape:export-ydpi="23.258366" />
    <path
       id="path1781-5-0"
       style="fill:#008000;stroke-width:0.0687651;stroke-miterlimit:4;stroke-dasharray:none"
       inkscape:transform-center-x="1.5173482"
       inkscape:transform-center-y="-0.34492094"
       d="m 143.34645,174.80937 c -1.89198,0.15185 -1.59195,1.01876 -1.2814,2.88914 0.0199,0.11982 -0.14159,0.8238 -0.0914,1.34308 0.0687,0.71057 0.0168,1.27482 0.17587,1.3636 1.10359,0.61564 4.18584,-0.006 3.52379,0.74767 -0.4399,0.50082 -0.82172,0.78456 -1.25235,0.845 -1.38495,0.19437 -2.27222,-0.0326 -3.5884,-0.0585 -0.97387,-0.0192 -0.35699,-2.91715 -0.39382,-5.02656 -0.0178,-1.0183 -0.16436,-1.53615 -0.16436,-1.53615 -0.38565,0.24837 -1.50402,0.0314 -2.90579,-0.0544 -2.14388,-0.13114 3.78306,-1.70345 -0.51608,-1.91432 2.90612,-2.77884 11.22815,-3.647 6.49392,1.4014 z"
       sodipodi:nodetypes="cssssssssscc"
       inkscape:export-filename="C:\_Code\GitHub\inat-achievements\public\icon.png"
       inkscape:export-xdpi="23.258366"
       inkscape:export-ydpi="23.258366" />
    <circle
       style="fill:#ffffff;fill-opacity:1;stroke-width:0.0812977"
       id="path3871-4"
       cx="153.0573"
       cy="154.43315"
       r="0.49481091" />
  </g>
</svg>
