<?xml version="1.0" encoding="UTF-8" standalone="no"?>
<!-- Created with Inkscape (http://www.inkscape.org/) -->

<svg
   xmlns:dc="http://purl.org/dc/elements/1.1/"
   xmlns:cc="http://creativecommons.org/ns#"
   xmlns:rdf="http://www.w3.org/1999/02/22-rdf-syntax-ns#"
   xmlns:svg="http://www.w3.org/2000/svg"
   xmlns="http://www.w3.org/2000/svg"
   xmlns:sodipodi="http://sodipodi.sourceforge.net/DTD/sodipodi-0.dtd"
   xmlns:inkscape="http://www.inkscape.org/namespaces/inkscape"
   width="105.03123mm"
   height="110.91075mm"
   viewBox="0 0 105.03123 110.91075"
   version="1.1"
   id="svg8"
   inkscape:version="0.92.2 (5c3e80d, 2017-08-06)"
   sodipodi:docname="RatKing.svg">
  <defs
     id="defs2" />
  <sodipodi:namedview
     id="base"
     pagecolor="#ffffff"
     bordercolor="#666666"
     borderopacity="1.0"
     inkscape:pageopacity="0.0"
     inkscape:pageshadow="2"
     inkscape:zoom="1.4"
     inkscape:cx="119.39531"
     inkscape:cy="218.02967"
     inkscape:document-units="mm"
     inkscape:current-layer="layer1"
     showgrid="false"
     inkscape:window-width="1680"
     inkscape:window-height="997"
     inkscape:window-x="-8"
     inkscape:window-y="-8"
     inkscape:window-maximized="1" />
  <metadata
     id="metadata5">
    <rdf:RDF>
      <cc:Work
         rdf:about="">
        <dc:format>image/svg+xml</dc:format>
        <dc:type
           rdf:resource="http://purl.org/dc/dcmitype/StillImage" />
        <dc:title />
      </cc:Work>
    </rdf:RDF>
  </metadata>
  <g
     inkscape:label="Layer 1"
     inkscape:groupmode="layer"
     id="layer1"
     transform="translate(-3.2632255,-3.3278717)">
    <path
       style="fill:#008000;fill-opacity:1;stroke:none;stroke-width:0.77309984;stroke-opacity:1"
       d="M 197.0625 10.904297 C 195.15151 10.904527 193.36145 12.319124 191.89844 14.757812 C 190.1383 17.691778 188.8503 22.107352 188.39844 27.320312 C 185.58711 24.103512 181.69585 22.281757 177.625 22.279297 C 169.3899 22.278647 162.71257 29.572701 162.71289 38.570312 C 162.71444 47.556438 169.37502 54.845463 177.59961 54.859375 C 174.32944 62.469877 175.31593 71.757582 175.30469 81.3125 C 175.30482 105.55806 184.77308 124.24507 194.76953 124.93555 C 195.08992 132.73287 195.8322 134.50265 197.61523 138.9082 C 202.71562 151.51037 220.24041 164.04793 219.56445 173.2832 C 219.28836 182.5328 195.75092 196.29915 200.92773 196.33789 C 207.30405 196.38559 211.35483 191.95431 218.04688 185.8457 C 241.79909 164.1643 192.813 143.6734 200.55078 124.80078 C 212.94095 121.99669 219.46474 103.38065 219.48047 81.3125 C 219.47291 71.756316 220.46135 62.464609 217.19336 54.849609 C 224.9145 54.142055 230.85324 47.090681 230.85742 38.625 C 230.85699 29.627982 224.18182 22.335284 215.94727 22.335938 C 212.11953 22.338719 208.43841 23.950133 205.66797 26.835938 C 205.18544 21.894245 203.95202 17.710888 202.2832 14.873047 C 200.8094 12.366823 198.99725 10.910206 197.0625 10.904297 z M 109.57031 29.589844 C 108.78841 29.541473 108.06183 29.669337 107.41016 29.988281 C 105.69639 30.833792 104.71775 32.89619 104.48438 35.730469 C 104.20359 39.14037 105.0017 43.667862 106.90234 48.542969 C 102.95809 46.90155 98.661783 46.990586 95.009766 48.789062 C 87.623851 52.431193 84.863458 61.926753 88.84375 69.996094 C 92.820062 78.054591 102.01609 81.645115 109.39844 78.019531 C 109.83203 86.291515 114.82457 94.183535 119.04102 102.75781 C 129.76591 124.50232 146.5242 137.07601 155.79492 133.27344 C 159.53133 140.12472 160.97948 141.38252 164.52734 144.54492 C 174.67606 153.59104 195.93907 157.08439 199.41797 165.66602 C 203.26182 174.08362 188.24239 196.83916 192.90234 194.58398 C 198.64203 191.80626 200.31362 186.04217 203.61328 177.60352 C 215.32484 147.65206 162.32843 150.94429 160.91992 130.5957 C 170.79165 122.60018 168.40767 103.01552 158.66016 83.216797 C 154.4263 74.6497 151.2036 65.880023 144.9043 60.496094 C 151.516 56.446156 153.72338 47.49662 149.98242 39.902344 C 146.00229 31.833589 136.78915 28.245612 129.4043 31.888672 C 125.97264 33.584346 123.38393 36.657099 122.17578 40.470703 C 119.55711 36.252214 116.60157 33.047158 113.84961 31.240234 C 112.33062 30.242871 110.87348 29.670462 109.57031 29.589844 z M 267.57617 33.136719 C 262.17138 33.195955 256.74682 36.271044 253.64844 41.625 C 249.14852 49.403245 251.26166 59.047844 258.37305 63.179688 C 251.73053 68.128495 247.93068 76.659702 243.13477 84.923828 C 230.98996 105.90836 229.82482 126.82668 238.13086 132.43164 C 234.50237 139.34069 234.25734 141.24308 233.59375 145.94922 C 231.69553 159.41122 240.58415 179.04081 235.37305 186.69531 C 230.50085 194.56251 203.23224 194.68779 207.69336 197.31445 C 213.18815 200.54971 218.91379 198.74345 227.76562 196.80859 C 259.18361 189.94118 227.0506 147.66919 243.20117 135.21094 C 255.32945 138.99039 270.30326 126.14479 281.37109 107.05273 C 286.15137 98.778094 291.66047 91.233596 292.64648 83.005859 C 299.68354 86.261091 308.35542 83.131562 312.59961 75.806641 C 317.10596 68.019525 314.98084 58.364462 307.85352 54.240234 C 304.53922 52.325295 300.54647 51.876417 296.70312 52.986328 C 298.76085 48.467589 299.78847 44.229574 299.76562 40.9375 C 299.74559 38.030125 298.90593 35.859026 297.23438 34.884766 C 295.58031 33.927717 293.32179 34.256939 290.83398 35.634766 C 287.84092 37.292429 284.51599 40.468432 281.51367 44.753906 C 280.69181 40.561533 278.23498 37.035411 274.71289 34.994141 C 272.48566 33.70488 270.0329 33.109793 267.57617 33.136719 z M 336.0293 84.324219 C 332.97234 84.348314 329.81855 85.222362 326.96289 87.019531 C 319.35819 91.8069 316.73873 101.32652 321.10742 108.29492 C 312.92445 109.58057 305.589 115.35997 297.49609 120.43945 C 276.97559 133.35289 266.20164 151.32199 270.94141 160.15039 C 264.51268 164.57445 263.4099 166.14252 260.63086 169.99805 C 252.68135 181.02682 251.40298 202.53812 243.22656 206.88477 C 235.2511 211.57763 211.06465 198.98852 213.78906 203.39062 C 217.14475 208.81271 223.05083 209.8806 231.78516 212.29102 C 262.78606 220.84639 254.03853 168.4734 274.13281 164.9707 C 283.10517 173.96382 302.33738 169.57039 321.02344 157.83008 C 329.10742 152.73401 337.49866 148.62249 342.20312 141.80078 C 346.91431 147.95884 356.04565 149.22797 363.21289 144.72266 C 370.8274 139.93045 373.44297 130.39679 369.05664 123.42773 C 367.01562 120.18956 363.69332 117.9328 359.77539 117.125 C 363.70085 114.08463 366.58272 110.81254 368.0957 107.88867 C 369.43196 105.30647 369.69925 102.99612 368.67383 101.35547 C 367.65585 99.738194 365.50533 98.976497 362.66211 99.037109 C 359.24148 99.110016 354.81866 100.37339 350.16602 102.76758 C 351.39126 98.674886 350.85944 94.409619 348.69336 90.962891 C 345.95241 86.606494 341.12422 84.28406 336.0293 84.324219 z M 61.529297 86.179688 C 56.434559 86.163855 51.618611 88.509907 48.898438 92.878906 C 46.877452 96.129625 46.299954 100.10523 47.285156 103.98242 C 42.835239 101.77982 38.632889 100.6167 35.341797 100.5332 C 32.43528 100.45946 30.238678 101.22798 29.210938 102.86719 C 28.200972 104.48948 28.457139 106.75805 29.753906 109.28906 C 31.314035 112.3341 34.382094 115.75928 38.568359 118.89844 C 34.351635 119.58447 30.747714 121.92655 28.59375 125.38086 C 24.240079 132.37102 26.903063 141.89448 34.541016 146.65039 C 42.169867 151.3992 51.876957 149.59728 56.236328 142.62305 C 60.968013 149.42194 69.371642 153.49436 77.476562 158.55469 C 98.057897 171.37091 118.92852 173.21247 124.79883 165.0918 C 131.58708 168.94154 133.47986 169.24726 138.16211 170.0625 C 151.55577 172.39453 171.46311 164.144 178.94531 169.59961 C 186.65105 174.72336 185.89469 201.98138 188.66406 197.60742 C 192.07511 192.21999 190.45459 186.439 188.80664 177.5293 C 182.95756 145.9059 139.67036 176.6578 127.74023 160.11328 C 131.90944 148.1134 119.5547 132.73339 100.83008 121.05469 C 92.714147 116.00965 85.3498 110.25905 77.158203 109.00781 C 80.639023 102.07956 77.791461 93.31059 70.607422 88.832031 C 67.74336 87.048717 64.58614 86.189187 61.529297 86.179688 z M 368.04492 176.20312 C 359.06137 175.98849 351.61604 182.47344 351.4043 190.69531 C 343.87468 187.24302 334.56557 188.00466 325.01367 187.76367 C 300.77513 187.18057 281.86435 196.19688 280.93359 206.17383 C 273.13083 206.30657 271.34563 207.0051 266.89844 208.68164 C 254.17724 213.47739 241.22025 230.6948 232.00391 229.79688 C 222.76363 229.29815 209.56756 205.43694 209.4043 210.61133 C 209.2033 216.98464 213.53655 221.13953 219.48242 227.97656 C 240.58618 252.24349 262.24863 203.76554 280.92969 211.95508 C 283.43488 224.40912 301.88978 231.38116 323.95117 231.92773 C 333.50477 232.15008 342.76952 233.36122 350.46094 230.27734 C 350.98255 238.01329 357.88842 244.12029 366.35156 244.32812 C 375.34593 244.54413 382.79865 238.04467 382.99609 229.8125 C 383.08567 225.9858 381.5625 222.26875 378.74414 219.42969 C 383.69604 219.06617 387.90604 217.93209 390.7832 216.33203 C 393.32414 214.91894 394.82641 213.14303 394.87891 211.20898 C 394.92313 209.29846 393.55127 207.47438 391.14844 205.95312 C 388.25767 204.12291 383.87634 202.72946 378.67578 202.15234 C 381.95925 199.41921 383.87231 195.57157 383.97266 191.50195 C 384.17146 183.26926 377.0399 176.41924 368.04492 176.20312 z M 30.140625 177.08398 C 21.14446 176.95994 13.759745 183.5338 13.646484 191.76758 C 13.596326 195.59499 15.154747 199.29732 18.001953 202.10742 C 13.054053 202.52153 8.8567498 203.69678 5.9960938 205.32617 C 3.4697192 206.76517 1.9857949 208.55966 1.953125 210.49414 C 1.9268951 212.40495 3.3181108 214.21433 5.7363281 215.71094 C 8.6456656 217.5115 13.04183 218.85889 18.248047 219.38281 C 14.992659 222.14937 13.119326 226.01551 13.060547 230.08594 C 12.945974 238.32024 20.145825 245.09655 29.142578 245.2207 C 38.127864 245.34346 45.507071 238.78415 45.634766 230.56055 C 53.199301 233.93568 62.500839 233.07923 72.054688 233.22266 C 96.297927 233.55794 115.11465 224.34922 115.94336 214.36328 C 123.74437 214.15091 125.52333 213.43285 129.95312 211.71094 C 142.62465 206.78538 155.40387 189.43658 164.62891 190.24023 C 173.8738 190.64427 187.31348 214.36915 187.42383 209.19336 C 187.55974 202.81831 183.18537 198.70755 177.16992 191.93164 C 155.81919 167.88176 134.65244 216.58015 115.88867 208.58203 C 113.25625 196.15425 94.729882 189.3718 72.664062 189.05078 C 63.108684 188.92613 53.833302 187.80837 46.173828 190.9707 C 45.573144 183.24051 38.605433 177.20528 30.140625 177.08398 z M 160.64648 203.4082 C 137.40957 203.84346 143.71215 248.56243 125.21094 251.92188 C 116.17545 242.99219 96.973989 247.52094 78.371094 259.39258 C 70.32321 264.54547 61.962977 268.71565 57.306641 275.57031 C 52.552207 269.4456 43.412706 268.23922 36.277344 272.79492 C 28.696772 277.64067 26.146725 287.19285 30.582031 294.13086 C 32.645831 297.35457 35.984619 299.58701 39.908203 300.36719 C 36.004246 303.43514 33.144739 306.72765 31.652344 309.66211 C 30.334351 312.25366 30.082148 314.56584 31.119141 316.19922 C 32.14851 317.80927 34.305711 318.55721 37.148438 318.47656 C 40.568502 318.37954 44.981442 317.08494 49.617188 314.6582 C 48.420793 318.75943 48.98352 323.01978 51.173828 326.45117 C 55.608329 333.39034 65.348552 335.08817 72.929688 330.24219 C 80.500482 325.40137 83.054382 315.86324 78.636719 308.92578 C 86.810423 307.58252 94.105162 301.7516 102.16211 296.61523 C 122.59112 283.55758 133.23934 265.51354 128.4375 256.71875 C 134.83491 252.24952 135.92592 250.67187 138.67773 246.79688 C 146.54937 235.71239 147.67474 214.19319 155.82031 209.78906 C 163.76263 205.04029 188.03856 217.45898 185.2832 213.07617 C 181.88933 207.6779 175.9757 206.65157 167.22461 204.30273 C 164.79802 203.65142 162.61571 203.37132 160.64648 203.4082 z M 182.01172 217.79883 C 178.21547 217.69452 173.89995 218.83775 168.36328 220.02734 C 136.92105 226.78289 168.90378 269.16964 152.70898 281.57031 C 140.59426 277.74768 125.57517 290.53926 114.43945 309.5918 C 109.62975 317.84937 104.09342 325.37543 103.07812 333.59961 C 96.052701 330.31936 87.369848 333.41669 83.099609 340.72656 C 78.565579 348.49757 80.65694 358.16099 87.769531 362.31055 C 91.076996 364.23726 95.066787 364.70168 98.914062 363.60547 C 96.840262 368.11681 95.797467 372.35046 95.808594 375.64258 C 95.818421 378.55002 96.650276 380.72294 98.318359 381.70312 C 99.969015 382.66607 102.22996 382.34555 104.72266 380.97656 C 107.7216 379.32956 111.05667 376.16538 114.07422 371.89062 C 114.88115 376.0859 117.32505 379.62003 120.83984 381.67383 C 127.95225 385.82481 137.39526 382.88869 141.92969 375.11719 C 146.45727 367.35502 144.37789 357.70395 137.28125 353.54688 C 143.94134 348.62174 147.77041 340.10443 152.5957 331.85742 C 164.81511 310.91627 166.05556 290.00168 157.76953 284.36719 C 161.42257 277.47111 161.67317 275.57095 162.35352 270.86719 C 164.29963 257.41205 155.48238 237.7492 160.7207 230.11328 C 165.62086 222.2635 192.88924 222.23628 188.4375 219.59375 C 186.38127 218.37323 184.28947 217.86142 182.01172 217.79883 z M 209.48633 220.64844 C 209.33801 220.68837 209.17989 220.83927 209.00781 221.11328 C 205.61677 226.51332 207.25858 232.28784 208.93945 241.19141 C 214.90534 272.79295 258.07913 241.88053 270.07031 258.38086 C 265.94548 270.39606 278.35735 285.73237 297.125 297.3418 C 305.25952 302.35681 312.64367 308.07984 320.83984 309.30078 C 317.38465 316.24186 320.26436 324.99921 327.46484 329.45117 C 335.11987 334.17842 344.83179 332.33061 349.1582 325.32422 C 351.16717 322.06606 351.72999 318.08838 350.73047 314.21484 C 355.1885 316.40101 359.39608 317.54976 362.6875 317.62109 C 365.59425 317.68417 367.78695 316.90668 368.80859 315.26367 C 369.81259 313.63764 369.54813 311.36995 368.24219 308.84375 C 366.67085 305.8045 363.5904 302.39127 359.39258 299.26758 C 363.60673 298.56598 367.20257 296.21029 369.34375 292.74805 C 373.67157 285.74184 370.97369 276.22959 363.31836 271.50195 C 355.67203 266.78138 345.97028 268.61714 341.63672 275.60742 C 336.87995 268.82606 328.46145 264.78425 320.33789 259.75391 C 299.70933 247.01383 278.83245 245.25027 272.99219 253.39258 C 266.18976 249.56795 264.29657 249.27059 259.61133 248.47266 C 246.20917 246.19016 226.3324 254.51192 218.83008 249.08398 C 211.58824 244.3072 211.71114 220.04947 209.48633 220.64844 z M 204.51367 222.58008 C 204.36591 222.53812 204.1517 222.58578 203.86328 222.73242 C 198.17931 225.62243 196.62152 231.42002 193.48828 239.92188 C 182.36737 270.09763 235.28773 265.76504 237.0957 286.08203 C 227.38294 294.26994 230.15059 313.80282 240.28516 333.40625 C 244.6865 341.88853 248.08247 350.59439 254.48633 355.85352 C 247.95546 360.03255 245.92504 369.02367 249.81445 376.54297 C 253.95233 384.53198 263.23306 387.93778 270.54492 384.15039 C 273.9426 382.38762 276.47052 379.26629 277.60352 375.42969 C 280.30455 379.59594 283.32245 382.74165 286.10938 384.49414 C 288.57064 386.04189 290.85154 386.50152 292.57227 385.61719 C 294.26908 384.73818 295.20712 382.65859 295.38477 379.82031 C 295.59854 376.40551 294.7109 371.89345 292.71484 367.05664 C 296.69057 368.62027 300.9856 368.44598 304.60156 366.57617 C 311.9145 362.78971 314.48765 353.24349 310.34961 345.25391 C 306.21577 337.27508 296.95033 333.86682 289.64062 337.63672 C 289.04462 329.37486 283.89773 321.58159 279.51367 313.0918 C 268.36369 291.56218 251.3622 279.32073 242.16797 283.30469 C 238.29769 276.52813 236.82611 275.29914 233.2168 272.20703 C 222.89234 263.36204 201.56476 260.287 197.91797 251.77539 C 194.16003 243.9562 206.73006 223.20949 204.51367 222.58008 z M 195.1582 222.65234 C 189.41826 222.82827 185.25433 226.87172 178.69531 232.26953 C 153.86324 252.70523 201.73576 275.67956 193.04102 294.13086 C 180.52343 296.29634 173.05285 314.55344 171.90625 336.5918 C 171.42409 346.1358 169.96052 355.36428 172.83398 363.13672 C 165.08673 363.44777 158.79347 370.18628 158.35547 378.64062 C 157.89485 387.62585 164.18833 395.25053 172.41211 395.67188 C 176.23496 395.86539 179.99352 394.44512 182.9082 391.70508 C 183.13686 396.66503 184.15459 400.90461 185.67578 403.82422 C 187.01922 406.40269 188.75559 407.95161 190.6875 408.05664 C 192.59599 408.15453 194.45691 406.83316 196.04297 404.47266 C 197.95115 401.63276 199.46129 397.28841 200.17969 392.10547 C 202.82248 395.4621 206.61626 397.48032 210.68164 397.69141 C 218.90589 398.11407 225.94744 391.17137 226.4082 382.18555 C 226.86715 373.21117 220.58806 365.5916 212.375 365.15625 C 216.03087 357.72335 215.52256 348.39923 216.02344 338.85742 C 217.26577 314.64371 208.76825 295.49286 198.82031 294.29102 C 198.89991 286.48752 198.25024 284.68447 196.69531 280.19336 C 192.24743 267.34636 175.38682 253.92679 176.53516 244.73828 C 177.28488 235.51498 201.49811 222.97194 196.33008 222.66797 C 195.93223 222.64457 195.54087 222.64062 195.1582 222.65234 z "
       transform="matrix(0.26458333,0,0,0.26458333,3.2632255,3.3278717)"
       id="path816" />
  </g>
</svg>
