<?xml version="1.0" encoding="UTF-8" standalone="no"?>
<!-- Created with Inkscape (http://www.inkscape.org/) -->

<svg
   xmlns:dc="http://purl.org/dc/elements/1.1/"
   xmlns:cc="http://creativecommons.org/ns#"
   xmlns:rdf="http://www.w3.org/1999/02/22-rdf-syntax-ns#"
   xmlns:svg="http://www.w3.org/2000/svg"
   xmlns="http://www.w3.org/2000/svg"
   xmlns:sodipodi="http://sodipodi.sourceforge.net/DTD/sodipodi-0.dtd"
   xmlns:inkscape="http://www.inkscape.org/namespaces/inkscape"
   width="105.03123mm"
   height="110.91075mm"
   viewBox="0 0 105.03123 110.91075"
   version="1.1"
   id="svg8"
   inkscape:version="0.92.2 (5c3e80d, 2017-08-06)"
   sodipodi:docname="SelfPolinator.svg">
  <defs
     id="defs2" />
  <sodipodi:namedview
     id="base"
     pagecolor="#ffffff"
     bordercolor="#666666"
     borderopacity="1.0"
     inkscape:pageopacity="0.0"
     inkscape:pageshadow="2"
     inkscape:zoom="0.7"
     inkscape:cx="155.95705"
     inkscape:cy="212.92754"
     inkscape:document-units="mm"
     inkscape:current-layer="layer1"
     showgrid="false"
     inkscape:window-width="1680"
     inkscape:window-height="997"
     inkscape:window-x="-8"
     inkscape:window-y="-8"
     inkscape:window-maximized="1" />
  <metadata
     id="metadata5">
    <rdf:RDF>
      <cc:Work
         rdf:about="">
        <dc:format>image/svg+xml</dc:format>
        <dc:type
           rdf:resource="http://purl.org/dc/dcmitype/StillImage" />
        <dc:title />
      </cc:Work>
    </rdf:RDF>
  </metadata>
  <g
     inkscape:label="Layer 1"
     inkscape:groupmode="layer"
     id="layer1"
     transform="translate(-3.2632255,-3.3278717)">
    <path
       style="fill:#008000;fill-opacity:1;stroke:none;stroke-width:0.30431223;stroke-opacity:1"
       d="M 53.315121,7.0578216 C 41.575888,7.1154874 32.22356,9.7282324 25.220416,10.602927 10.630219,12.425247 5.4542903,16.809203 6.5198014,21.495596 c 0.8038879,3.535707 5.1604866,7.243565 11.7072256,10.153361 11.158567,4.959591 39.490887,-4.745457 53.59641,6.36953 2.506762,1.975303 4.08193,4.382142 4.956069,7.082211 -3.583507,-2.896967 -9.107767,-5.418791 -13.546058,-6.246083 -9.518335,-1.774207 -21.074579,-1.206047 -28.482886,5.643705 -4.394378,4.06306 -2.33917,12.671256 5.199611,11.077098 10.872566,-2.299121 2.783056,-9.966947 0.678073,-11.913224 -0.851572,-0.787366 14.224834,-3.437986 21.249049,-2.299202 5.044841,0.817883 11.5062,3.468667 15.467173,6.019191 2.086251,11.736501 -6.66309,27.81432 -10.313302,38.677259 -2.917066,-0.418388 -6.058538,-1.003101 -9.449172,-1.84942 -3.451234,-0.86145 -6.581161,-1.588183 -9.429395,-2.196332 -2.328046,-4.429716 -2.951204,-6.896234 -2.00023,-8.128655 1.7141,-2.221398 6.140387,-0.794403 6.140387,-0.794403 0.734581,-0.584816 -1.913328,-3.858529 -2.261078,-4.18006 -0.678166,-0.627035 0.678165,-4.179978 0,-4.807012 -0.355891,-0.329058 -2.848602,0.752405 -2.938532,0.835554 -2.142863,1.981297 -5.674525,-0.439675 -6.781376,-1.463077 -0.833989,-0.771109 -0.402944,2.926155 -1.582383,2.926155 -0.694169,0 -6.012883,-0.292773 -6.55576,0.209176 -1.113947,1.02996 4.295304,3.553108 4.295304,3.553108 -0.560391,0.162551 -5.334838,1.756392 -3.617229,3.344502 1.482526,1.370748 6.207394,-1.061984 7.233838,0.836125 0.896476,1.657776 1.856814,4.327339 3.025689,6.661577 -29.185015,-5.375043 -21.505187,4.86325 -21.471573,13.340295 0.03822,9.638645 7.572355,12.603265 31.42142,15.780665 17.400132,2.31822 28.665329,1.74558 35.594335,-0.49093 2.580857,1.56451 4.94278,1.75833 7.068183,-1.21904 5.653936,-7.92032 9.782336,-43.34557 9.782336,-54.932278 0,-24.587365 -16.085621,-40.303681 -34.699298,-44.5192826 C 64.480511,7.5333777 58.65114,7.0316103 53.315121,7.0578216 Z"
       id="path822"
       inkscape:connector-curvature="0"
       sodipodi:nodetypes="ssssscsssssccccscssccscccccsscssss" />
  </g>
</svg>
