<?xml version="1.0" encoding="UTF-8" standalone="no"?>
<!-- Created with Inkscape (http://www.inkscape.org/) -->

<svg
   width="105.03123mm"
   height="110.91075mm"
   viewBox="0 0 105.03123 110.91075"
   version="1.1"
   id="svg8"
   inkscape:version="1.1.2 (b8e25be833, 2022-02-05)"
   sodipodi:docname="SocialButterfly.svg"
   xmlns:inkscape="http://www.inkscape.org/namespaces/inkscape"
   xmlns:sodipodi="http://sodipodi.sourceforge.net/DTD/sodipodi-0.dtd"
   xmlns="http://www.w3.org/2000/svg"
   xmlns:svg="http://www.w3.org/2000/svg"
   xmlns:rdf="http://www.w3.org/1999/02/22-rdf-syntax-ns#"
   xmlns:cc="http://creativecommons.org/ns#"
   xmlns:dc="http://purl.org/dc/elements/1.1/">
  <defs
     id="defs2" />
  <sodipodi:namedview
     id="base"
     pagecolor="#ffffff"
     bordercolor="#666666"
     borderopacity="1.0"
     inkscape:pageopacity="0.0"
     inkscape:pageshadow="2"
     inkscape:zoom="0.9899495"
     inkscape:cx="317.69297"
     inkscape:cy="294.96454"
     inkscape:document-units="mm"
     inkscape:current-layer="layer1"
     showgrid="false"
     inkscape:window-width="1920"
     inkscape:window-height="1017"
     inkscape:window-x="-8"
     inkscape:window-y="-8"
     inkscape:window-maximized="1"
     inkscape:pagecheckerboard="0" />
  <metadata
     id="metadata5">
    <rdf:RDF>
      <cc:Work
         rdf:about="">
        <dc:format>image/svg+xml</dc:format>
        <dc:type
           rdf:resource="http://purl.org/dc/dcmitype/StillImage" />
      </cc:Work>
    </rdf:RDF>
  </metadata>
  <g
     inkscape:label="Layer 1"
     inkscape:groupmode="layer"
     id="layer1"
     transform="translate(-3.2632255,-3.3278717)">
    <path
       id="path847"
       style="fill:#008000;stroke-width:0.33648"
       d="m 33.106894,86.411435 c -0.808117,4.595495 -3.847617,21.612865 -3.847617,21.612865 -2.152981,-0.35941 -1.450552,-0.49645 -1.741501,-3.97115 -0.150443,-1.79669 -3.941287,4.37016 -8.98196,2.81535 -6.726944,-2.07494 -19.44514579,-16.334145 4.23093,-17.293226 4.000645,-0.162059 -11.365739,0.191364 -11.856756,-4.01577 -1.6630194,-14.249096 8.039897,-38.191162 14.848924,-23.275073 2.61811,5.735321 9.499163,11.893941 7.347983,24.127004 z"
       sodipodi:nodetypes="ssssssss" />
    <path
       id="path847-0"
       style="fill:#008000;stroke-width:0.33648"
       d="m 32.355137,86.279239 c -0.808116,4.595495 -3.756435,21.628901 -3.756435,21.628901 2.146435,0.39664 1.532894,0.0282 2.991782,-3.1388 0.754362,-1.63759 2.213969,5.45255 7.482668,5.71065 7.031253,0.34443 23.850998,-8.72054 1.922472,-17.699173 -3.705355,-1.517157 10.618612,4.057305 12.515431,0.270072 6.424337,-12.826937 5.471348,-38.642841 -6.017821,-26.944484 -4.417652,4.498084 -12.986916,7.939771 -15.138097,20.172834 z"
       sodipodi:nodetypes="ssssssss" />
    <path
       id="path3176"
       style="fill:#008000;stroke-width:0.114433"
       d="m 33.695663,69.619882 c -0.06034,0.916724 -0.163602,5.451311 -0.163602,5.451311 2.156468,2.697571 0.990409,8.05113 0.897974,8.60479 -0.271392,1.625595 -1.767012,-7.486727 -2.05889,-7.768777 -0.360884,-0.348733 0.163182,-2.478967 0.393928,-5.984324 0.230746,-3.505357 -0.05909,-6.74266 0.441676,-6.709696 0.500765,0.03297 0.71966,2.901338 0.488914,6.406696 z"
       sodipodi:nodetypes="sssssss" />
    <path
       id="path3176-7"
       style="fill:#008000;stroke-width:0.114433"
       d="m 37.218637,70.117858 c -0.235457,0.888022 -1.585182,5.218311 -1.585182,5.218311 -2.904782,1.868016 -3.508751,7.313701 -3.5979,7.867902 -0.26174,1.627177 4.064548,-6.530918 4.431192,-6.705033 0.453328,-0.215282 0.636718,-2.401354 1.537062,-5.796961 0.900343,-3.395609 2.208457,-6.371002 1.723371,-6.499622 -0.485087,-0.128617 -1.6082,2.519795 -2.508543,5.915403 z"
       sodipodi:nodetypes="sssssss" />
    <ellipse
       style="fill:#008000;fill-opacity:1;stroke-width:0.145239"
       id="path4606"
       cx="47.038982"
       cy="69.436852"
       rx="2.6665096"
       ry="6.1843748"
       transform="rotate(9.9734763)" />
    <path
       id="path847-1"
       style="fill:#008000;stroke-width:0.322806"
       d="M 35.446233,36.512793 C 33.198522,40.38395 24.832797,54.703514 24.832797,54.703514 23.012801,53.66778 23.690714,53.776667 24.577964,50.551319 25.036743,48.883557 19.583227,53.183244 15.558136,50.115864 10.186521,46.022342 3.4494801,28.974744 25.088033,35.941947 28.74439,37.119225 14.789398,32.355044 15.738731,28.403932 18.95402,15.021956 35.610793,-3.3296616 36.809099,12.355021 c 0.460755,6.030849 4.62047,13.852874 -1.362866,24.157772 z"
       sodipodi:nodetypes="ssssssss" />
    <path
       id="path847-0-2"
       style="fill:#008000;stroke-width:0.322806"
       d="M 34.812969,36.145101 C 32.565258,40.016258 24.276344,54.38042 24.276344,54.38042 c 1.80175,1.067161 1.371116,0.532392 3.732394,-1.83709 1.220969,-1.225211 0.190335,5.642535 4.849662,7.617589 6.218029,2.635777 24.363189,0.03554 7.585297,-15.303009 -2.835032,-2.591819 8.220561,7.165901 11.181361,4.382708 C 61.652979,39.814262 69.333422,16.250715 55.117676,22.985534 49.651641,25.57511 40.796302,25.840202 34.812968,36.1451 Z"
       sodipodi:nodetypes="ssssssss" />
    <path
       id="path3176-2"
       style="fill:#008000;stroke-width:0.109783"
       d="m 41.530277,21.586006 c -0.35755,0.805591 -1.95036,4.855031 -1.95036,4.855031 1.049767,3.142535 -1.771017,7.577972 -2.037382,8.045994 -0.78207,1.374156 0.884975,-7.326565 0.715415,-7.677102 -0.209648,-0.433413 0.966874,-2.178445 2.334073,-5.258852 1.367199,-3.080407 2.176933,-6.091602 2.616991,-5.896288 0.440059,0.195312 -0.311538,2.85081 -1.678737,5.931217 z"
       sodipodi:nodetypes="sssssss" />
    <path
       id="path3176-7-2"
       style="fill:#008000;stroke-width:0.109783"
       d="m 44.538161,23.199683 c -0.505757,0.721824 -3.153488,4.175015 -3.153488,4.175015 -3.233732,0.721469 -5.578802,5.425782 -5.842386,5.895377 -0.773903,1.378772 5.820412,-4.537019 6.208181,-4.57255 0.479446,-0.04393 1.367642,-1.951927 3.301544,-4.71203 1.933901,-2.760102 4.096031,-5.006913 3.701731,-5.283184 -0.3943,-0.276272 -2.28168,1.73727 -4.215582,4.497372 z"
       sodipodi:nodetypes="sssssss" />
    <ellipse
       style="fill:#008000;fill-opacity:1;stroke-width:0.139337"
       id="path4606-9"
       cx="48.476009"
       cy="4.2464514"
       rx="2.5581477"
       ry="5.933053"
       transform="rotate(30.140745)" />
    <path
       id="path847-1-2"
       style="fill:#008000;stroke-width:0.153838"
       d="m 77.976713,21.878998 c -2.039959,0.846426 -9.606912,3.96398 -9.606912,3.96398 -0.446792,-0.858202 -0.20036,-0.64103 1.095308,-1.603362 0.669964,-0.497602 -2.807967,-0.328964 -3.57164,-2.514459 -1.019151,-2.916621 1.14504,-10.984245 8.002084,-2.759917 1.158665,1.3897 -3.185252,-4.014565 -1.65442,-5.229328 5.18473,-4.1142786 17.315458,-6.5610973 13.274606,-0.442997 -1.553727,2.352445 -2.108713,6.332931 -7.539026,8.586083 z"
       sodipodi:nodetypes="ssssssss" />
    <path
       id="path847-0-2-8"
       style="fill:#008000;stroke-width:0.153838"
       d="m 77.82336,21.57768 c -2.039959,0.846425 -9.588311,4.000527 -9.588311,4.000527 0.430233,0.865074 0.408224,0.554784 2.060835,0.293814 0.85453,-0.134942 -1.552381,2.138162 -0.213087,4.084824 1.787327,2.597885 9.976848,6.369535 7.531199,-3.685177 -0.413255,-1.698989 1.299247,4.797109 3.317155,4.539425 6.834438,-0.87274 16.791513,-7.590613 9.018089,-8.806717 -2.988928,-0.4676 -6.695567,-2.679849 -12.12588,-0.426696 z"
       sodipodi:nodetypes="ssssssss" />
    <path
       id="path3176-2-2"
       style="fill:#008000;stroke-width:0.0523189"
       d="m 84.783797,17.941394 c -0.379345,0.204891 -2.20236,1.288169 -2.20236,1.288169 -0.477701,1.437051 -2.915631,2.342817 -3.160053,2.446556 -0.717653,0.304581 2.479775,-2.480933 2.511559,-2.654916 0.03929,-0.21512 1.025801,-0.554064 2.476333,-1.337528 1.450525,-0.783468 2.652537,-1.686759 2.776499,-1.499651 0.123955,0.187102 -0.951445,0.973906 -2.401978,1.75737 z"
       sodipodi:nodetypes="sssssss" />
    <path
       id="path3176-7-2-7"
       style="fill:#008000;stroke-width:0.0523189"
       d="m 85.550535,19.323432 c -0.415889,0.135222 -2.499059,0.722575 -2.499059,0.722575 -1.534057,-0.57664 -3.854669,0.552762 -4.098413,0.657804 -0.715637,0.30842 3.69691,-0.160759 3.866134,-0.07274 0.209231,0.108829 1.124636,-0.365661 2.714925,-0.882715 1.590281,-0.517057 3.125806,-0.784581 3.044002,-0.989713 -0.08181,-0.20513 -1.4373,0.04773 -3.027589,0.564789 z"
       sodipodi:nodetypes="sssssss" />
    <ellipse
       style="fill:#008000;fill-opacity:1;stroke-width:0.0665031"
       id="path4606-9-5"
       cx="50.006786"
       cy="-64.45269"
       rx="1.1811061"
       ry="2.9272902"
       transform="matrix(0.45356702,0.89122217,-0.92364823,0.38324136,0,0)" />
    <path
       id="path847-19"
       style="fill:#008000;stroke-width:0.224899"
       d="m 83.956472,87.403963 c 1.01545,2.924187 4.748807,13.770157 4.748807,13.770157 -1.348021,0.59873 -0.990012,0.25825 -2.274121,-1.615989 -0.663984,-0.969158 -0.85055,3.965329 -4.236057,4.959979 -4.518071,1.32739 -16.384527,-2.06153 -3.140072,-11.448209 2.237971,-1.586105 -6.444555,4.352552 -8.07876,2.135014 -5.534874,-7.510547 -7.681064,-24.795943 1.014067,-18.826003 3.343329,2.295476 9.263044,3.24096 11.966136,11.025051 z"
       sodipodi:nodetypes="ssssssss" />
    <path
       id="path847-0-22"
       style="fill:#008000;stroke-width:0.224899"
       d="m 83.483627,87.609189 c 1.015449,2.924185 4.806165,13.745261 4.806165,13.745261 1.356266,-0.57499 0.886544,-0.55622 0.703063,-2.908157 -0.09485,-1.216159 3.021038,2.284987 6.120017,0.46523 4.135687,-2.428539 10.848288,-13.881158 -4.59207,-10.818014 -2.609021,0.517594 7.383367,-1.649058 7.251085,-4.518462 C 97.323871,73.85669 88.47523,59.480301 85.660992,70.445554 c -1.082089,4.216201 -4.880459,9.379543 -2.177365,17.163635 z"
       sodipodi:nodetypes="ssssssss" />
    <path
       id="path3176-5"
       style="fill:#008000;stroke-width:0.0764862"
       d="m 78.892867,77.601829 c 0.260302,0.545671 1.659645,3.171943 1.659645,3.171943 2.102043,0.734297 3.15641,4.224718 3.281571,4.575181 0.367483,1.028991 -3.419435,-3.612692 -3.67723,-3.664677 -0.318744,-0.06427 -0.703896,-1.475577 -1.699231,-3.562104 -0.995335,-2.086524 -2.202453,-3.825726 -1.905198,-3.993873 0.297257,-0.168148 1.345108,1.387004 2.340443,3.47353 z"
       sodipodi:nodetypes="sssssss" />
    <path
       id="path3176-7-4"
       style="fill:#008000;stroke-width:0.0764862"
       d="m 81.06969,76.57072 c 0.150829,0.594669 0.770948,3.569717 0.770948,3.569717 -1.06198,2.150496 0.343775,5.483637 0.470991,5.833182 0.373517,1.026289 0.226146,-5.244435 0.380024,-5.480681 0.190258,-0.292102 -0.407866,-1.608081 -0.984604,-3.881968 -0.576738,-2.273888 -0.784903,-4.460214 -1.10395,-4.352507 -0.319046,0.107706 -0.110147,2.038368 0.466591,4.312257 z"
       sodipodi:nodetypes="sssssss" />
    <ellipse
       style="fill:#008000;fill-opacity:1;stroke-width:0.0972146"
       id="path4606-1"
       cx="50.421883"
       cy="107.33574"
       rx="1.800736"
       ry="4.1027822"
       transform="matrix(0.91732518,-0.39813881,0.32804254,0.94466295,0,0)" />
    <path
       id="path847-19-9"
       style="fill:#008000;stroke-width:0.196575"
       d="m 73.047061,53.253984 c -1.879368,1.945653 -8.863269,9.136639 -8.863269,9.136639 -1.007919,-0.806078 -0.598368,-0.66396 0.352593,-2.401226 0.491746,-0.898311 -3.440592,0.914046 -5.573998,-1.312253 -2.847099,-2.971071 -4.95001,-13.500807 7.692305,-6.970546 2.136224,1.103446 -5.983587,-3.262734 -4.904452,-5.407145 3.654903,-7.262881 16.308558,-15.778808 15.123665,-6.680494 -0.455598,3.498355 1.175971,8.455755 -3.826844,13.635025 z"
       sodipodi:nodetypes="ssssssss" />
    <path
       id="path847-0-22-9"
       style="fill:#008000;stroke-width:0.196575"
       d="m 72.697256,52.969332 c -1.879368,1.945653 -8.82083,9.171177 -8.82083,9.171177 0.992661,0.821871 0.789874,0.465703 2.555062,-0.608995 0.912789,-0.555655 -0.576467,3.244711 2.087234,4.92201 3.554802,2.2384 15.196337,2.893085 6.618142,-7.844643 -1.449494,-1.814397 4.246058,5.061548 6.436289,3.821283 7.418072,-4.200646 15.113369,-16.751384 5.41406,-14.581595 -3.729442,0.834293 -9.28714,-0.0585 -14.289957,5.120763 z"
       sodipodi:nodetypes="ssssssss" />
    <path
       id="path3176-5-2"
       style="fill:#008000;stroke-width:0.0668534"
       d="m 78.682182,45.447176 c -0.322342,0.417887 -1.81507,2.542575 -1.81507,2.542575 0.267774,1.918384 -2.038674,4.118701 -2.262526,4.354572 -0.657265,0.692516 1.454873,-4.079616 1.392272,-4.299791 -0.0774,-0.272227 0.871662,-1.13003 2.104231,-2.727937 1.232566,-1.597907 2.108792,-3.222023 2.359288,-3.058597 0.250498,0.163428 -0.545627,1.591271 -1.778195,3.189178 z"
       sodipodi:nodetypes="sssssss" />
    <path
       id="path3176-7-4-5"
       style="fill:#008000;stroke-width:0.0668534"
       d="m 80.36004,46.723372 c -0.404489,0.352574 -2.48194,2.012371 -2.48194,2.012371 -2.106487,0.0307 -4.149253,2.440663 -4.371569,2.677754 -0.652734,0.696117 4.190494,-1.90463 4.436808,-1.879197 0.30455,0.03144 1.093804,-0.953418 2.640483,-2.301586 1.54668,-1.348168 3.172513,-2.376301 2.960539,-2.580564 -0.211971,-0.204264 -1.637641,0.723053 -3.184321,2.071222 z"
       sodipodi:nodetypes="sssssss" />
    <ellipse
       style="fill:#008000;fill-opacity:1;stroke-width:0.0850045"
       id="path4606-1-8"
       cx="89.546753"
       cy="-10.576288"
       rx="1.5754887"
       ry="3.5853732"
       transform="matrix(0.77564291,0.63117198,-0.69474866,0.7192526,0,0)" />
    <path
       id="path847-1-7"
       style="fill:#008000;stroke-width:0.0849238"
       d="m 95.157314,38.384841 c -0.244754,1.151929 -1.162943,5.417166 -1.162943,5.417166 -0.53985,-0.109817 -0.361454,-0.138137 -0.4039,-1.017152 -0.02195,-0.454522 -1.033028,1.067189 -2.290596,0.630135 -1.678264,-0.583266 -4.75921,-4.293127 1.221162,-4.324208 1.010528,-0.0052 -2.868492,-0.05294 -2.954878,-1.118481 -0.29258,-3.608866 2.36799,-9.561387 3.952612,-5.73846 0.609296,1.469936 2.290067,3.084604 1.638543,6.151 z"
       sodipodi:nodetypes="ssssssss" />
    <path
       id="path847-0-2-9"
       style="fill:#008000;stroke-width:0.0849238"
       d="m 94.968876,38.344803 c -0.244754,1.151929 -1.140088,5.422022 -1.140088,5.422022 0.537863,0.119168 0.386393,0.02076 0.782569,-0.765061 0.204856,-0.406332 0.50988,1.395016 1.836507,1.507032 1.770431,0.149487 6.093616,-1.987203 0.642513,-4.447154 -0.921095,-0.415669 2.642208,1.117932 3.154373,0.179567 1.73463,-3.17814 1.72414,-9.698189 -1.277952,-6.849811 -1.15432,1.095216 -3.346397,1.887008 -3.997922,4.953405 z"
       sodipodi:nodetypes="ssssssss" />
    <path
       id="path3176-2-1"
       style="fill:#008000;stroke-width:0.0288816"
       d="m 95.455344,34.15474 c -0.02338,0.230689 -0.08981,1.373531 -0.08981,1.373531 0.519907,0.699613 0.178119,2.039561 0.149873,2.178388 -0.08293,0.407608 -0.379026,-1.904116 -0.450136,-1.977858 -0.08792,-0.09117 0.06324,-0.623817 0.15265,-1.505922 0.08942,-0.882104 0.04514,-1.701231 0.171153,-1.688458 0.126014,0.01277 0.155684,0.738215 0.06627,1.620319 z"
       sodipodi:nodetypes="sssssss" />
    <path
       id="path3176-7-2-4"
       style="fill:#008000;stroke-width:0.0288816"
       d="m 96.339511,34.311715 c -0.0673,0.22189 -0.446297,1.302103 -0.446297,1.302103 -0.749311,0.445304 -0.950142,1.813495 -0.977564,1.952488 -0.08051,0.408093 1.08336,-1.611103 1.177389,-1.651756 0.116263,-0.05026 0.181982,-0.600024 0.439314,-1.448484 0.257332,-0.84846 0.613775,-1.587297 0.492567,-1.624058 -0.12121,-0.03676 -0.428076,0.621249 -0.685409,1.469707 z"
       sodipodi:nodetypes="sssssss" />
    <ellipse
       style="fill:#008000;fill-opacity:1;stroke-width:0.0366566"
       id="path4606-9-2"
       cx="100.92252"
       cy="15.262391"
       rx="0.67299449"
       ry="1.5608606"
       transform="rotate(11.995401)" />
  </g>
</svg>
