<?xml version="1.0" encoding="UTF-8" standalone="no"?>
<!-- Created with Inkscape (http://www.inkscape.org/) -->

<svg
   width="105.03123mm"
   height="110.91075mm"
   viewBox="0 0 105.03123 110.91075"
   version="1.1"
   id="svg8"
   inkscape:version="1.1.2 (b8e25be833, 2022-02-05)"
   sodipodi:docname="ToadsAndToadstools.svg"
   xmlns:inkscape="http://www.inkscape.org/namespaces/inkscape"
   xmlns:sodipodi="http://sodipodi.sourceforge.net/DTD/sodipodi-0.dtd"
   xmlns="http://www.w3.org/2000/svg"
   xmlns:svg="http://www.w3.org/2000/svg"
   xmlns:rdf="http://www.w3.org/1999/02/22-rdf-syntax-ns#"
   xmlns:cc="http://creativecommons.org/ns#"
   xmlns:dc="http://purl.org/dc/elements/1.1/">
  <defs
     id="defs2" />
  <sodipodi:namedview
     id="base"
     pagecolor="#ffffff"
     bordercolor="#666666"
     borderopacity="1.0"
     inkscape:pageopacity="0.0"
     inkscape:pageshadow="2"
     inkscape:zoom="0.98994949"
     inkscape:cx="100.51018"
     inkscape:cy="412.14224"
     inkscape:document-units="mm"
     inkscape:current-layer="layer1"
     showgrid="false"
     inkscape:window-width="1920"
     inkscape:window-height="1017"
     inkscape:window-x="-8"
     inkscape:window-y="-8"
     inkscape:window-maximized="1"
     inkscape:pagecheckerboard="0" />
  <metadata
     id="metadata5">
    <rdf:RDF>
      <cc:Work
         rdf:about="">
        <dc:format>image/svg+xml</dc:format>
        <dc:type
           rdf:resource="http://purl.org/dc/dcmitype/StillImage" />
      </cc:Work>
    </rdf:RDF>
  </metadata>
  <g
     inkscape:label="Layer 1"
     inkscape:groupmode="layer"
     id="layer1"
     transform="translate(-3.2632255,-3.3278717)">
    <path
       style="fill:#008000;fill-opacity:1;stroke:none;stroke-width:0.258404;stroke-opacity:1"
       d="m 57.987506,5.657685 c -1.885905,-9.16e-5 -3.414775,1.7353088 -3.414775,3.8760659 0.001,0.455488 0.07279,0.9072041 0.211971,1.3344161 -0.08976,-9.56e-4 -0.177195,-0.0056 -0.267487,-0.0056 -0.205972,0 -0.40708,0.0082 -0.610178,0.01312 0.133652,-0.418497 0.202796,-0.86 0.204403,-1.3051441 0,-2.1407566 -1.52887,-3.8761569 -3.414775,-3.8760654 -1.885903,-8.99e-5 -3.414773,1.7353101 -3.414773,3.8760654 0.0016,0.8167971 0.230215,1.6121911 0.653582,2.2726471 -2.506093,0.844577 -4.123366,2.156331 -4.123369,3.633811 3e-6,1.21532 1.133491,2.57193 2.959036,3.659551 -2.644209,1.47699 -4.18457,3.882514 -4.251057,7.322635 -0.0662,3.425542 0.162709,6.685974 0.412852,8.450631 0.373351,1.029602 5.650955,0.05293 6.314295,-0.866743 -0.338037,-2.148751 -0.568154,-10.091134 0.08726,-10.203765 0.04052,-0.007 0.08518,0.0134 0.134249,0.0641 0.324099,2.523824 -0.638631,8.002997 0.294728,10.094421 1.399599,0.812646 3.410354,0.45003 5.116761,0.446177 1.666137,-0.0038 3.752391,0.533703 4.781215,-0.359888 0.847734,-2.210124 0.07415,-7.506165 0.349893,-9.929361 0.04348,-0.0507 0.0827,-0.07106 0.118602,-0.0641 0.559001,0.10841 0.328339,7.733076 0.03581,10.154419 2.796214,0.724744 4.574222,0.929793 6.306715,0.68089 0.262725,-1.711188 0.540244,-4.933096 0.596036,-8.46677 0.05941,-3.762728 -1.319726,-6.278339 -4.071887,-7.701157 1.399122,-1.014165 2.226213,-2.203005 2.226215,-3.281029 -2e-6,-1.537081 -1.750511,-2.894624 -4.431736,-3.733237 0.397243,-0.648815 0.610321,-1.419941 0.610682,-2.2100641 0,-2.1405324 -1.528562,-3.8758399 -3.414268,-3.8760658 z m -3.488459,28.091889 c -3.934212,0 -7.663406,0.39225 -11.175486,1.083076 -0.119396,0.0097 -0.290759,0.02679 -0.399721,0.03483 0.0029,0.01499 0.0062,0.02753 0.0091,0.04239 C 23.053095,38.964636 9.1082944,52.264501 7.3402564,59.590012 1.9458706,81.940569 4.8437504,71.160037 47.057313,70.861892 c -1.020976,6.778464 0.150903,15.291527 0.150903,20.936306 0,18.118112 -0.359975,19.008432 9.505446,19.103752 8.940366,0.0864 9.505447,-0.24735 9.505444,-19.103752 0,-5.50121 0.714302,-13.992251 -0.294237,-20.798524 38.683461,0.894187 44.646061,11.712917 37.209221,-11.409662 -2.51061,-7.805988 -16.686667,-20.690801 -36.661626,-24.663993 0.0016,-0.008 0.0034,-0.01468 0.005,-0.02271 C 65.957136,34.78171 65.3511,34.681796 64.684823,34.598972 61.443047,34.054062 58.043639,33.749568 54.499049,33.749571 Z"
       id="path818"
       sodipodi:nodetypes="sccscccccscsccsccsccsccscscccsccccsscscssccssc" />
    <path
       style="fill:#ffffff;fill-opacity:1;stroke:none;stroke-width:0.26458332;stroke-opacity:1"
       id="path939"
       cx="19.279966"
       cy="62.361389"
       rx="2.126116"
       ry="2.1733632" />
    <circle
       style="fill:#ffffff;stroke-width:0.232442"
       id="path1637"
       cx="19.798811"
       cy="64.136887"
       r="1.7534583" />
    <circle
       style="fill:#ffffff;stroke-width:0.232442"
       id="path1639"
       cx="26.35121"
       cy="54.077576"
       r="2.0303202" />
    <circle
       style="fill:#ffffff;stroke-width:0.232442"
       id="path1641"
       cx="44.808662"
       cy="58.69194"
       r="2.9531932" />
    <circle
       style="fill:#ffffff;stroke-width:0.232442"
       id="path1645"
       cx="40.748024"
       cy="44.479702"
       r="1.2920219" />
    <circle
       style="fill:#ffffff;stroke-width:0.232442"
       id="path1647"
       cx="60.682076"
       cy="45.587151"
       r="2.0303202" />
    <circle
       style="fill:#ffffff;stroke-width:0.232442"
       id="path1649"
       cx="52.376221"
       cy="40.234482"
       r="2.2148948" />
    <circle
       style="fill:#ffffff;stroke-width:0.232442"
       id="path1651"
       cx="58.282604"
       cy="57.584496"
       r="1.661171" />
    <circle
       style="fill:#ffffff;stroke-width:0.232442"
       id="path1653"
       cx="73.140862"
       cy="67.09008"
       r="1.9380329" />
    <circle
       style="fill:#ffffff;stroke-width:0.232442"
       id="path1655"
       cx="79.139526"
       cy="55.738747"
       r="2.7686183" />
    <circle
       style="fill:#ffffff;stroke-width:0.232442"
       id="path1657"
       cx="90.767723"
       cy="59.430241"
       r="1.661171" />
    <circle
       style="fill:#ffffff;stroke-width:0.232442"
       id="path1659"
       cx="97.227837"
       cy="68.289818"
       r="1.4765966" />
    <circle
       style="fill:#ffffff;stroke-width:0.232442"
       id="path1661"
       cx="73.048569"
       cy="43.741402"
       r="2.2148948" />
    <circle
       style="fill:#ffffff;stroke-width:0.232442"
       id="path1663"
       cx="68.434204"
       cy="54.631302"
       r="1.1074474" />
    <circle
       style="fill:#ffffff;stroke-width:0.232442"
       id="path1665"
       cx="31.980734"
       cy="66.351784"
       r="1.1997347" />
    <circle
       style="fill:#ffffff;stroke-width:0.232442"
       id="path2175"
       cx="50.622356"
       cy="9.0378714"
       r="1.5009102" />
    <circle
       style="fill:#ffffff;stroke-width:0.232442"
       id="path2175-7"
       cx="58.126907"
       cy="8.7768431"
       r="1.5009102" />
    <path
       id="path2324"
       style="fill:#ffffff;stroke-width:0.27995"
       d="m 62.972608,16.369037 c 0,0.564283 -3.659542,1.021726 -8.173812,1.021726 -4.514273,0 -8.173811,-0.457443 -8.173811,-1.021726 0,-0.564284 3.895321,0.0786 8.409593,0.0786 4.514272,0 7.93803,-0.642879 7.93803,-0.0786 z"
       sodipodi:nodetypes="sssss" />
    <path
       id="path5862"
       style="fill:#008000;stroke-width:0.238"
       d="m 36.452833,85.146384 c 0.955835,2.564346 -2.577782,-0.107607 -7.952486,4.858342 -0.770455,0.711861 1.924352,8.523959 4.681032,12.191464 1.212844,1.61356 -2.969994,1.79358 -4.096601,0.47478 -2.660454,-3.114345 -5.016032,-10.414092 -6.783982,-10.350542 -5.13649,0.184631 -7.937265,3.965319 -8.888243,1.414 -1.147094,-3.077465 4.566304,-7.335386 10.928701,-9.706907 6.362399,-2.371519 10.964486,-1.958596 12.11158,1.118873 z"
       sodipodi:nodetypes="ssssssss" />
    <path
       id="path5862-9"
       style="fill:#008000;stroke-width:0.157616"
       d="m 31.365624,93.09969 c -0.426862,1.848959 1.604794,-0.265086 5.29661,2.781603 0.529216,0.43674 -0.635447,6.053437 -2.114934,8.800467 -0.650923,1.2086 1.976722,1.02439 2.593358,0.0266 1.456168,-2.35631 2.442836,-7.592635 3.552621,-7.67919 3.2243,-0.251477 5.227594,2.163435 5.652288,0.323865 0.512277,-2.218932 -3.344163,-4.749589 -7.48076,-5.924109 -4.136597,-1.174518 -6.986907,-0.548131 -7.499183,1.670801 z"
       sodipodi:nodetypes="ssssssss" />
    <path
       id="path5862-9-4"
       style="fill:#008000;stroke-width:0.0994462"
       d="m 25.0779,98.191721 c 0.659392,1.138895 -0.922929,0.128972 -2.195129,2.837779 -0.182369,0.3883 1.749845,3.873 3.183153,5.40502 0.630605,0.67404 -0.822427,1.05002 -1.385569,0.50856 -1.329857,-1.27869 -3.078024,-4.54616 -3.693749,-4.39314 -1.788889,0.44458 -2.301956,2.41692 -2.958003,1.28381 -0.79133,-1.36678 0.689312,-3.76635 2.635923,-5.324343 1.946611,-1.557995 3.622047,-1.684442 4.413381,-0.317661 z"
       sodipodi:nodetypes="ssssssss" />
    <path
       id="path7828"
       style="fill:#008000;stroke-width:0.209452"
       d="m 80.56292,88.032474 c 3.056399,8.881849 -0.194116,5.051307 -1.678488,6.185749 -0.176726,0.135064 0.395056,1.729032 0.996692,3.672179 0.110453,0.356728 1.73646,1.717462 1.362815,1.610281 -0.701599,-0.201249 -0.845728,0.148271 -0.75916,0.479196 0.658361,2.516791 0.988831,4.983111 -0.334522,5.351421 -0.389293,0.10835 -2.447883,1.84686 -2.461032,0.45137 -0.0086,-0.91323 -0.299878,-2.95853 -0.671274,-5.03587 -0.05712,-0.31952 -0.490602,-0.41436 -1.01104,-0.0388 -0.298943,0.21572 0.695718,-1.638196 0.625044,-1.985942 -0.42424,-2.087648 -0.863424,-3.807616 -1.079705,-3.868708 -1.775516,-0.501523 -2.979552,3.577984 -3.866431,-5.03181 -0.379353,-3.68275 -0.03509,-11.030146 2.416257,-11.524184 2.451347,-0.494038 5.154097,5.937701 6.460853,9.735118 z"
       sodipodi:nodetypes="sssssssssssssss" />
    <path
       id="path7828-3"
       style="fill:#008000;stroke-width:0.134999"
       d="m 82.438132,93.637808 c -2.030762,5.703366 0.09046,3.256881 1.03935,3.998206 0.112973,0.08826 -0.266472,1.111647 -0.667554,2.359873 -0.07363,0.229153 -1.130923,1.094993 -0.889374,1.028473 0.453558,-0.12488 0.544048,0.10137 0.485989,0.31405 -0.441577,1.61754 -0.671481,3.20481 0.178889,3.45127 0.25015,0.0725 1.564984,1.20708 1.583026,0.30781 0.01181,-0.58851 0.213563,-1.9047 0.467177,-3.24101 0.03902,-0.20552 0.319033,-0.26368 0.651876,-0.018 0.19119,0.14108 -0.43715,-1.06058 -0.389216,-1.28421 0.287731,-1.34259 0.582595,-2.448089 0.722404,-2.48598 1.147754,-0.31105 1.895767,2.32645 2.526416,-3.216462 0.269753,-2.370917 0.09827,-7.108649 -1.47822,-7.443869 -1.576497,-0.33522 -3.362526,3.791473 -4.230774,6.229931 z"
       sodipodi:nodetypes="sssssssssssssss" />
    <path
       id="path7828-2"
       style="fill:#008000;stroke-width:0.0641772"
       d="m 88.754598,102.03162 c 0.872147,2.74275 -0.09591,1.54592 -0.558793,1.88272 -0.05512,0.04 0.108537,0.53249 0.278808,1.13206 0.03126,0.11006 0.51952,0.53862 0.405837,0.50309 -0.21346,-0.0667 -0.2602,0.039 -0.236003,0.14131 0.183506,0.7757 0.266918,1.53357 -0.141086,1.63684 -0.120032,0.0304 -0.763164,0.54807 -0.757118,0.12053 0.004,-0.2798 -0.07051,-0.90842 -0.169286,-1.54744 -0.01518,-0.0983 -0.147292,-0.13047 -0.309427,-0.0192 -0.09312,0.064 0.224934,-0.4968 0.205794,-0.60383 -0.114893,-0.64255 -0.237006,-1.17258 -0.302818,-1.19286 -0.54026,-0.16644 -0.938517,1.07452 -1.148059,-1.56925 -0.08963,-1.13083 0.06885,-3.379003 0.823307,-3.512647 0.754464,-0.133645 1.53596,1.856027 1.908844,3.028677 z"
       sodipodi:nodetypes="sssssssssssssss" />
    <path
       id="path7828-9"
       style="fill:#008000;stroke-width:0.154567"
       d="m 96.807167,95.231596 c -0.518842,7.346084 -1.524633,3.572061 -2.783803,3.922577 -0.149911,0.04171 -0.228219,1.367387 -0.384384,2.953517 -0.02864,0.2912 0.628516,1.77962 0.420498,1.58539 -0.390598,-0.3647 -0.579256,-0.15851 -0.615968,0.10663 -0.279186,2.01649 -0.753003,3.89389 -1.697212,3.74389 -0.27776,-0.0441 -2.069853,0.56081 -1.691145,-0.44695 0.247831,-0.6595 0.629816,-2.22181 0.969706,-3.83228 0.05227,-0.2477 -0.197236,-0.45183 -0.632566,-0.34487 -0.250055,0.0614 0.897077,-0.96007 0.948566,-1.23233 0.309123,-1.63444 0.50675,-3.009143 0.386077,-3.120893 -0.990644,-0.917348 -2.888327,1.639163 -1.064488,-4.83109 0.780128,-2.767583 3.037177,-7.943926 4.733995,-7.530699 1.696819,0.413227 1.632549,5.88632 1.410724,9.02713 z"
       sodipodi:nodetypes="sssssssssssssss"
       inkscape:transform-center-x="4.6971406"
       inkscape:transform-center-y="4.0586381" />
  </g>
</svg>
