<?xml version="1.0" encoding="UTF-8" standalone="no"?>
<!-- Created with Inkscape (http://www.inkscape.org/) -->

<svg
   xmlns:dc="http://purl.org/dc/elements/1.1/"
   xmlns:cc="http://creativecommons.org/ns#"
   xmlns:rdf="http://www.w3.org/1999/02/22-rdf-syntax-ns#"
   xmlns:svg="http://www.w3.org/2000/svg"
   xmlns="http://www.w3.org/2000/svg"
   xmlns:sodipodi="http://sodipodi.sourceforge.net/DTD/sodipodi-0.dtd"
   xmlns:inkscape="http://www.inkscape.org/namespaces/inkscape"
   width="105.03123mm"
   height="110.91075mm"
   viewBox="0 0 105.03123 110.91075"
   version="1.1"
   id="svg8"
   inkscape:version="0.92.2 (5c3e80d, 2017-08-06)"
   sodipodi:docname="ToadsAndToadstools.svg">
  <defs
     id="defs2" />
  <sodipodi:namedview
     id="base"
     pagecolor="#ffffff"
     bordercolor="#666666"
     borderopacity="1.0"
     inkscape:pageopacity="0.0"
     inkscape:pageshadow="2"
     inkscape:zoom="1.4"
     inkscape:cx="189.01884"
     inkscape:cy="178.39617"
     inkscape:document-units="mm"
     inkscape:current-layer="layer1"
     showgrid="false"
     inkscape:window-width="1280"
     inkscape:window-height="1001"
     inkscape:window-x="1672"
     inkscape:window-y="-8"
     inkscape:window-maximized="1" />
  <metadata
     id="metadata5">
    <rdf:RDF>
      <cc:Work
         rdf:about="">
        <dc:format>image/svg+xml</dc:format>
        <dc:type
           rdf:resource="http://purl.org/dc/dcmitype/StillImage" />
        <dc:title />
      </cc:Work>
    </rdf:RDF>
  </metadata>
  <g
     inkscape:label="Layer 1"
     inkscape:groupmode="layer"
     id="layer1"
     transform="translate(-3.2632255,-3.3278717)">
    <path
       style="fill:#008000;fill-opacity:1;stroke:none;stroke-width:0.99999994;stroke-opacity:1"
       d="M 209.57227 3.3339844 A 13.214285 15 0 0 0 196.35742 18.333984 A 13.214285 15 0 0 0 197.17773 23.498047 C 196.83038 23.494339 196.492 23.476562 196.14258 23.476562 C 195.34549 23.476563 194.56722 23.508196 193.78125 23.527344 A 13.214285 15 0 0 0 194.57227 18.476562 A 13.214285 15 0 0 0 181.35742 3.4765625 A 13.214285 15 0 0 0 168.14258 18.476562 A 13.214285 15 0 0 0 170.67188 27.271484 C 160.97354 30.539916 154.71485 35.616278 154.71484 41.333984 C 154.71485 46.037154 159.10134 51.287105 166.16602 55.496094 C 155.93319 61.211901 149.97214 70.521045 149.71484 83.833984 C 149.45865 97.090501 149.82689 106.65337 150.79492 113.48242 C 154.8914 112.03731 164.7843 111.05985 176.50586 110.53125 C 175.19769 102.21579 173.54955 74.131184 176.08594 73.695312 C 176.24275 73.668381 176.41559 73.747173 176.60547 73.943359 C 177.8597 83.710317 178.23778 102.38881 177.55664 110.48242 C 183.7937 110.21801 190.50184 110.07741 197.10547 110.0625 C 203.55326 110.04794 210.2379 110.17071 216.49219 110.4375 C 215.98477 101.88453 216.33722 84.293552 217.4043 74.916016 C 217.57255 74.719829 217.72433 74.641022 217.86328 74.667969 C 220.02656 75.087504 218.75511 101.12183 217.62305 110.49219 C 229.20175 111.02404 239.12734 112.06026 242.92773 113.68555 C 243.94445 107.06342 244.49893 97.508964 244.71484 83.833984 C 244.94476 69.272593 239.60763 59.537419 228.95703 54.03125 C 234.3715 50.106529 237.57226 45.505835 237.57227 41.333984 C 237.57226 35.38563 230.79796 30.132072 220.42188 26.886719 A 13.214285 15 0 0 0 222.78516 18.333984 A 13.214285 15 0 0 0 209.57227 3.3339844 z M 209.14258 11.546875 A 4.9999989 11.071428 0 0 1 214.14258 22.619141 A 4.9999989 11.071428 0 0 1 209.14258 33.689453 A 4.9999989 11.071428 0 0 1 204.14258 22.619141 A 4.9999989 11.071428 0 0 1 209.14258 11.546875 z M 181.42773 12.046875 A 4.9999988 11.071428 0 0 1 186.42773 23.119141 A 4.9999988 11.071428 0 0 1 181.42773 34.189453 A 4.9999988 11.071428 0 0 1 176.42773 23.119141 A 4.9999988 11.071428 0 0 1 181.42773 12.046875 z M 228.67578 48.265625 C 230.32932 48.267095 230.67344 48.666939 228.92773 49.726562 C 218.08949 52.358523 209.17985 56.409913 198.92773 56.511719 C 187.68648 56.623328 166.63889 51.117262 165.89258 49.726562 C 165.14627 48.335875 188.37006 51.923441 199.64258 51.869141 C 206.9835 51.833793 223.71517 48.261216 228.67578 48.265625 z M 196.07227 112.04688 C 180.84725 112.04688 166.41563 113.56485 152.82422 116.23828 C 152.36217 116.27588 151.69901 116.34195 151.27734 116.37305 C 151.28845 116.43105 151.30128 116.47959 151.3125 116.53711 C 74.379433 132.22867 24.874759 185.16314 13.572266 212.04688 C -11.311871 271.23533 3.9110287 256.82176 167.27344 255.66797 C 163.32236 281.89997 167.85742 314.8447 167.85742 336.68945 C 167.85742 406.80479 166.46435 410.25026 204.64258 410.61914 C 239.24093 410.95333 241.42774 409.66193 241.42773 336.68945 C 241.42773 315.4003 244.19201 282.54079 240.28906 256.20117 C 389.99032 259.66159 410.1673 274.98944 384.28516 212.04688 C 372.21717 182.6988 319.70936 131.97548 242.4082 116.59961 C 242.41453 116.56871 242.42144 116.54278 242.42773 116.51172 C 240.41396 116.04116 238.06866 115.6545 235.49023 115.33398 C 222.94487 113.22523 209.78949 112.04687 196.07227 112.04688 z M 207.58594 134.32812 A 9.5964483 10.606601 0 0 1 217.18359 144.93359 A 9.5964483 10.606601 0 0 1 207.58594 155.54102 A 9.5964483 10.606601 0 0 1 197.99023 144.93359 A 9.5964483 10.606601 0 0 1 207.58594 134.32812 z M 110.10742 161.60156 A 10.101525 9.5964481 0 0 1 120.20898 171.19727 A 10.101525 9.5964481 0 0 1 110.10742 180.79492 A 10.101525 9.5964481 0 0 1 100.00586 171.19727 A 10.101525 9.5964481 0 0 1 110.10742 161.60156 z M 267.69141 165.64258 A 10.101525 10.606601 0 0 1 277.79102 176.24805 A 10.101525 10.606601 0 0 1 267.69141 186.85547 A 10.101525 10.606601 0 0 1 257.58984 176.24805 A 10.101525 10.606601 0 0 1 267.69141 165.64258 z M 176.27148 184.83398 A 10.606601 9.5964482 0 0 1 186.87891 194.43164 A 10.606601 9.5964482 0 0 1 176.27148 204.02734 A 10.606601 9.5964482 0 0 1 165.66406 194.43164 A 10.606601 9.5964482 0 0 1 176.27148 184.83398 z M 72.226562 202.00781 A 6.5659907 7.0710672 0 0 1 78.791016 209.07812 A 6.5659907 7.0710672 0 0 1 72.226562 216.15039 A 6.5659907 7.0710672 0 0 1 65.660156 209.07812 A 6.5659907 7.0710672 0 0 1 72.226562 202.00781 z M 242.94141 219.17969 A 6.5659911 7.0710676 0 0 1 249.50781 226.25195 A 6.5659911 7.0710676 0 0 1 242.94141 233.32227 A 6.5659911 7.0710676 0 0 1 236.375 226.25195 A 6.5659911 7.0710676 0 0 1 242.94141 219.17969 z M 336.38086 222.21094 A 8.0812202 9.0913722 0 0 1 344.46289 231.30273 A 8.0812202 9.0913722 0 0 1 336.38086 240.39258 A 8.0812202 9.0913722 0 0 1 328.29883 231.30273 A 8.0812202 9.0913722 0 0 1 336.38086 222.21094 z "
       transform="matrix(0.26458333,0,0,0.26458333,3.2632255,3.3278717)"
       id="path818" />
    <path
       style="fill:#ffffff;fill-opacity:1;stroke:none;stroke-width:0.26458332;stroke-opacity:1"
       id="path939"
       cx="19.279966"
       cy="62.361389"
       rx="2.126116"
       ry="2.1733632" />
  </g>
</svg>
